<svg version="1.1" viewBox="0.0 0.0 600.0 371.0" fill="none" stroke="none" stroke-linecap="square" stroke-miterlimit="10" width="600" height="371" xmlns:xlink="http://www.w3.org/1999/xlink" xmlns="http://www.w3.org/2000/svg"><path fill="#272729" d="M0 0L600.0 0L600.0 371.0L0 371.0L0 0Z" fill-rule="nonzero"/><path stroke="#f3f3f3" stroke-width="1.0" stroke-linecap="butt" d="M45.5 332.5L581.5 332.5" fill-rule="nonzero"/><path stroke="#5a5a5c" stroke-width="1.0" stroke-linecap="butt" d="M45.5 278.5L581.5 278.5" fill-rule="nonzero"/><path stroke="#5a5a5c" stroke-width="1.0" stroke-linecap="butt" d="M45.5 224.5L581.5 224.5" fill-rule="nonzero"/><path stroke="#5a5a5c" stroke-width="1.0" stroke-linecap="butt" d="M45.5 170.5L581.5 170.5" fill-rule="nonzero"/><path stroke="#5a5a5c" stroke-width="1.0" stroke-linecap="butt" d="M45.5 116.5L581.5 116.5" fill-rule="nonzero"/><path stroke="#5a5a5c" stroke-width="1.0" stroke-linecap="butt" d="M45.5 61.5L581.5 61.5" fill-rule="nonzero"/><clipPath id="id_0"><path d="M45.55 61.916668L581.45 61.916668L581.45 332.45L45.55 332.45L45.55 61.916668Z" clip-rule="nonzero"/></clipPath><path stroke="#000000" stroke-width="2.0" stroke-linecap="butt" stroke-opacity="0.0" clip-path="url(#id_0)" d="M146.0 332.0L81.0 332.0L81.0 332.0L146.0 332.0Z" fill-rule="nonzero"/><path fill="#4285f4" clip-path="url(#id_0)" d="M146.0 332.0L81.0 332.0L81.0 332.0L146.0 332.0Z" fill-rule="nonzero"/><path stroke="#000000" stroke-width="2.0" stroke-linecap="butt" stroke-opacity="0.0" clip-path="url(#id_0)" d="M246.0 332.0L181.0 332.0L181.0 332.0L246.0 332.0Z" fill-rule="nonzero"/><path fill="#4285f4" clip-path="url(#id_0)" d="M246.0 332.0L181.0 332.0L181.0 332.0L246.0 332.0Z" fill-rule="nonzero"/><path stroke="#000000" stroke-width="2.0" stroke-linecap="butt" stroke-opacity="0.0" clip-path="url(#id_0)" d="M347.0 332.0L282.0 332.0L282.0 280.0C282.0 278.89542 282.89542 278.0 284.0 278.0L345.0 278.0C346.10458 278.0 347.0 278.89542 347.0 280.0Z" fill-rule="nonzero"/><path fill="#4285f4" clip-path="url(#id_0)" d="M347.0 332.0L282.0 332.0L282.0 280.0C282.0 278.89542 282.89542 278.0 284.0 278.0L345.0 278.0C346.10458 278.0 347.0 278.89542 347.0 280.0Z" fill-rule="nonzero"/><path stroke="#000000" stroke-width="2.0" stroke-linecap="butt" stroke-opacity="0.0" clip-path="url(#id_0)" d="M447.0 332.0L382.0 332.0L382.0 64.0C382.0 62.89543 382.89542 62.0 384.0 62.0L445.0 62.0C446.10458 62.0 447.0 62.89543 447.0 64.0Z" fill-rule="nonzero"/><path fill="#4285f4" clip-path="url(#id_0)" d="M447.0 332.0L382.0 332.0L382.0 64.0C382.0 62.89543 382.89542 62.0 384.0 62.0L445.0 62.0C446.10458 62.0 447.0 62.89543 447.0 64.0Z" fill-rule="nonzero"/><path stroke="#000000" stroke-width="2.0" stroke-linecap="butt" stroke-opacity="0.0" clip-path="url(#id_0)" d="M547.0 332.0L482.0 332.0L482.0 118.0C482.0 116.89543 482.89542 116.0 484.0 116.0L545.0 116.0C546.10455 116.0 547.0 116.89543 547.0 118.0Z" fill-rule="nonzero"/><path fill="#4285f4" clip-path="url(#id_0)" d="M547.0 332.0L482.0 332.0L482.0 118.0C482.0 116.89543 482.89542 116.0 484.0 116.0L545.0 116.0C546.10455 116.0 547.0 116.89543 547.0 118.0Z" fill-rule="nonzero"/><path fill="#ffffff" d="M33.05 332.21564Q33.05 330.6844 33.3625 329.7625Q33.675 328.825 34.284374 328.325Q34.909374 327.825 35.846874 327.825Q36.534374 327.825 37.05 328.10626Q37.58125 328.3875 37.925 328.91876Q38.26875 329.4344 38.45625 330.1844Q38.64375 330.9344 38.64375 332.21564Q38.64375 333.73126 38.33125 334.65314Q38.034374 335.575 37.409374 336.09064Q36.8 336.59064 35.846874 336.59064Q34.6125 336.59064 33.89375 335.7Q33.05 334.6375 33.05 332.21564ZM34.128124 332.21564Q34.128124 334.325 34.628124 335.02814Q35.128124 335.73126 35.846874 335.73126Q36.58125 335.73126 37.065624 335.02814Q37.565624 334.325 37.565624 332.21564Q37.565624 330.09064 37.065624 329.40314Q36.58125 328.7 35.83125 328.7Q35.1125 328.7 34.675 329.3094Q34.128124 330.09064 34.128124 332.21564Z" fill-rule="nonzero"/><path fill="#ffffff" d="M37.01875 282.34332L35.971874 282.34332L35.971874 275.62457Q35.58125 275.98395 34.95625 276.35895Q34.346874 276.71832 33.8625 276.8902L33.8625 275.87457Q34.7375 275.4527 35.39375 274.87457Q36.065624 274.28082 36.346874 273.71832L37.01875 273.71832L37.01875 282.34332Z" fill-rule="nonzero"/><path fill="#ffffff" d="M38.596874 227.22104L38.596874 228.23666L32.909374 228.23666Q32.909374 227.86166 33.034374 227.50229Q33.253124 226.92416 33.721874 226.36166Q34.20625 225.79916 35.1125 225.06479Q36.51875 223.90854 37.003124 223.23666Q37.503124 222.56479 37.503124 221.97104Q37.503124 221.34604 37.05 220.92416Q36.596874 220.48666 35.878124 220.48666Q35.1125 220.48666 34.659374 220.93979Q34.20625 221.39291 34.190624 222.20541L33.1125 222.09604Q33.221874 220.87729 33.940624 220.25229Q34.675 219.61166 35.909374 219.61166Q37.14375 219.61166 37.8625 220.29916Q38.58125 220.98666 38.58125 222.00229Q38.58125 222.51791 38.3625 223.01791Q38.159374 223.50229 37.659374 224.06479Q37.175 224.61166 36.05 225.56479Q35.096874 226.36166 34.815624 226.65854Q34.55 226.93979 34.378124 227.22104L38.596874 227.22104Z" fill-rule="nonzero"/><path fill="#ffffff" d="M33.05 171.86438L34.1125 171.72375Q34.284374 172.61438 34.721874 173.02063Q35.159374 173.41125 35.784374 173.41125Q36.534374 173.41125 37.05 172.89563Q37.565624 172.38 37.565624 171.61438Q37.565624 170.89563 37.08125 170.42688Q36.6125 169.9425 35.878124 169.9425Q35.58125 169.9425 35.128124 170.0675L35.253124 169.13Q35.3625 169.14563 35.425 169.14563Q36.096874 169.14563 36.628124 168.80188Q37.175 168.4425 37.175 167.70813Q37.175 167.13 36.784374 166.755Q36.39375 166.36438 35.76875 166.36438Q35.159374 166.36438 34.7375 166.755Q34.33125 167.14563 34.221874 167.91125L33.159374 167.72375Q33.346874 166.67688 34.034374 166.09875Q34.721874 165.505 35.7375 165.505Q36.440624 165.505 37.034374 165.8175Q37.628124 166.11438 37.940624 166.63Q38.253124 167.14563 38.253124 167.73938Q38.253124 168.28625 37.95625 168.755Q37.659374 169.20813 37.08125 169.47375Q37.83125 169.64563 38.253124 170.20813Q38.675 170.755 38.675 171.59875Q38.675 172.72375 37.846874 173.505Q37.034374 174.28625 35.784374 174.28625Q34.659374 174.28625 33.909374 173.61438Q33.159374 172.92688 33.05 171.86438Z" fill-rule="nonzero"/><path fill="#ffffff" d="M36.425 120.02333L36.425 117.96083L32.70625 117.96083L32.70625 116.99208L36.628124 111.42958L37.4875 111.42958L37.4875 116.99208L38.64375 116.99208L38.64375 117.96083L37.4875 117.96083L37.4875 120.02333L36.425 120.02333ZM36.425 116.99208L36.425 113.132706L33.7375 116.99208L36.425 116.99208Z" fill-rule="nonzero"/><path fill="#ffffff" d="M33.05 63.666664L34.159374 63.572914Q34.284374 64.385414 34.721874 64.791664Q35.175 65.197914 35.815624 65.197914Q36.565624 65.197914 37.096874 64.61979Q37.628124 64.041664 37.628124 63.104164Q37.628124 62.197914 37.1125 61.68229Q36.6125 61.15104 35.784374 61.15104Q35.284374 61.15104 34.8625 61.385414Q34.45625 61.61979 34.221874 61.979164L33.2375 61.854164L34.065624 57.447914L38.346874 57.447914L38.346874 58.447914L34.909374 58.447914L34.45625 60.760414Q35.221874 60.21354 36.065624 60.21354Q37.190624 60.21354 37.95625 60.99479Q38.7375 61.77604 38.7375 63.010414Q38.7375 64.166664 38.065624 65.02604Q37.2375 66.05729 35.815624 66.05729Q34.64375 66.05729 33.89375 65.40104Q33.159374 64.74479 33.05 63.666664Z" fill-rule="nonzero"/><path fill="#ffffff" d="M114.1323 349.45L113.08543 349.45L113.08543 342.73126Q112.6948 343.09064 112.0698 343.46564Q111.46043 343.825 110.97605 343.9969L110.97605 342.98126Q111.85105 342.5594 112.5073 341.98126Q113.17918 341.3875 113.46043 340.825L114.1323 340.825L114.1323 349.45Z" fill-rule="nonzero"/><path fill="#ffffff" d="M215.87865 348.4344L215.87865 349.45L210.19115 349.45Q210.19115 349.075 210.31615 348.71564Q210.5349 348.1375 211.00365 347.575Q211.48802 347.0125 212.39427 346.27814Q213.80052 345.1219 214.2849 344.45Q214.7849 343.77814 214.7849 343.1844Q214.7849 342.5594 214.33177 342.1375Q213.87865 341.7 213.1599 341.7Q212.39427 341.7 211.94115 342.15314Q211.48802 342.60626 211.4724 343.41876L210.39427 343.3094Q210.50365 342.09064 211.2224 341.46564Q211.95677 340.825 213.19115 340.825Q214.42552 340.825 215.14427 341.5125Q215.86302 342.2 215.86302 343.21564Q215.86302 343.73126 215.64427 344.23126Q215.44115 344.71564 214.94115 345.27814Q214.45677 345.825 213.33177 346.77814Q212.37865 347.575 212.0974 347.8719Q211.83177 348.15314 211.6599 348.4344L215.87865 348.4344Z" fill-rule="nonzero"/><path fill="#ffffff" d="M310.5 347.1844L311.5625 347.04376Q311.73438 347.9344 312.17188 348.34064Q312.60938 348.73126 313.23438 348.73126Q313.98438 348.73126 314.5 348.21564Q315.01562 347.7 315.01562 346.9344Q315.01562 346.21564 314.53125 345.7469Q314.0625 345.2625 313.32812 345.2625Q313.03125 345.2625 312.57812 345.3875L312.70312 344.45Q312.8125 344.46564 312.875 344.46564Q313.54688 344.46564 314.07812 344.1219Q314.625 343.7625 314.625 343.02814Q314.625 342.45 314.23438 342.075Q313.84375 341.6844 313.21875 341.6844Q312.60938 341.6844 312.1875 342.075Q311.78125 342.46564 311.67188 343.23126L310.60938 343.04376Q310.79688 341.9969 311.48438 341.41876Q312.17188 340.825 313.1875 340.825Q313.89062 340.825 314.48438 341.1375Q315.07812 341.4344 315.39062 341.95Q315.70312 342.46564 315.70312 343.0594Q315.70312 343.60626 315.40625 344.075Q315.10938 344.52814 314.53125 344.79376Q315.28125 344.96564 315.70312 345.52814Q316.125 346.075 316.125 346.91876Q316.125 348.04376 315.29688 348.825Q314.48438 349.60626 313.23438 349.60626Q312.10938 349.60626 311.35938 348.9344Q310.60938 348.2469 310.5 347.1844Z" fill-rule="nonzero"/><path fill="#ffffff" d="M414.0432 349.45L414.0432 347.3875L410.32446 347.3875L410.32446 346.41876L414.24634 340.85626L415.1057 340.85626L415.1057 346.41876L416.26196 346.41876L416.26196 347.3875L415.1057 347.3875L415.1057 349.45L414.0432 349.45ZM414.0432 346.41876L414.0432 342.5594L411.3557 346.41876L414.0432 346.41876Z" fill-rule="nonzero"/><path fill="#ffffff" d="M510.83646 347.2L511.94583 347.10626Q512.0708 347.91876 512.5083 348.325Q512.9614 348.73126 513.60205 348.73126Q514.35205 348.73126 514.8833 348.15314Q515.41455 347.575 515.41455 346.6375Q515.41455 345.73126 514.8989 345.21564Q514.3989 344.6844 513.5708 344.6844Q513.0708 344.6844 512.6489 344.91876Q512.2427 345.15314 512.0083 345.5125L511.02396 345.3875L511.85208 340.98126L516.1333 340.98126L516.1333 341.98126L512.6958 341.98126L512.2427 344.29376Q513.0083 343.7469 513.85205 343.7469Q514.97705 343.7469 515.7427 344.52814Q516.5239 345.3094 516.5239 346.54376Q516.5239 347.7 515.85205 348.5594Q515.0239 349.59064 513.60205 349.59064Q512.4302 349.59064 511.6802 348.9344Q510.94583 348.27814 510.83646 347.2Z" fill-rule="nonzero"/><path fill="#ffffff" d="M20.159374 37.55L20.159374 23.2375L22.05 23.2375L22.05 29.1125L29.4875 29.1125L29.4875 23.2375L31.378124 23.2375L31.378124 37.55L29.4875 37.55L29.4875 30.8L22.05 30.8L22.05 37.55L20.159374 37.55ZM32.221874 32.3625Q32.221874 29.4875 33.815624 28.096874Q35.159374 26.940624 37.08125 26.940624Q39.221874 26.940624 40.565624 28.346874Q41.925 29.753124 41.925 32.221874Q41.925 34.221874 41.33125 35.378124Q40.7375 36.51875 39.58125 37.159374Q38.440624 37.784374 37.08125 37.784374Q34.89375 37.784374 33.55 36.39375Q32.221874 34.9875 32.221874 32.3625ZM34.01875 32.3625Q34.01875 34.3625 34.878124 35.346874Q35.753124 36.33125 37.08125 36.33125Q38.39375 36.33125 39.253124 35.346874Q40.128124 34.346874 40.128124 32.3Q40.128124 30.378124 39.253124 29.39375Q38.378124 28.39375 37.08125 28.39375Q35.753124 28.39375 34.878124 29.39375Q34.01875 30.378124 34.01875 32.3625ZM45.784374 37.55L42.6125 27.175L44.425 27.175L46.08125 33.159374L46.690624 35.39375Q46.7375 35.221874 47.221874 33.253124L48.878124 27.175L50.690624 27.175L52.2375 33.190624L52.753124 35.175L53.346874 33.175L55.128124 27.175L56.83125 27.175L53.596874 37.55L51.76875 37.55L50.1125 31.33125L49.721874 29.565624L47.6125 37.55L45.784374 37.55ZM64.83125 37.55L64.83125 23.2375L66.58125 23.2375L66.58125 37.55L64.83125 37.55ZM68.87813 25.253124L68.87813 23.2375L70.64375 23.2375L70.64375 25.253124L68.87813 25.253124ZM68.87813 37.55L68.87813 27.175L70.64375 27.175L70.64375 37.55L68.87813 37.55ZM72.87813 37.55L72.87813 23.2375L74.64375 23.2375L74.64375 31.39375L78.8 27.175L81.06563 27.175L77.1125 31.01875L81.47188 37.55L79.3 37.55L75.87813 32.253124L74.64375 33.440624L74.64375 37.55L72.87813 37.55ZM89.97188 34.20625L91.78438 34.440624Q91.3625 36.01875 90.19063 36.909374Q89.03438 37.784374 87.22188 37.784374Q84.95625 37.784374 83.6125 36.39375Q82.28438 34.9875 82.28438 32.45625Q82.28438 29.83125 83.62813 28.39375Q84.97188 26.940624 87.12813 26.940624Q89.20625 26.940624 90.51875 28.3625Q91.84688 29.76875 91.84688 32.346874Q91.84688 32.503124 91.83125 32.815624L84.09688 32.815624Q84.19063 34.51875 85.06563 35.425Q85.94063 36.33125 87.2375 36.33125Q88.20625 36.33125 88.87813 35.83125Q89.56563 35.315624 89.97188 34.20625ZM84.19063 31.3625L89.9875 31.3625Q89.87813 30.065624 89.33125 29.409374Q88.4875 28.39375 87.14375 28.39375Q85.94063 28.39375 85.1125 29.20625Q84.28438 30.003124 84.19063 31.3625ZM93.83125 37.55L93.83125 23.2375L95.58125 23.2375L95.58125 37.55L93.83125 37.55ZM97.78438 41.55L97.59688 39.89375Q98.175 40.05 98.59688 40.05Q99.19063 40.05 99.53438 39.846874Q99.89375 39.659374 100.1125 39.315624Q100.28438 39.05 100.65938 38.003124Q100.70625 37.846874 100.81563 37.565624L96.87813 27.175L98.76875 27.175L100.925 33.190624Q101.34688 34.33125 101.675 35.58125Q101.9875 34.378124 102.39375 33.221874L104.6125 27.175L106.37813 27.175L102.425 37.721874Q101.8 39.440624 101.44063 40.08125Q100.97188 40.95625 100.3625 41.346874Q99.76875 41.753124 98.925 41.753124Q98.40938 41.753124 97.78438 41.55ZM120.64375 36.26875Q119.65938 37.096874 118.75313 37.440624Q117.84688 37.784374 116.81563 37.784374Q115.1125 37.784374 114.19063 36.95625Q113.26875 36.1125 113.26875 34.815624Q113.26875 34.05 113.6125 33.425Q113.97188 32.8 114.53438 32.425Q115.09688 32.034374 115.8 31.83125Q116.31563 31.70625 117.3625 31.565624Q119.4875 31.315624 120.4875 30.971874Q120.50313 30.6125 120.50313 30.503124Q120.50313 29.440624 120.00313 28.9875Q119.33125 28.39375 118.00313 28.39375Q116.75313 28.39375 116.15938 28.83125Q115.58125 29.26875 115.3 30.378124L113.58125 30.14375Q113.81563 29.034374 114.34688 28.3625Q114.87813 27.675 115.89375 27.315624Q116.90938 26.940624 118.25313 26.940624Q119.58125 26.940624 120.40938 27.253124Q121.2375 27.565624 121.62813 28.05Q122.01875 28.51875 122.175 29.2375Q122.26875 29.690624 122.26875 30.8625L122.26875 33.20625Q122.26875 35.659374 122.37813 36.315624Q122.4875 36.95625 122.83125 37.55L120.9875 37.55Q120.72188 37.003124 120.64375 36.26875ZM120.4875 32.346874Q119.53438 32.7375 117.6125 33.003124Q116.53438 33.159374 116.08125 33.3625Q115.64375 33.55 115.39375 33.925Q115.14375 34.3 115.14375 34.76875Q115.14375 35.471874 115.675 35.940624Q116.20625 36.409374 117.2375 36.409374Q118.25313 36.409374 119.03438 35.971874Q119.83125 35.51875 120.20625 34.753124Q120.4875 34.14375 120.4875 32.9875L120.4875 32.346874ZM124.84688 37.55L124.84688 27.175L126.425 27.175L126.425 28.753124Q127.03438 27.64375 127.55 27.3Q128.06563 26.940624 128.675 26.940624Q129.56563 26.940624 130.4875 27.503124L129.87813 29.14375Q129.2375 28.753124 128.59688 28.753124Q128.01875 28.753124 127.55 29.1125Q127.09688 29.45625 126.89375 30.065624Q126.6125 31.003124 126.6125 32.1125L126.6125 37.55L124.84688 37.55ZM138.97188 34.20625L140.78438 34.440624Q140.3625 36.01875 139.19063 36.909374Q138.03438 37.784374 136.22188 37.784374Q133.95625 37.784374 132.6125 36.39375Q131.28438 34.9875 131.28438 32.45625Q131.28438 29.83125 132.62813 28.39375Q133.97188 26.940624 136.12813 26.940624Q138.20625 26.940624 139.51875 28.3625Q140.84688 29.76875 140.84688 32.346874Q140.84688 32.503124 140.83125 32.815624L133.09688 32.815624Q133.19063 34.51875 134.06563 35.425Q134.94063 36.33125 136.2375 36.33125Q137.20625 36.33125 137.87813 35.83125Q138.56563 35.315624 138.97188 34.20625ZM133.19063 31.3625L138.9875 31.3625Q138.87813 30.065624 138.33125 29.409374Q137.4875 28.39375 136.14375 28.39375Q134.94063 28.39375 134.1125 29.20625Q133.28438 30.003124 133.19063 31.3625ZM148.78438 41.55L148.59688 39.89375Q149.175 40.05 149.59688 40.05Q150.19063 40.05 150.53438 39.846874Q150.89375 39.659374 151.1125 39.315624Q151.28438 39.05 151.65938 38.003124Q151.70625 37.846874 151.81563 37.565624L147.87813 27.175L149.76875 27.175L151.925 33.190624Q152.34688 34.33125 152.675 35.58125Q152.9875 34.378124 153.39375 33.221874L155.6125 27.175L157.37813 27.175L153.425 37.721874Q152.8 39.440624 152.44063 40.08125Q151.97188 40.95625 151.3625 41.346874Q150.76875 41.753124 149.925 41.753124Q149.40938 41.753124 148.78438 41.55ZM158.22188 32.3625Q158.22188 29.4875 159.81563 28.096874Q161.15938 26.940624 163.08125 26.940624Q165.22188 26.940624 166.56563 28.346874Q167.925 29.753124 167.925 32.221874Q167.925 34.221874 167.33125 35.378124Q166.7375 36.51875 165.58125 37.159374Q164.44063 37.784374 163.08125 37.784374Q160.89375 37.784374 159.55 36.39375Q158.22188 34.9875 158.22188 32.3625ZM160.01875 32.3625Q160.01875 34.3625 160.87813 35.346874Q161.75313 36.33125 163.08125 36.33125Q164.39375 36.33125 165.25313 35.346874Q166.12813 34.346874 166.12813 32.3Q166.12813 30.378124 165.25313 29.39375Q164.37813 28.39375 163.08125 28.39375Q161.75313 28.39375 160.87813 29.39375Q160.01875 30.378124 160.01875 32.3625ZM176.65938 37.55L176.65938 36.01875Q175.45625 37.784374 173.37813 37.784374Q172.45625 37.784374 171.65938 37.440624Q170.8625 37.08125 170.47188 36.55Q170.09688 36.01875 169.94063 35.2375Q169.83125 34.721874 169.83125 33.596874L169.83125 27.175L171.58125 27.175L171.58125 32.925Q171.58125 34.3 171.69063 34.784374Q171.8625 35.471874 172.39375 35.878124Q172.94063 36.26875 173.72188 36.26875Q174.51875 36.26875 175.20625 35.8625Q175.90938 35.45625 176.19063 34.76875Q176.4875 34.065624 176.4875 32.7375L176.4875 27.175L178.2375 27.175L178.2375 37.55L176.65938 37.55ZM189.70625 35.971874L189.95625 37.534374Q189.22188 37.690624 188.62813 37.690624Q187.675 37.690624 187.14375 37.39375Q186.62813 37.08125 186.40938 36.596874Q186.19063 36.096874 186.19063 34.51875L186.19063 28.55L184.90938 28.55L184.90938 27.175L186.19063 27.175L186.19063 24.6125L187.94063 23.55L187.94063 27.175L189.70625 27.175L189.70625 28.55L187.94063 28.55L187.94063 34.6125Q187.94063 35.3625 188.03438 35.58125Q188.12813 35.784374 188.33125 35.925Q188.55 36.05 188.94063 36.05Q189.22188 36.05 189.70625 35.971874ZM191.22188 32.3625Q191.22188 29.4875 192.81563 28.096874Q194.15938 26.940624 196.08125 26.940624Q198.22188 26.940624 199.56563 28.346874Q200.925 29.753124 200.925 32.221874Q200.925 34.221874 200.33125 35.378124Q199.7375 36.51875 198.58125 37.159374Q197.44063 37.784374 196.08125 37.784374Q193.89375 37.784374 192.55 36.39375Q191.22188 34.9875 191.22188 32.3625ZM193.01875 32.3625Q193.01875 34.3625 193.87813 35.346874Q194.75313 36.33125 196.08125 36.33125Q197.39375 36.33125 198.25313 35.346874Q199.12813 34.346874 199.12813 32.3Q199.12813 30.378124 198.25313 29.39375Q197.37813 28.39375 196.08125 28.39375Q194.75313 28.39375 193.87813 29.39375Q193.01875 30.378124 193.01875 32.3625ZM208.8625 25.26875L208.8625 23.2375L210.6125 23.2375L210.6125 25.26875L208.8625 25.26875ZM206.62813 41.58125L206.95625 40.08125Q207.4875 40.221874 207.8 40.221874Q208.33125 40.221874 208.59688 39.8625Q208.8625 39.503124 208.8625 38.08125L208.8625 27.175L210.6125 27.175L210.6125 38.1125Q210.6125 40.034374 210.1125 40.784374Q209.4875 41.753124 208.00313 41.753124Q207.3 41.753124 206.62813 41.58125ZM212.22188 32.3625Q212.22188 29.4875 213.81563 28.096874Q215.15938 26.940624 217.08125 26.940624Q219.22188 26.940624 220.56563 28.346874Q221.925 29.753124 221.925 32.221874Q221.925 34.221874 221.33125 35.378124Q220.7375 36.51875 219.58125 37.159374Q218.44063 37.784374 217.08125 37.784374Q214.89375 37.784374 213.55 36.39375Q212.22188 34.9875 212.22188 32.3625ZM214.01875 32.3625Q214.01875 34.3625 214.87813 35.346874Q215.75313 36.33125 217.08125 36.33125Q218.39375 36.33125 219.25313 35.346874Q220.12813 34.346874 220.12813 32.3Q220.12813 30.378124 219.25313 29.39375Q218.37813 28.39375 217.08125 28.39375Q215.75313 28.39375 214.87813 29.39375Q214.01875 30.378124 214.01875 32.3625ZM223.87813 25.253124L223.87813 23.2375L225.64375 23.2375L225.64375 25.253124L223.87813 25.253124ZM223.87813 37.55L223.87813 27.175L225.64375 27.175L225.64375 37.55L223.87813 37.55ZM227.8625 37.55L227.8625 27.175L229.45625 27.175L229.45625 28.659374Q230.59688 26.940624 232.75313 26.940624Q233.69063 26.940624 234.47188 27.284374Q235.26875 27.6125 235.65938 28.159374Q236.05 28.70625 236.20625 29.45625Q236.3 29.95625 236.3 31.175L236.3 37.55L234.53438 37.55L234.53438 31.2375Q234.53438 30.159374 234.33125 29.628124Q234.12813 29.096874 233.59688 28.784374Q233.08125 28.471874 232.37813 28.471874Q231.25313 28.471874 230.44063 29.190624Q229.62813 29.89375 229.62813 31.878124L229.62813 37.55L227.8625 37.55ZM250.64375 36.26875Q249.65938 37.096874 248.75313 37.440624Q247.84688 37.784374 246.81563 37.784374Q245.1125 37.784374 244.19063 36.95625Q243.26875 36.1125 243.26875 34.815624Q243.26875 34.05 243.6125 33.425Q243.97188 32.8 244.53438 32.425Q245.09688 32.034374 245.8 31.83125Q246.31563 31.70625 247.3625 31.565624Q249.4875 31.315624 250.4875 30.971874Q250.50313 30.6125 250.50313 30.503124Q250.50313 29.440624 250.00313 28.9875Q249.33125 28.39375 248.00313 28.39375Q246.75313 28.39375 246.15938 28.83125Q245.58125 29.26875 245.3 30.378124L243.58125 30.14375Q243.81563 29.034374 244.34688 28.3625Q244.87813 27.675 245.89375 27.315624Q246.90938 26.940624 248.25313 26.940624Q249.58125 26.940624 250.40938 27.253124Q251.2375 27.565624 251.62813 28.05Q252.01875 28.51875 252.175 29.2375Q252.26875 29.690624 252.26875 30.8625L252.26875 33.20625Q252.26875 35.659374 252.37813 36.315624Q252.4875 36.95625 252.83125 37.55L250.9875 37.55Q250.72188 37.003124 250.64375 36.26875ZM250.4875 32.346874Q249.53438 32.7375 247.6125 33.003124Q246.53438 33.159374 246.08125 33.3625Q245.64375 33.55 245.39375 33.925Q245.14375 34.3 245.14375 34.76875Q245.14375 35.471874 245.675 35.940624Q246.20625 36.409374 247.2375 36.409374Q248.25313 36.409374 249.03438 35.971874Q249.83125 35.51875 250.20625 34.753124Q250.4875 34.14375 250.4875 32.9875L250.4875 32.346874ZM260.83124 37.55L260.83124 23.2375L262.58124 23.2375L262.58124 37.55L260.83124 37.55ZM264.8781 25.253124L264.8781 23.2375L266.64374 23.2375L266.64374 25.253124L264.8781 25.253124ZM264.8781 37.55L264.8781 27.175L266.64374 27.175L266.64374 37.55L264.8781 37.55ZM271.7531 37.55L267.8 27.175L269.65936 27.175L271.89374 33.39375Q272.2531 34.39375 272.55 35.471874Q272.78436 34.659374 273.20624 33.503124L275.5031 27.175L277.3156 27.175L273.39374 37.55L271.7531 37.55ZM284.97186 34.20625L286.78436 34.440624Q286.3625 36.01875 285.1906 36.909374Q284.03436 37.784374 282.22186 37.784374Q279.95624 37.784374 278.6125 36.39375Q277.28436 34.9875 277.28436 32.45625Q277.28436 29.83125 278.6281 28.39375Q279.97186 26.940624 282.1281 26.940624Q284.20624 26.940624 285.51874 28.3625Q286.84686 29.76875 286.84686 32.346874Q286.84686 32.503124 286.83124 32.815624L279.09686 32.815624Q279.1906 34.51875 280.0656 35.425Q280.9406 36.33125 282.2375 36.33125Q283.20624 36.33125 283.8781 35.83125Q284.5656 35.315624 284.97186 34.20625ZM279.1906 31.3625L284.9875 31.3625Q284.8781 30.065624 284.33124 29.409374Q283.4875 28.39375 282.14374 28.39375Q280.9406 28.39375 280.1125 29.20625Q279.28436 30.003124 279.1906 31.3625ZM288.15936 34.45625L289.90936 34.175Q290.05 35.221874 290.72186 35.784374Q291.39374 36.33125 292.59686 36.33125Q293.8 36.33125 294.3781 35.846874Q294.97186 35.346874 294.97186 34.690624Q294.97186 34.096874 294.45624 33.753124Q294.09686 33.51875 292.65936 33.159374Q290.72186 32.659374 289.97186 32.315624Q289.2375 31.95625 288.84686 31.33125Q288.45624 30.690624 288.45624 29.925Q288.45624 29.2375 288.76874 28.64375Q289.09686 28.05 289.64374 27.659374Q290.05 27.3625 290.7531 27.159374Q291.47186 26.940624 292.28436 26.940624Q293.5031 26.940624 294.425 27.3Q295.34686 27.64375 295.78436 28.253124Q296.22186 28.846874 296.39374 29.846874L294.675 30.08125Q294.55 29.284374 293.9875 28.846874Q293.425 28.39375 292.40936 28.39375Q291.1906 28.39375 290.675 28.8Q290.15936 29.190624 290.15936 29.721874Q290.15936 30.065624 290.3781 30.346874Q290.58124 30.628124 291.05 30.815624Q291.3156 30.909374 292.59686 31.253124Q294.47186 31.753124 295.20624 32.08125Q295.9406 32.39375 296.3625 33.003124Q296.78436 33.596874 296.78436 34.503124Q296.78436 35.378124 296.26874 36.159374Q295.7531 36.940624 294.78436 37.3625Q293.8156 37.784374 292.59686 37.784374Q290.58124 37.784374 289.51874 36.940624Q288.45624 36.096874 288.15936 34.45625ZM302.70624 35.971874L302.95624 37.534374Q302.22186 37.690624 301.6281 37.690624Q300.675 37.690624 300.14374 37.39375Q299.6281 37.08125 299.40936 36.596874Q299.1906 36.096874 299.1906 34.51875L299.1906 28.55L297.90936 28.55L297.90936 27.175L299.1906 27.175L299.1906 24.6125L300.9406 23.55L300.9406 27.175L302.70624 27.175L302.70624 28.55L300.9406 28.55L300.9406 34.6125Q300.9406 35.3625 301.03436 35.58125Q301.1281 35.784374 301.33124 35.925Q301.55 36.05 301.9406 36.05Q302.22186 36.05 302.70624 35.971874ZM304.84686 37.55L304.84686 27.175L306.425 27.175L306.425 28.753124Q307.03436 27.64375 307.55 27.3Q308.0656 26.940624 308.675 26.940624Q309.5656 26.940624 310.4875 27.503124L309.8781 29.14375Q309.2375 28.753124 308.59686 28.753124Q308.01874 28.753124 307.55 29.1125Q307.09686 29.45625 306.89374 30.065624Q306.6125 31.003124 306.6125 32.1125L306.6125 37.55L304.84686 37.55ZM318.97186 34.20625L320.78436 34.440624Q320.3625 36.01875 319.1906 36.909374Q318.03436 37.784374 316.22186 37.784374Q313.95624 37.784374 312.6125 36.39375Q311.28436 34.9875 311.28436 32.45625Q311.28436 29.83125 312.6281 28.39375Q313.97186 26.940624 316.1281 26.940624Q318.20624 26.940624 319.51874 28.3625Q320.84686 29.76875 320.84686 32.346874Q320.84686 32.503124 320.83124 32.815624L313.09686 32.815624Q313.1906 34.51875 314.0656 35.425Q314.9406 36.33125 316.2375 36.33125Q317.20624 36.33125 317.8781 35.83125Q318.5656 35.315624 318.97186 34.20625ZM313.1906 31.3625L318.9875 31.3625Q318.8781 30.065624 318.33124 29.409374Q317.4875 28.39375 316.14374 28.39375Q314.9406 28.39375 314.1125 29.20625Q313.28436 30.003124 313.1906 31.3625ZM329.64374 36.26875Q328.65936 37.096874 327.7531 37.440624Q326.84686 37.784374 325.8156 37.784374Q324.1125 37.784374 323.1906 36.95625Q322.26874 36.1125 322.26874 34.815624Q322.26874 34.05 322.6125 33.425Q322.97186 32.8 323.53436 32.425Q324.09686 32.034374 324.8 31.83125Q325.3156 31.70625 326.3625 31.565624Q328.4875 31.315624 329.4875 30.971874Q329.5031 30.6125 329.5031 30.503124Q329.5031 29.440624 329.0031 28.9875Q328.33124 28.39375 327.0031 28.39375Q325.7531 28.39375 325.15936 28.83125Q324.58124 29.26875 324.3 30.378124L322.58124 30.14375Q322.8156 29.034374 323.34686 28.3625Q323.8781 27.675 324.89374 27.315624Q325.90936 26.940624 327.2531 26.940624Q328.58124 26.940624 329.40936 27.253124Q330.2375 27.565624 330.6281 28.05Q331.01874 28.51875 331.175 29.2375Q331.26874 29.690624 331.26874 30.8625L331.26874 33.20625Q331.26874 35.659374 331.3781 36.315624Q331.4875 36.95625 331.83124 37.55L329.9875 37.55Q329.72186 37.003124 329.64374 36.26875ZM329.4875 32.346874Q328.53436 32.7375 326.6125 33.003124Q325.53436 33.159374 325.08124 33.3625Q324.64374 33.55 324.39374 33.925Q324.14374 34.3 324.14374 34.76875Q324.14374 35.471874 324.675 35.940624Q325.20624 36.409374 326.2375 36.409374Q327.2531 36.409374 328.03436 35.971874Q328.83124 35.51875 329.20624 34.753124Q329.4875 34.14375 329.4875 32.9875L329.4875 32.346874ZM333.8625 37.55L333.8625 27.175L335.4406 27.175L335.4406 28.628124Q335.925 27.878124 336.7375 27.409374Q337.55 26.940624 338.58124 26.940624Q339.7375 26.940624 340.47186 27.425Q341.20624 27.89375 341.51874 28.753124Q342.7531 26.940624 344.72186 26.940624Q346.26874 26.940624 347.09686 27.8Q347.925 28.659374 347.925 30.425L347.925 37.55L346.175 37.55L346.175 31.01875Q346.175 29.95625 346.0031 29.503124Q345.83124 29.034374 345.3781 28.753124Q344.9406 28.471874 344.33124 28.471874Q343.2375 28.471874 342.5031 29.20625Q341.78436 29.925 341.78436 31.51875L341.78436 37.55L340.03436 37.55L340.03436 30.815624Q340.03436 29.64375 339.59686 29.065624Q339.175 28.471874 338.1906 28.471874Q337.45624 28.471874 336.8156 28.8625Q336.1906 29.253124 335.90936 30.003124Q335.6281 30.753124 335.6281 32.175L335.6281 37.55L333.8625 37.55ZM356.28436 37.55L356.28436 28.55L354.7375 28.55L354.7375 27.175L356.28436 27.175L356.28436 26.08125Q356.28436 25.034374 356.47186 24.51875Q356.72186 23.83125 357.3625 23.409374Q358.0031 22.9875 359.15936 22.9875Q359.90936 22.9875 360.8 23.159374L360.53436 24.690624Q359.9875 24.596874 359.5031 24.596874Q358.70624 24.596874 358.3625 24.940624Q358.03436 25.284374 358.03436 26.221874L358.03436 27.175L360.0656 27.175L360.0656 28.55L358.03436 28.55L358.03436 37.55L356.28436 37.55ZM361.84686 37.55L361.84686 27.175L363.425 27.175L363.425 28.753124Q364.03436 27.64375 364.55 27.3Q365.0656 26.940624 365.675 26.940624Q366.5656 26.940624 367.4875 27.503124L366.8781 29.14375Q366.2375 28.753124 365.59686 28.753124Q365.01874 28.753124 364.55 29.1125Q364.09686 29.45625 363.89374 30.065624Q363.6125 31.003124 363.6125 32.1125L363.6125 37.55L361.84686 37.55ZM368.22186 32.3625Q368.22186 29.4875 369.8156 28.096874Q371.15936 26.940624 373.08124 26.940624Q375.22186 26.940624 376.5656 28.346874Q377.925 29.753124 377.925 32.221874Q377.925 34.221874 377.33124 35.378124Q376.7375 36.51875 375.58124 37.159374Q374.4406 37.784374 373.08124 37.784374Q370.89374 37.784374 369.55 36.39375Q368.22186 34.9875 368.22186 32.3625ZM370.01874 32.3625Q370.01874 34.3625 370.8781 35.346874Q371.7531 36.33125 373.08124 36.33125Q374.39374 36.33125 375.2531 35.346874Q376.1281 34.346874 376.1281 32.3Q376.1281 30.378124 375.2531 29.39375Q374.3781 28.39375 373.08124 28.39375Q371.7531 28.39375 370.8781 29.39375Q370.01874 30.378124 370.01874 32.3625ZM379.8625 37.55L379.8625 27.175L381.4406 27.175L381.4406 28.628124Q381.925 27.878124 382.7375 27.409374Q383.55 26.940624 384.58124 26.940624Q385.7375 26.940624 386.47186 27.425Q387.20624 27.89375 387.51874 28.753124Q388.7531 26.940624 390.72186 26.940624Q392.26874 26.940624 393.09686 27.8Q393.925 28.659374 393.925 30.425L393.925 37.55L392.175 37.55L392.175 31.01875Q392.175 29.95625 392.0031 29.503124Q391.83124 29.034374 391.3781 28.753124Q390.9406 28.471874 390.33124 28.471874Q389.2375 28.471874 388.5031 29.20625Q387.78436 29.925 387.78436 31.51875L387.78436 37.55L386.03436 37.55L386.03436 30.815624Q386.03436 29.64375 385.59686 29.065624Q385.175 28.471874 384.1906 28.471874Q383.45624 28.471874 382.8156 28.8625Q382.1906 29.253124 381.90936 30.003124Q381.6281 30.753124 381.6281 32.175L381.6281 37.55L379.8625 37.55ZM408.65936 37.55L408.65936 36.01875Q407.45624 37.784374 405.3781 37.784374Q404.45624 37.784374 403.65936 37.440624Q402.8625 37.08125 402.47186 36.55Q402.09686 36.01875 401.9406 35.2375Q401.83124 34.721874 401.83124 33.596874L401.83124 27.175L403.58124 27.175L403.58124 32.925Q403.58124 34.3 403.6906 34.784374Q403.8625 35.471874 404.39374 35.878124Q404.9406 36.26875 405.72186 36.26875Q406.51874 36.26875 407.20624 35.8625Q407.90936 35.45625 408.1906 34.76875Q408.4875 34.065624 408.4875 32.7375L408.4875 27.175L410.2375 27.175L410.2375 37.55L408.65936 37.55ZM411.15936 34.45625L412.90936 34.175Q413.05 35.221874 413.72186 35.784374Q414.39374 36.33125 415.59686 36.33125Q416.8 36.33125 417.3781 35.846874Q417.97186 35.346874 417.97186 34.690624Q417.97186 34.096874 417.45624 33.753124Q417.09686 33.51875 415.65936 33.159374Q413.72186 32.659374 412.97186 32.315624Q412.2375 31.95625 411.84686 31.33125Q411.45624 30.690624 411.45624 29.925Q411.45624 29.2375 411.76874 28.64375Q412.09686 28.05 412.64374 27.659374Q413.05 27.3625 413.7531 27.159374Q414.47186 26.940624 415.28436 26.940624Q416.5031 26.940624 417.425 27.3Q418.34686 27.64375 418.78436 28.253124Q419.22186 28.846874 419.39374 29.846874L417.675 30.08125Q417.55 29.284374 416.9875 28.846874Q416.425 28.39375 415.40936 28.39375Q414.1906 28.39375 413.675 28.8Q413.15936 29.190624 413.15936 29.721874Q413.15936 30.065624 413.3781 30.346874Q413.58124 30.628124 414.05 30.815624Q414.3156 30.909374 415.59686 31.253124Q417.47186 31.753124 418.20624 32.08125Q418.9406 32.39375 419.3625 33.003124Q419.78436 33.596874 419.78436 34.503124Q419.78436 35.378124 419.26874 36.159374Q418.7531 36.940624 417.78436 37.3625Q416.8156 37.784374 415.59686 37.784374Q413.58124 37.784374 412.51874 36.940624Q411.45624 36.096874 411.15936 34.45625ZM434.64374 36.26875Q433.65936 37.096874 432.7531 37.440624Q431.84686 37.784374 430.8156 37.784374Q429.1125 37.784374 428.1906 36.95625Q427.26874 36.1125 427.26874 34.815624Q427.26874 34.05 427.6125 33.425Q427.97186 32.8 428.53436 32.425Q429.09686 32.034374 429.8 31.83125Q430.3156 31.70625 431.3625 31.565624Q433.4875 31.315624 434.4875 30.971874Q434.5031 30.6125 434.5031 30.503124Q434.5031 29.440624 434.0031 28.9875Q433.33124 28.39375 432.0031 28.39375Q430.7531 28.39375 430.15936 28.83125Q429.58124 29.26875 429.3 30.378124L427.58124 30.14375Q427.8156 29.034374 428.34686 28.3625Q428.8781 27.675 429.89374 27.315624Q430.90936 26.940624 432.2531 26.940624Q433.58124 26.940624 434.40936 27.253124Q435.2375 27.565624 435.6281 28.05Q436.01874 28.51875 436.175 29.2375Q436.26874 29.690624 436.26874 30.8625L436.26874 33.20625Q436.26874 35.659374 436.3781 36.315624Q436.4875 36.95625 436.83124 37.55L434.9875 37.55Q434.72186 37.003124 434.64374 36.26875ZM434.4875 32.346874Q433.53436 32.7375 431.6125 33.003124Q430.53436 33.159374 430.08124 33.3625Q429.64374 33.55 429.39374 33.925Q429.14374 34.3 429.14374 34.76875Q429.14374 35.471874 429.675 35.940624Q430.20624 36.409374 431.2375 36.409374Q432.2531 36.409374 433.03436 35.971874Q433.83124 35.51875 434.20624 34.753124Q434.4875 34.14375 434.4875 32.9875L434.4875 32.346874ZM438.55 38.409374L440.2531 38.659374Q440.3625 39.45625 440.84686 39.815624Q441.5031 40.3 442.64374 40.3Q443.8625 40.3 444.51874 39.815624Q445.1906 39.33125 445.425 38.45625Q445.5656 37.909374 445.55 36.190624Q444.39374 37.55 442.675 37.55Q440.53436 37.55 439.3625 36.003124Q438.1906 34.45625 438.1906 32.3Q438.1906 30.815624 438.72186 29.565624Q439.26874 28.315624 440.28436 27.628124Q441.3156 26.940624 442.6906 26.940624Q444.51874 26.940624 445.72186 28.425L445.72186 27.175L447.33124 27.175L447.33124 36.14375Q447.33124 38.565624 446.83124 39.565624Q446.34686 40.58125 445.26874 41.159374Q444.20624 41.753124 442.64374 41.753124Q440.8 41.753124 439.64374 40.925Q438.5031 40.096874 438.55 38.409374ZM440.0031 32.175Q440.0031 34.221874 440.8156 35.159374Q441.6281 36.096874 442.84686 36.096874Q444.05 36.096874 444.8625 35.159374Q445.6906 34.221874 445.6906 32.2375Q445.6906 30.33125 444.84686 29.3625Q444.0031 28.39375 442.8156 28.39375Q441.64374 28.39375 440.8156 29.346874Q440.0031 30.3 440.0031 32.175ZM456.64374 36.26875Q455.65936 37.096874 454.7531 37.440624Q453.84686 37.784374 452.8156 37.784374Q451.1125 37.784374 450.1906 36.95625Q449.26874 36.1125 449.26874 34.815624Q449.26874 34.05 449.6125 33.425Q449.97186 32.8 450.53436 32.425Q451.09686 32.034374 451.8 31.83125Q452.3156 31.70625 453.3625 31.565624Q455.4875 31.315624 456.4875 30.971874Q456.5031 30.6125 456.5031 30.503124Q456.5031 29.440624 456.0031 28.9875Q455.33124 28.39375 454.0031 28.39375Q452.7531 28.39375 452.15936 28.83125Q451.58124 29.26875 451.3 30.378124L449.58124 30.14375Q449.8156 29.034374 450.34686 28.3625Q450.8781 27.675 451.89374 27.315624Q452.90936 26.940624 454.2531 26.940624Q455.58124 26.940624 456.40936 27.253124Q457.2375 27.565624 457.6281 28.05Q458.01874 28.51875 458.175 29.2375Q458.26874 29.690624 458.26874 30.8625L458.26874 33.20625Q458.26874 35.659374 458.3781 36.315624Q458.4875 36.95625 458.83124 37.55L456.9875 37.55Q456.72186 37.003124 456.64374 36.26875ZM456.4875 32.346874Q455.53436 32.7375 453.6125 33.003124Q452.53436 33.159374 452.08124 33.3625Q451.64374 33.55 451.39374 33.925Q451.14374 34.3 451.14374 34.76875Q451.14374 35.471874 451.675 35.940624Q452.20624 36.409374 453.2375 36.409374Q454.2531 36.409374 455.03436 35.971874Q455.83124 35.51875 456.20624 34.753124Q456.4875 34.14375 456.4875 32.9875L456.4875 32.346874ZM460.8781 25.253124L460.8781 23.2375L462.64374 23.2375L462.64374 25.253124L460.8781 25.253124ZM460.8781 37.55L460.8781 27.175L462.64374 27.175L462.64374 37.55L460.8781 37.55ZM464.8625 37.55L464.8625 27.175L466.45624 27.175L466.45624 28.659374Q467.59686 26.940624 469.7531 26.940624Q470.6906 26.940624 471.47186 27.284374Q472.26874 27.6125 472.65936 28.159374Q473.05 28.70625 473.20624 29.45625Q473.3 29.95625 473.3 31.175L473.3 37.55L471.53436 37.55L471.53436 31.2375Q471.53436 30.159374 471.33124 29.628124Q471.1281 29.096874 470.59686 28.784374Q470.08124 28.471874 469.3781 28.471874Q468.2531 28.471874 467.4406 29.190624Q466.6281 29.89375 466.6281 31.878124L466.6281 37.55L464.8625 37.55ZM481.28436 37.55L481.28436 28.55L479.7375 28.55L479.7375 27.175L481.28436 27.175L481.28436 26.08125Q481.28436 25.034374 481.47186 24.51875Q481.72186 23.83125 482.3625 23.409374Q483.0031 22.9875 484.15936 22.9875Q484.90936 22.9875 485.8 23.159374L485.53436 24.690624Q484.9875 24.596874 484.5031 24.596874Q483.70624 24.596874 483.3625 24.940624Q483.03436 25.284374 483.03436 26.221874L483.03436 27.175L485.0656 27.175L485.0656 28.55L483.03436 28.55L483.03436 37.55L481.28436 37.55ZM486.84686 37.55L486.84686 27.175L488.425 27.175L488.425 28.753124Q489.03436 27.64375 489.55 27.3Q490.0656 26.940624 490.675 26.940624Q491.5656 26.940624 492.4875 27.503124L491.8781 29.14375Q491.2375 28.753124 490.59686 28.753124Q490.01874 28.753124 489.55 29.1125Q489.09686 29.45625 488.89374 30.065624Q488.6125 31.003124 488.6125 32.1125L488.6125 37.55L486.84686 37.55ZM493.22186 32.3625Q493.22186 29.4875 494.8156 28.096874Q496.15936 26.940624 498.08124 26.940624Q500.22186 26.940624 501.5656 28.346874Q502.925 29.753124 502.925 32.221874Q502.925 34.221874 502.33124 35.378124Q501.7375 36.51875 500.58124 37.159374Q499.4406 37.784374 498.08124 37.784374Q495.89374 37.784374 494.55 36.39375Q493.22186 34.9875 493.22186 32.3625ZM495.01874 32.3625Q495.01874 34.3625 495.8781 35.346874Q496.7531 36.33125 498.08124 36.33125Q499.39374 36.33125 500.2531 35.346874Q501.1281 34.346874 501.1281 32.3Q501.1281 30.378124 500.2531 29.39375Q499.3781 28.39375 498.08124 28.39375Q496.7531 28.39375 495.8781 29.39375Q495.01874 30.378124 495.01874 32.3625ZM504.8625 37.55L504.8625 27.175L506.4406 27.175L506.4406 28.628124Q506.925 27.878124 507.7375 27.409374Q508.55 26.940624 509.58124 26.940624Q510.7375 26.940624 511.47186 27.425Q512.20624 27.89375 512.51874 28.753124Q513.7531 26.940624 515.72186 26.940624Q517.26874 26.940624 518.09686 27.8Q518.925 28.659374 518.925 30.425L518.925 37.55L517.175 37.55L517.175 31.01875Q517.175 29.95625 517.0031 29.503124Q516.83124 29.034374 516.3781 28.753124Q515.9406 28.471874 515.33124 28.471874Q514.2375 28.471874 513.5031 29.20625Q512.78436 29.925 512.78436 31.51875L512.78436 37.55L511.03436 37.55L511.03436 30.815624Q511.03436 29.64375 510.59686 29.065624Q510.175 28.471874 509.1906 28.471874Q508.45624 28.471874 507.8156 28.8625Q507.1906 29.253124 506.90936 30.003124Q506.6281 30.753124 506.6281 32.175L506.6281 37.55L504.8625 37.55ZM533.0031 37.55L531.2375 37.55L531.2375 26.346874Q530.6125 26.95625 529.58124 27.565624Q528.55 28.159374 527.72186 28.471874L527.72186 26.76875Q529.20624 26.08125 530.3 25.096874Q531.40936 24.096874 531.8625 23.175L533.0031 23.175L533.0031 37.55ZM537.1906 33.253124L537.1906 31.4875L542.58124 31.4875L542.58124 33.253124L537.1906 33.253124ZM544.3781 33.8L546.22186 33.64375Q546.425 34.9875 547.175 35.675Q547.925 36.346874 548.9875 36.346874Q550.2531 36.346874 551.1281 35.39375Q552.0031 34.440624 552.0031 32.846874Q552.0031 31.346874 551.15936 30.4875Q550.3156 29.6125 548.95624 29.6125Q548.09686 29.6125 547.40936 30.003124Q546.7375 30.378124 546.34686 31.003124L544.6906 30.784374L546.08124 23.425L553.20624 23.425L553.20624 25.1125L547.4875 25.1125L546.72186 28.95625Q548.0031 28.05 549.425 28.05Q551.3 28.05 552.58124 29.3625Q553.8781 30.659374 553.8781 32.690624Q553.8781 34.64375 552.7375 36.05Q551.3625 37.8 548.9875 37.8Q547.03436 37.8 545.78436 36.70625Q544.55 35.6125 544.3781 33.8ZM559.15936 34.01875Q559.14374 33.675 559.14374 33.503124Q559.14374 32.45625 559.4406 31.70625Q559.65936 31.14375 560.14374 30.565624Q560.4875 30.14375 561.39374 29.346874Q562.3156 28.534374 562.58124 28.065624Q562.8625 27.58125 562.8625 27.01875Q562.8625 25.9875 562.05 25.221874Q561.2531 24.440624 560.09686 24.440624Q558.97186 24.440624 558.22186 25.14375Q557.47186 25.846874 557.2375 27.33125L555.425 27.1125Q555.675 25.1125 556.8781 24.05Q558.08124 22.9875 560.0656 22.9875Q562.175 22.9875 563.425 24.128124Q564.675 25.26875 564.675 26.89375Q564.675 27.83125 564.22186 28.628124Q563.78436 29.409374 562.5031 30.55Q561.64374 31.315624 561.3781 31.675Q561.1281 32.034374 560.9875 32.503124Q560.8625 32.971874 560.84686 34.01875L559.15936 34.01875ZM559.05 37.55L559.05 35.55L561.05 35.55L561.05 37.55L559.05 37.55Z" fill-rule="nonzero"/></svg>