<svg version="1.1" viewBox="0.0 0.0 600.0 371.0" fill="none" stroke="none" stroke-linecap="square" stroke-miterlimit="10" width="600" height="371" xmlns:xlink="http://www.w3.org/1999/xlink" xmlns="http://www.w3.org/2000/svg"><path fill="#272729" d="M0 0L600.0 0L600.0 371.0L0 371.0L0 0Z" fill-rule="nonzero"/><path stroke="#f3f3f3" stroke-width="1.0" stroke-linecap="butt" d="M45.5 332.5L581.5 332.5" fill-rule="nonzero"/><path stroke="#5a5a5c" stroke-width="1.0" stroke-linecap="butt" d="M45.5 278.5L581.5 278.5" fill-rule="nonzero"/><path stroke="#5a5a5c" stroke-width="1.0" stroke-linecap="butt" d="M45.5 224.5L581.5 224.5" fill-rule="nonzero"/><path stroke="#5a5a5c" stroke-width="1.0" stroke-linecap="butt" d="M45.5 170.5L581.5 170.5" fill-rule="nonzero"/><path stroke="#5a5a5c" stroke-width="1.0" stroke-linecap="butt" d="M45.5 116.5L581.5 116.5" fill-rule="nonzero"/><path stroke="#5a5a5c" stroke-width="1.0" stroke-linecap="butt" d="M45.5 61.5L581.5 61.5" fill-rule="nonzero"/><clipPath id="id_0"><path d="M45.55 61.916668L581.45 61.916668L581.45 332.45L45.55 332.45L45.55 61.916668Z" clip-rule="nonzero"/></clipPath><path stroke="#000000" stroke-width="2.0" stroke-linecap="butt" stroke-opacity="0.0" clip-path="url(#id_0)" d="M146.0 332.0L81.0 332.0L81.0 332.0L146.0 332.0Z" fill-rule="nonzero"/><path fill="#4285f4" clip-path="url(#id_0)" d="M146.0 332.0L81.0 332.0L81.0 332.0L146.0 332.0Z" fill-rule="nonzero"/><path stroke="#000000" stroke-width="2.0" stroke-linecap="butt" stroke-opacity="0.0" clip-path="url(#id_0)" d="M246.0 332.0L181.0 332.0L181.0 332.0L246.0 332.0Z" fill-rule="nonzero"/><path fill="#4285f4" clip-path="url(#id_0)" d="M246.0 332.0L181.0 332.0L181.0 332.0L246.0 332.0Z" fill-rule="nonzero"/><path stroke="#000000" stroke-width="2.0" stroke-linecap="butt" stroke-opacity="0.0" clip-path="url(#id_0)" d="M347.0 332.0L282.0 332.0L282.0 226.0C282.0 224.89543 282.89542 224.0 284.0 224.0L345.0 224.0C346.10458 224.0 347.0 224.89543 347.0 226.0Z" fill-rule="nonzero"/><path fill="#4285f4" clip-path="url(#id_0)" d="M347.0 332.0L282.0 332.0L282.0 226.0C282.0 224.89543 282.89542 224.0 284.0 224.0L345.0 224.0C346.10458 224.0 347.0 224.89543 347.0 226.0Z" fill-rule="nonzero"/><path stroke="#000000" stroke-width="2.0" stroke-linecap="butt" stroke-opacity="0.0" clip-path="url(#id_0)" d="M447.0 332.0L382.0 332.0L382.0 172.0C382.0 170.89543 382.89542 170.0 384.0 170.0L445.0 170.0C446.10458 170.0 447.0 170.89543 447.0 172.0Z" fill-rule="nonzero"/><path fill="#4285f4" clip-path="url(#id_0)" d="M447.0 332.0L382.0 332.0L382.0 172.0C382.0 170.89543 382.89542 170.0 384.0 170.0L445.0 170.0C446.10458 170.0 447.0 170.89543 447.0 172.0Z" fill-rule="nonzero"/><path stroke="#000000" stroke-width="2.0" stroke-linecap="butt" stroke-opacity="0.0" clip-path="url(#id_0)" d="M547.0 332.0L482.0 332.0L482.0 64.0C482.0 62.89543 482.89542 62.0 484.0 62.0L545.0 62.0C546.10455 62.0 547.0 62.89543 547.0 64.0Z" fill-rule="nonzero"/><path fill="#4285f4" clip-path="url(#id_0)" d="M547.0 332.0L482.0 332.0L482.0 64.0C482.0 62.89543 482.89542 62.0 484.0 62.0L545.0 62.0C546.10455 62.0 547.0 62.89543 547.0 64.0Z" fill-rule="nonzero"/><path fill="#ffffff" d="M33.05 332.21564Q33.05 330.6844 33.3625 329.7625Q33.675 328.825 34.284374 328.325Q34.909374 327.825 35.846874 327.825Q36.534374 327.825 37.05 328.10626Q37.58125 328.3875 37.925 328.91876Q38.26875 329.4344 38.45625 330.1844Q38.64375 330.9344 38.64375 332.21564Q38.64375 333.73126 38.33125 334.65314Q38.034374 335.575 37.409374 336.09064Q36.8 336.59064 35.846874 336.59064Q34.6125 336.59064 33.89375 335.7Q33.05 334.6375 33.05 332.21564ZM34.128124 332.21564Q34.128124 334.325 34.628124 335.02814Q35.128124 335.73126 35.846874 335.73126Q36.58125 335.73126 37.065624 335.02814Q37.565624 334.325 37.565624 332.21564Q37.565624 330.09064 37.065624 329.40314Q36.58125 328.7 35.83125 328.7Q35.1125 328.7 34.675 329.3094Q34.128124 330.09064 34.128124 332.21564Z" fill-rule="nonzero"/><path fill="#ffffff" d="M37.01875 282.34332L35.971874 282.34332L35.971874 275.62457Q35.58125 275.98395 34.95625 276.35895Q34.346874 276.71832 33.8625 276.8902L33.8625 275.87457Q34.7375 275.4527 35.39375 274.87457Q36.065624 274.28082 36.346874 273.71832L37.01875 273.71832L37.01875 282.34332Z" fill-rule="nonzero"/><path fill="#ffffff" d="M38.596874 227.22104L38.596874 228.23666L32.909374 228.23666Q32.909374 227.86166 33.034374 227.50229Q33.253124 226.92416 33.721874 226.36166Q34.20625 225.79916 35.1125 225.06479Q36.51875 223.90854 37.003124 223.23666Q37.503124 222.56479 37.503124 221.97104Q37.503124 221.34604 37.05 220.92416Q36.596874 220.48666 35.878124 220.48666Q35.1125 220.48666 34.659374 220.93979Q34.20625 221.39291 34.190624 222.20541L33.1125 222.09604Q33.221874 220.87729 33.940624 220.25229Q34.675 219.61166 35.909374 219.61166Q37.14375 219.61166 37.8625 220.29916Q38.58125 220.98666 38.58125 222.00229Q38.58125 222.51791 38.3625 223.01791Q38.159374 223.50229 37.659374 224.06479Q37.175 224.61166 36.05 225.56479Q35.096874 226.36166 34.815624 226.65854Q34.55 226.93979 34.378124 227.22104L38.596874 227.22104Z" fill-rule="nonzero"/><path fill="#ffffff" d="M33.05 171.86438L34.1125 171.72375Q34.284374 172.61438 34.721874 173.02063Q35.159374 173.41125 35.784374 173.41125Q36.534374 173.41125 37.05 172.89563Q37.565624 172.38 37.565624 171.61438Q37.565624 170.89563 37.08125 170.42688Q36.6125 169.9425 35.878124 169.9425Q35.58125 169.9425 35.128124 170.0675L35.253124 169.13Q35.3625 169.14563 35.425 169.14563Q36.096874 169.14563 36.628124 168.80188Q37.175 168.4425 37.175 167.70813Q37.175 167.13 36.784374 166.755Q36.39375 166.36438 35.76875 166.36438Q35.159374 166.36438 34.7375 166.755Q34.33125 167.14563 34.221874 167.91125L33.159374 167.72375Q33.346874 166.67688 34.034374 166.09875Q34.721874 165.505 35.7375 165.505Q36.440624 165.505 37.034374 165.8175Q37.628124 166.11438 37.940624 166.63Q38.253124 167.14563 38.253124 167.73938Q38.253124 168.28625 37.95625 168.755Q37.659374 169.20813 37.08125 169.47375Q37.83125 169.64563 38.253124 170.20813Q38.675 170.755 38.675 171.59875Q38.675 172.72375 37.846874 173.505Q37.034374 174.28625 35.784374 174.28625Q34.659374 174.28625 33.909374 173.61438Q33.159374 172.92688 33.05 171.86438Z" fill-rule="nonzero"/><path fill="#ffffff" d="M36.425 120.02333L36.425 117.96083L32.70625 117.96083L32.70625 116.99208L36.628124 111.42958L37.4875 111.42958L37.4875 116.99208L38.64375 116.99208L38.64375 117.96083L37.4875 117.96083L37.4875 120.02333L36.425 120.02333ZM36.425 116.99208L36.425 113.132706L33.7375 116.99208L36.425 116.99208Z" fill-rule="nonzero"/><path fill="#ffffff" d="M33.05 63.666664L34.159374 63.572914Q34.284374 64.385414 34.721874 64.791664Q35.175 65.197914 35.815624 65.197914Q36.565624 65.197914 37.096874 64.61979Q37.628124 64.041664 37.628124 63.104164Q37.628124 62.197914 37.1125 61.68229Q36.6125 61.15104 35.784374 61.15104Q35.284374 61.15104 34.8625 61.385414Q34.45625 61.61979 34.221874 61.979164L33.2375 61.854164L34.065624 57.447914L38.346874 57.447914L38.346874 58.447914L34.909374 58.447914L34.45625 60.760414Q35.221874 60.21354 36.065624 60.21354Q37.190624 60.21354 37.95625 60.99479Q38.7375 61.77604 38.7375 63.010414Q38.7375 64.166664 38.065624 65.02604Q37.2375 66.05729 35.815624 66.05729Q34.64375 66.05729 33.89375 65.40104Q33.159374 64.74479 33.05 63.666664Z" fill-rule="nonzero"/><path fill="#ffffff" d="M114.1323 349.45L113.08543 349.45L113.08543 342.73126Q112.6948 343.09064 112.0698 343.46564Q111.46043 343.825 110.97605 343.9969L110.97605 342.98126Q111.85105 342.5594 112.5073 341.98126Q113.17918 341.3875 113.46043 340.825L114.1323 340.825L114.1323 349.45Z" fill-rule="nonzero"/><path fill="#ffffff" d="M215.87865 348.4344L215.87865 349.45L210.19115 349.45Q210.19115 349.075 210.31615 348.71564Q210.5349 348.1375 211.00365 347.575Q211.48802 347.0125 212.39427 346.27814Q213.80052 345.1219 214.2849 344.45Q214.7849 343.77814 214.7849 343.1844Q214.7849 342.5594 214.33177 342.1375Q213.87865 341.7 213.1599 341.7Q212.39427 341.7 211.94115 342.15314Q211.48802 342.60626 211.4724 343.41876L210.39427 343.3094Q210.50365 342.09064 211.2224 341.46564Q211.95677 340.825 213.19115 340.825Q214.42552 340.825 215.14427 341.5125Q215.86302 342.2 215.86302 343.21564Q215.86302 343.73126 215.64427 344.23126Q215.44115 344.71564 214.94115 345.27814Q214.45677 345.825 213.33177 346.77814Q212.37865 347.575 212.0974 347.8719Q211.83177 348.15314 211.6599 348.4344L215.87865 348.4344Z" fill-rule="nonzero"/><path fill="#ffffff" d="M310.5 347.1844L311.5625 347.04376Q311.73438 347.9344 312.17188 348.34064Q312.60938 348.73126 313.23438 348.73126Q313.98438 348.73126 314.5 348.21564Q315.01562 347.7 315.01562 346.9344Q315.01562 346.21564 314.53125 345.7469Q314.0625 345.2625 313.32812 345.2625Q313.03125 345.2625 312.57812 345.3875L312.70312 344.45Q312.8125 344.46564 312.875 344.46564Q313.54688 344.46564 314.07812 344.1219Q314.625 343.7625 314.625 343.02814Q314.625 342.45 314.23438 342.075Q313.84375 341.6844 313.21875 341.6844Q312.60938 341.6844 312.1875 342.075Q311.78125 342.46564 311.67188 343.23126L310.60938 343.04376Q310.79688 341.9969 311.48438 341.41876Q312.17188 340.825 313.1875 340.825Q313.89062 340.825 314.48438 341.1375Q315.07812 341.4344 315.39062 341.95Q315.70312 342.46564 315.70312 343.0594Q315.70312 343.60626 315.40625 344.075Q315.10938 344.52814 314.53125 344.79376Q315.28125 344.96564 315.70312 345.52814Q316.125 346.075 316.125 346.91876Q316.125 348.04376 315.29688 348.825Q314.48438 349.60626 313.23438 349.60626Q312.10938 349.60626 311.35938 348.9344Q310.60938 348.2469 310.5 347.1844Z" fill-rule="nonzero"/><path fill="#ffffff" d="M414.0432 349.45L414.0432 347.3875L410.32446 347.3875L410.32446 346.41876L414.24634 340.85626L415.1057 340.85626L415.1057 346.41876L416.26196 346.41876L416.26196 347.3875L415.1057 347.3875L415.1057 349.45L414.0432 349.45ZM414.0432 346.41876L414.0432 342.5594L411.3557 346.41876L414.0432 346.41876Z" fill-rule="nonzero"/><path fill="#ffffff" d="M510.83646 347.2L511.94583 347.10626Q512.0708 347.91876 512.5083 348.325Q512.9614 348.73126 513.60205 348.73126Q514.35205 348.73126 514.8833 348.15314Q515.41455 347.575 515.41455 346.6375Q515.41455 345.73126 514.8989 345.21564Q514.3989 344.6844 513.5708 344.6844Q513.0708 344.6844 512.6489 344.91876Q512.2427 345.15314 512.0083 345.5125L511.02396 345.3875L511.85208 340.98126L516.1333 340.98126L516.1333 341.98126L512.6958 341.98126L512.2427 344.29376Q513.0083 343.7469 513.85205 343.7469Q514.97705 343.7469 515.7427 344.52814Q516.5239 345.3094 516.5239 346.54376Q516.5239 347.7 515.85205 348.5594Q515.0239 349.59064 513.60205 349.59064Q512.4302 349.59064 511.6802 348.9344Q510.94583 348.27814 510.83646 347.2Z" fill-rule="nonzero"/><path fill="#ffffff" d="M20.159374 37.55L20.159374 23.2375L22.05 23.2375L22.05 29.1125L29.4875 29.1125L29.4875 23.2375L31.378124 23.2375L31.378124 37.55L29.4875 37.55L29.4875 30.8L22.05 30.8L22.05 37.55L20.159374 37.55ZM32.221874 32.3625Q32.221874 29.4875 33.815624 28.096874Q35.159374 26.940624 37.08125 26.940624Q39.221874 26.940624 40.565624 28.346874Q41.925 29.753124 41.925 32.221874Q41.925 34.221874 41.33125 35.378124Q40.7375 36.51875 39.58125 37.159374Q38.440624 37.784374 37.08125 37.784374Q34.89375 37.784374 33.55 36.39375Q32.221874 34.9875 32.221874 32.3625ZM34.01875 32.3625Q34.01875 34.3625 34.878124 35.346874Q35.753124 36.33125 37.08125 36.33125Q38.39375 36.33125 39.253124 35.346874Q40.128124 34.346874 40.128124 32.3Q40.128124 30.378124 39.253124 29.39375Q38.378124 28.39375 37.08125 28.39375Q35.753124 28.39375 34.878124 29.39375Q34.01875 30.378124 34.01875 32.3625ZM45.784374 37.55L42.6125 27.175L44.425 27.175L46.08125 33.159374L46.690624 35.39375Q46.7375 35.221874 47.221874 33.253124L48.878124 27.175L50.690624 27.175L52.2375 33.190624L52.753124 35.175L53.346874 33.175L55.128124 27.175L56.83125 27.175L53.596874 37.55L51.76875 37.55L50.1125 31.33125L49.721874 29.565624L47.6125 37.55L45.784374 37.55ZM66.78438 37.55L63.6125 27.175L65.425 27.175L67.08125 33.159374L67.69063 35.39375Q67.7375 35.221874 68.22188 33.253124L69.87813 27.175L71.69063 27.175L73.2375 33.190624L73.75313 35.175L74.34688 33.175L76.12813 27.175L77.83125 27.175L74.59688 37.55L72.76875 37.55L71.1125 31.33125L70.72188 29.565624L68.6125 37.55L66.78438 37.55ZM79.22188 32.3625Q79.22188 29.4875 80.81563 28.096874Q82.15938 26.940624 84.08125 26.940624Q86.22188 26.940624 87.56563 28.346874Q88.925 29.753124 88.925 32.221874Q88.925 34.221874 88.33125 35.378124Q87.7375 36.51875 86.58125 37.159374Q85.44063 37.784374 84.08125 37.784374Q81.89375 37.784374 80.55 36.39375Q79.22188 34.9875 79.22188 32.3625ZM81.01875 32.3625Q81.01875 34.3625 81.87813 35.346874Q82.75313 36.33125 84.08125 36.33125Q85.39375 36.33125 86.25313 35.346874Q87.12813 34.346874 87.12813 32.3Q87.12813 30.378124 86.25313 29.39375Q85.37813 28.39375 84.08125 28.39375Q82.75313 28.39375 81.87813 29.39375Q81.01875 30.378124 81.01875 32.3625ZM97.65938 37.55L97.65938 36.01875Q96.45625 37.784374 94.37813 37.784374Q93.45625 37.784374 92.65938 37.440624Q91.8625 37.08125 91.47188 36.55Q91.09688 36.01875 90.94063 35.2375Q90.83125 34.721874 90.83125 33.596874L90.83125 27.175L92.58125 27.175L92.58125 32.925Q92.58125 34.3 92.69063 34.784374Q92.8625 35.471874 93.39375 35.878124Q93.94063 36.26875 94.72188 36.26875Q95.51875 36.26875 96.20625 35.8625Q96.90938 35.45625 97.19063 34.76875Q97.4875 34.065624 97.4875 32.7375L97.4875 27.175L99.2375 27.175L99.2375 37.55L97.65938 37.55ZM100.83125 37.55L100.83125 23.2375L102.58125 23.2375L102.58125 37.55L100.83125 37.55ZM111.59688 37.55L111.59688 36.2375Q110.6125 37.784374 108.69063 37.784374Q107.45625 37.784374 106.40938 37.096874Q105.37813 36.409374 104.8 35.190624Q104.2375 33.971874 104.2375 32.378124Q104.2375 30.815624 104.75313 29.55Q105.26875 28.284374 106.3 27.6125Q107.34688 26.940624 108.6125 26.940624Q109.55 26.940624 110.28438 27.346874Q111.01875 27.7375 111.4875 28.3625L111.4875 23.2375L113.22188 23.2375L113.22188 37.55L111.59688 37.55ZM106.03438 32.378124Q106.03438 34.3625 106.87813 35.346874Q107.72188 36.33125 108.8625 36.33125Q110.01875 36.33125 110.81563 35.39375Q111.62813 34.45625 111.62813 32.51875Q111.62813 30.39375 110.8 29.39375Q109.9875 28.39375 108.78438 28.39375Q107.6125 28.39375 106.81563 29.3625Q106.03438 30.315624 106.03438 32.378124ZM121.78438 41.55L121.59688 39.89375Q122.175 40.05 122.59688 40.05Q123.19063 40.05 123.53438 39.846874Q123.89375 39.659374 124.1125 39.315624Q124.28438 39.05 124.65938 38.003124Q124.70625 37.846874 124.81563 37.565624L120.87813 27.175L122.76875 27.175L124.925 33.190624Q125.34688 34.33125 125.675 35.58125Q125.9875 34.378124 126.39375 33.221874L128.6125 27.175L130.37813 27.175L126.425 37.721874Q125.8 39.440624 125.44063 40.08125Q124.97188 40.95625 124.3625 41.346874Q123.76875 41.753124 122.925 41.753124Q122.40938 41.753124 121.78438 41.55ZM131.22188 32.3625Q131.22188 29.4875 132.81563 28.096874Q134.15938 26.940624 136.08125 26.940624Q138.22188 26.940624 139.56563 28.346874Q140.925 29.753124 140.925 32.221874Q140.925 34.221874 140.33125 35.378124Q139.7375 36.51875 138.58125 37.159374Q137.44063 37.784374 136.08125 37.784374Q133.89375 37.784374 132.55 36.39375Q131.22188 34.9875 131.22188 32.3625ZM133.01875 32.3625Q133.01875 34.3625 133.87813 35.346874Q134.75313 36.33125 136.08125 36.33125Q137.39375 36.33125 138.25313 35.346874Q139.12813 34.346874 139.12813 32.3Q139.12813 30.378124 138.25313 29.39375Q137.37813 28.39375 136.08125 28.39375Q134.75313 28.39375 133.87813 29.39375Q133.01875 30.378124 133.01875 32.3625ZM149.65938 37.55L149.65938 36.01875Q148.45625 37.784374 146.37813 37.784374Q145.45625 37.784374 144.65938 37.440624Q143.8625 37.08125 143.47188 36.55Q143.09688 36.01875 142.94063 35.2375Q142.83125 34.721874 142.83125 33.596874L142.83125 27.175L144.58125 27.175L144.58125 32.925Q144.58125 34.3 144.69063 34.784374Q144.8625 35.471874 145.39375 35.878124Q145.94063 36.26875 146.72188 36.26875Q147.51875 36.26875 148.20625 35.8625Q148.90938 35.45625 149.19063 34.76875Q149.4875 34.065624 149.4875 32.7375L149.4875 27.175L151.2375 27.175L151.2375 37.55L149.65938 37.55ZM158.84688 37.55L158.84688 27.175L160.425 27.175L160.425 28.753124Q161.03438 27.64375 161.55 27.3Q162.06563 26.940624 162.675 26.940624Q163.56563 26.940624 164.4875 27.503124L163.87813 29.14375Q163.2375 28.753124 162.59688 28.753124Q162.01875 28.753124 161.55 29.1125Q161.09688 29.45625 160.89375 30.065624Q160.6125 31.003124 160.6125 32.1125L160.6125 37.55L158.84688 37.55ZM172.64375 36.26875Q171.65938 37.096874 170.75313 37.440624Q169.84688 37.784374 168.81563 37.784374Q167.1125 37.784374 166.19063 36.95625Q165.26875 36.1125 165.26875 34.815624Q165.26875 34.05 165.6125 33.425Q165.97188 32.8 166.53438 32.425Q167.09688 32.034374 167.8 31.83125Q168.31563 31.70625 169.3625 31.565624Q171.4875 31.315624 172.4875 30.971874Q172.50313 30.6125 172.50313 30.503124Q172.50313 29.440624 172.00313 28.9875Q171.33125 28.39375 170.00313 28.39375Q168.75313 28.39375 168.15938 28.83125Q167.58125 29.26875 167.3 30.378124L165.58125 30.14375Q165.81563 29.034374 166.34688 28.3625Q166.87813 27.675 167.89375 27.315624Q168.90938 26.940624 170.25313 26.940624Q171.58125 26.940624 172.40938 27.253124Q173.2375 27.565624 173.62813 28.05Q174.01875 28.51875 174.175 29.2375Q174.26875 29.690624 174.26875 30.8625L174.26875 33.20625Q174.26875 35.659374 174.37813 36.315624Q174.4875 36.95625 174.83125 37.55L172.9875 37.55Q172.72188 37.003124 172.64375 36.26875ZM172.4875 32.346874Q171.53438 32.7375 169.6125 33.003124Q168.53438 33.159374 168.08125 33.3625Q167.64375 33.55 167.39375 33.925Q167.14375 34.3 167.14375 34.76875Q167.14375 35.471874 167.675 35.940624Q168.20625 36.409374 169.2375 36.409374Q170.25313 36.409374 171.03438 35.971874Q171.83125 35.51875 172.20625 34.753124Q172.4875 34.14375 172.4875 32.9875L172.4875 32.346874ZM180.70625 35.971874L180.95625 37.534374Q180.22188 37.690624 179.62813 37.690624Q178.675 37.690624 178.14375 37.39375Q177.62813 37.08125 177.40938 36.596874Q177.19063 36.096874 177.19063 34.51875L177.19063 28.55L175.90938 28.55L175.90938 27.175L177.19063 27.175L177.19063 24.6125L178.94063 23.55L178.94063 27.175L180.70625 27.175L180.70625 28.55L178.94063 28.55L178.94063 34.6125Q178.94063 35.3625 179.03438 35.58125Q179.12813 35.784374 179.33125 35.925Q179.55 36.05 179.94063 36.05Q180.22188 36.05 180.70625 35.971874ZM189.97188 34.20625L191.78438 34.440624Q191.3625 36.01875 190.19063 36.909374Q189.03438 37.784374 187.22188 37.784374Q184.95625 37.784374 183.6125 36.39375Q182.28438 34.9875 182.28438 32.45625Q182.28438 29.83125 183.62813 28.39375Q184.97188 26.940624 187.12813 26.940624Q189.20625 26.940624 190.51875 28.3625Q191.84688 29.76875 191.84688 32.346874Q191.84688 32.503124 191.83125 32.815624L184.09688 32.815624Q184.19063 34.51875 185.06563 35.425Q185.94063 36.33125 187.2375 36.33125Q188.20625 36.33125 188.87813 35.83125Q189.56563 35.315624 189.97188 34.20625ZM184.19063 31.3625L189.9875 31.3625Q189.87813 30.065624 189.33125 29.409374Q188.4875 28.39375 187.14375 28.39375Q185.94063 28.39375 185.1125 29.20625Q184.28438 30.003124 184.19063 31.3625ZM199.78438 41.55L199.59688 39.89375Q200.175 40.05 200.59688 40.05Q201.19063 40.05 201.53438 39.846874Q201.89375 39.659374 202.1125 39.315624Q202.28438 39.05 202.65938 38.003124Q202.70625 37.846874 202.81563 37.565624L198.87813 27.175L200.76875 27.175L202.925 33.190624Q203.34688 34.33125 203.675 35.58125Q203.9875 34.378124 204.39375 33.221874L206.6125 27.175L208.37813 27.175L204.425 37.721874Q203.8 39.440624 203.44063 40.08125Q202.97188 40.95625 202.3625 41.346874Q201.76875 41.753124 200.925 41.753124Q200.40938 41.753124 199.78438 41.55ZM209.22188 32.3625Q209.22188 29.4875 210.81563 28.096874Q212.15938 26.940624 214.08125 26.940624Q216.22188 26.940624 217.56563 28.346874Q218.925 29.753124 218.925 32.221874Q218.925 34.221874 218.33125 35.378124Q217.7375 36.51875 216.58125 37.159374Q215.44063 37.784374 214.08125 37.784374Q211.89375 37.784374 210.55 36.39375Q209.22188 34.9875 209.22188 32.3625ZM211.01875 32.3625Q211.01875 34.3625 211.87813 35.346874Q212.75313 36.33125 214.08125 36.33125Q215.39375 36.33125 216.25313 35.346874Q217.12813 34.346874 217.12813 32.3Q217.12813 30.378124 216.25313 29.39375Q215.37813 28.39375 214.08125 28.39375Q212.75313 28.39375 211.87813 29.39375Q211.01875 30.378124 211.01875 32.3625ZM227.65938 37.55L227.65938 36.01875Q226.45625 37.784374 224.37813 37.784374Q223.45625 37.784374 222.65938 37.440624Q221.8625 37.08125 221.47188 36.55Q221.09688 36.01875 220.94063 35.2375Q220.83125 34.721874 220.83125 33.596874L220.83125 27.175L222.58125 27.175L222.58125 32.925Q222.58125 34.3 222.69063 34.784374Q222.8625 35.471874 223.39375 35.878124Q223.94063 36.26875 224.72188 36.26875Q225.51875 36.26875 226.20625 35.8625Q226.90938 35.45625 227.19063 34.76875Q227.4875 34.065624 227.4875 32.7375L227.4875 27.175L229.2375 27.175L229.2375 37.55L227.65938 37.55ZM230.84688 37.55L230.84688 27.175L232.425 27.175L232.425 28.753124Q233.03438 27.64375 233.55 27.3Q234.06563 26.940624 234.675 26.940624Q235.56563 26.940624 236.4875 27.503124L235.87813 29.14375Q235.2375 28.753124 234.59688 28.753124Q234.01875 28.753124 233.55 29.1125Q233.09688 29.45625 232.89375 30.065624Q232.6125 31.003124 232.6125 32.1125L232.6125 37.55L230.84688 37.55ZM250.97188 34.20625L252.78438 34.440624Q252.3625 36.01875 251.19063 36.909374Q250.03438 37.784374 248.22188 37.784374Q245.95625 37.784374 244.6125 36.39375Q243.28438 34.9875 243.28438 32.45625Q243.28438 29.83125 244.62813 28.39375Q245.97188 26.940624 248.12813 26.940624Q250.20625 26.940624 251.51875 28.3625Q252.84688 29.76875 252.84688 32.346874Q252.84688 32.503124 252.83125 32.815624L245.09688 32.815624Q245.19063 34.51875 246.06563 35.425Q246.94063 36.33125 248.2375 36.33125Q249.20625 36.33125 249.87813 35.83125Q250.56563 35.315624 250.97188 34.20625ZM245.19063 31.3625L250.9875 31.3625Q250.87813 30.065624 250.33125 29.409374Q249.4875 28.39375 248.14375 28.39375Q246.94063 28.39375 246.1125 29.20625Q245.28438 30.003124 245.19063 31.3625ZM253.69063 37.55L257.4875 32.159374L253.9875 27.175L256.175 27.175L257.76874 29.6125Q258.22186 30.3 258.4875 30.76875Q258.925 30.128124 259.28436 29.628124L261.03436 27.175L263.1281 27.175L259.55 32.065624L263.40936 37.55L261.2531 37.55L259.1125 34.33125L258.55 33.45625L255.83125 37.55L253.69063 37.55ZM263.8625 41.51875L263.8625 27.175L265.47186 27.175L265.47186 28.51875Q266.03436 27.7375 266.7375 27.346874Q267.45624 26.940624 268.47186 26.940624Q269.8 26.940624 270.8156 27.628124Q271.83124 28.315624 272.34686 29.565624Q272.8781 30.8 272.8781 32.284374Q272.8781 33.878124 272.3 35.159374Q271.7375 36.425 270.64374 37.1125Q269.55 37.784374 268.34686 37.784374Q267.47186 37.784374 266.76874 37.409374Q266.08124 37.034374 265.6281 36.471874L265.6281 41.51875L263.8625 41.51875ZM265.45624 32.425Q265.45624 34.425 266.26874 35.378124Q267.08124 36.33125 268.2375 36.33125Q269.40936 36.33125 270.2375 35.346874Q271.08124 34.3625 271.08124 32.26875Q271.08124 30.3 270.2531 29.315624Q269.4406 28.315624 268.3156 28.315624Q267.1906 28.315624 266.3156 29.378124Q265.45624 30.425 265.45624 32.425ZM281.97186 34.20625L283.78436 34.440624Q283.3625 36.01875 282.1906 36.909374Q281.03436 37.784374 279.22186 37.784374Q276.95624 37.784374 275.6125 36.39375Q274.28436 34.9875 274.28436 32.45625Q274.28436 29.83125 275.6281 28.39375Q276.97186 26.940624 279.1281 26.940624Q281.20624 26.940624 282.51874 28.3625Q283.84686 29.76875 283.84686 32.346874Q283.84686 32.503124 283.83124 32.815624L276.09686 32.815624Q276.1906 34.51875 277.0656 35.425Q277.9406 36.33125 279.2375 36.33125Q280.20624 36.33125 280.8781 35.83125Q281.5656 35.315624 281.97186 34.20625ZM276.1906 31.3625L281.9875 31.3625Q281.8781 30.065624 281.33124 29.409374Q280.4875 28.39375 279.14374 28.39375Q277.9406 28.39375 277.1125 29.20625Q276.28436 30.003124 276.1906 31.3625ZM285.84686 37.55L285.84686 27.175L287.425 27.175L287.425 28.753124Q288.03436 27.64375 288.55 27.3Q289.0656 26.940624 289.675 26.940624Q290.5656 26.940624 291.4875 27.503124L290.8781 29.14375Q290.2375 28.753124 289.59686 28.753124Q289.01874 28.753124 288.55 29.1125Q288.09686 29.45625 287.89374 30.065624Q287.6125 31.003124 287.6125 32.1125L287.6125 37.55L285.84686 37.55ZM292.8781 25.253124L292.8781 23.2375L294.64374 23.2375L294.64374 25.253124L292.8781 25.253124ZM292.8781 37.55L292.8781 27.175L294.64374 27.175L294.64374 37.55L292.8781 37.55ZM303.97186 34.20625L305.78436 34.440624Q305.3625 36.01875 304.1906 36.909374Q303.03436 37.784374 301.22186 37.784374Q298.95624 37.784374 297.6125 36.39375Q296.28436 34.9875 296.28436 32.45625Q296.28436 29.83125 297.6281 28.39375Q298.97186 26.940624 301.1281 26.940624Q303.20624 26.940624 304.51874 28.3625Q305.84686 29.76875 305.84686 32.346874Q305.84686 32.503124 305.83124 32.815624L298.09686 32.815624Q298.1906 34.51875 299.0656 35.425Q299.9406 36.33125 301.2375 36.33125Q302.20624 36.33125 302.8781 35.83125Q303.5656 35.315624 303.97186 34.20625ZM298.1906 31.3625L303.9875 31.3625Q303.8781 30.065624 303.33124 29.409374Q302.4875 28.39375 301.14374 28.39375Q299.9406 28.39375 299.1125 29.20625Q298.28436 30.003124 298.1906 31.3625ZM307.8625 37.55L307.8625 27.175L309.45624 27.175L309.45624 28.659374Q310.59686 26.940624 312.7531 26.940624Q313.6906 26.940624 314.47186 27.284374Q315.26874 27.6125 315.65936 28.159374Q316.05 28.70625 316.20624 29.45625Q316.3 29.95625 316.3 31.175L316.3 37.55L314.53436 37.55L314.53436 31.2375Q314.53436 30.159374 314.33124 29.628124Q314.1281 29.096874 313.59686 28.784374Q313.08124 28.471874 312.3781 28.471874Q311.2531 28.471874 310.4406 29.190624Q309.6281 29.89375 309.6281 31.878124L309.6281 37.55L307.8625 37.55ZM324.64374 33.753124L326.3625 33.971874Q326.08124 35.76875 324.90936 36.784374Q323.7531 37.784374 322.05 37.784374Q319.925 37.784374 318.6281 36.39375Q317.33124 35.003124 317.33124 32.409374Q317.33124 30.721874 317.8781 29.471874Q318.4406 28.20625 319.58124 27.58125Q320.72186 26.940624 322.0656 26.940624Q323.7531 26.940624 324.8156 27.8Q325.89374 28.659374 326.20624 30.221874L324.4875 30.4875Q324.2531 29.440624 323.6281 28.925Q323.0031 28.39375 322.1281 28.39375Q320.8 28.39375 319.97186 29.346874Q319.14374 30.3 319.14374 32.346874Q319.14374 34.440624 319.9406 35.39375Q320.7375 36.33125 322.03436 36.33125Q323.0656 36.33125 323.7531 35.70625Q324.45624 35.065624 324.64374 33.753124ZM334.97186 34.20625L336.78436 34.440624Q336.3625 36.01875 335.1906 36.909374Q334.03436 37.784374 332.22186 37.784374Q329.95624 37.784374 328.6125 36.39375Q327.28436 34.9875 327.28436 32.45625Q327.28436 29.83125 328.6281 28.39375Q329.97186 26.940624 332.1281 26.940624Q334.20624 26.940624 335.51874 28.3625Q336.84686 29.76875 336.84686 32.346874Q336.84686 32.503124 336.83124 32.815624L329.09686 32.815624Q329.1906 34.51875 330.0656 35.425Q330.9406 36.33125 332.2375 36.33125Q333.20624 36.33125 333.8781 35.83125Q334.5656 35.315624 334.97186 34.20625ZM329.1906 31.3625L334.9875 31.3625Q334.8781 30.065624 334.33124 29.409374Q333.4875 28.39375 332.14374 28.39375Q330.9406 28.39375 330.1125 29.20625Q329.28436 30.003124 329.1906 31.3625ZM345.28436 37.55L345.28436 28.55L343.7375 28.55L343.7375 27.175L345.28436 27.175L345.28436 26.08125Q345.28436 25.034374 345.47186 24.51875Q345.72186 23.83125 346.3625 23.409374Q347.0031 22.9875 348.15936 22.9875Q348.90936 22.9875 349.8 23.159374L349.53436 24.690624Q348.9875 24.596874 348.5031 24.596874Q347.70624 24.596874 347.3625 24.940624Q347.03436 25.284374 347.03436 26.221874L347.03436 27.175L349.0656 27.175L349.0656 28.55L347.03436 28.55L347.03436 37.55L345.28436 37.55ZM350.84686 37.55L350.84686 27.175L352.425 27.175L352.425 28.753124Q353.03436 27.64375 353.55 27.3Q354.0656 26.940624 354.675 26.940624Q355.5656 26.940624 356.4875 27.503124L355.8781 29.14375Q355.2375 28.753124 354.59686 28.753124Q354.01874 28.753124 353.55 29.1125Q353.09686 29.45625 352.89374 30.065624Q352.6125 31.003124 352.6125 32.1125L352.6125 37.55L350.84686 37.55ZM357.22186 32.3625Q357.22186 29.4875 358.8156 28.096874Q360.15936 26.940624 362.08124 26.940624Q364.22186 26.940624 365.5656 28.346874Q366.925 29.753124 366.925 32.221874Q366.925 34.221874 366.33124 35.378124Q365.7375 36.51875 364.58124 37.159374Q363.4406 37.784374 362.08124 37.784374Q359.89374 37.784374 358.55 36.39375Q357.22186 34.9875 357.22186 32.3625ZM359.01874 32.3625Q359.01874 34.3625 359.8781 35.346874Q360.7531 36.33125 362.08124 36.33125Q363.39374 36.33125 364.2531 35.346874Q365.1281 34.346874 365.1281 32.3Q365.1281 30.378124 364.2531 29.39375Q363.3781 28.39375 362.08124 28.39375Q360.7531 28.39375 359.8781 29.39375Q359.01874 30.378124 359.01874 32.3625ZM368.8625 37.55L368.8625 27.175L370.4406 27.175L370.4406 28.628124Q370.925 27.878124 371.7375 27.409374Q372.55 26.940624 373.58124 26.940624Q374.7375 26.940624 375.47186 27.425Q376.20624 27.89375 376.51874 28.753124Q377.7531 26.940624 379.72186 26.940624Q381.26874 26.940624 382.09686 27.8Q382.925 28.659374 382.925 30.425L382.925 37.55L381.175 37.55L381.175 31.01875Q381.175 29.95625 381.0031 29.503124Q380.83124 29.034374 380.3781 28.753124Q379.9406 28.471874 379.33124 28.471874Q378.2375 28.471874 377.5031 29.20625Q376.78436 29.925 376.78436 31.51875L376.78436 37.55L375.03436 37.55L375.03436 30.815624Q375.03436 29.64375 374.59686 29.065624Q374.175 28.471874 373.1906 28.471874Q372.45624 28.471874 371.8156 28.8625Q371.1906 29.253124 370.90936 30.003124Q370.6281 30.753124 370.6281 32.175L370.6281 37.55L368.8625 37.55ZM397.0031 37.55L395.2375 37.55L395.2375 26.346874Q394.6125 26.95625 393.58124 27.565624Q392.55 28.159374 391.72186 28.471874L391.72186 26.76875Q393.20624 26.08125 394.3 25.096874Q395.40936 24.096874 395.8625 23.175L397.0031 23.175L397.0031 37.55ZM401.1906 33.253124L401.1906 31.4875L406.58124 31.4875L406.58124 33.253124L401.1906 33.253124ZM408.3781 33.8L410.22186 33.64375Q410.425 34.9875 411.175 35.675Q411.925 36.346874 412.9875 36.346874Q414.2531 36.346874 415.1281 35.39375Q416.0031 34.440624 416.0031 32.846874Q416.0031 31.346874 415.15936 30.4875Q414.3156 29.6125 412.95624 29.6125Q412.09686 29.6125 411.40936 30.003124Q410.7375 30.378124 410.34686 31.003124L408.6906 30.784374L410.08124 23.425L417.20624 23.425L417.20624 25.1125L411.4875 25.1125L410.72186 28.95625Q412.0031 28.05 413.425 28.05Q415.3 28.05 416.58124 29.3625Q417.8781 30.659374 417.8781 32.690624Q417.8781 34.64375 416.7375 36.05Q415.3625 37.8 412.9875 37.8Q411.03436 37.8 409.78436 36.70625Q408.55 35.6125 408.3781 33.8ZM423.15936 34.01875Q423.14374 33.675 423.14374 33.503124Q423.14374 32.45625 423.4406 31.70625Q423.65936 31.14375 424.14374 30.565624Q424.4875 30.14375 425.39374 29.346874Q426.3156 28.534374 426.58124 28.065624Q426.8625 27.58125 426.8625 27.01875Q426.8625 25.9875 426.05 25.221874Q425.2531 24.440624 424.09686 24.440624Q422.97186 24.440624 422.22186 25.14375Q421.47186 25.846874 421.2375 27.33125L419.425 27.1125Q419.675 25.1125 420.8781 24.05Q422.08124 22.9875 424.0656 22.9875Q426.175 22.9875 427.425 24.128124Q428.675 25.26875 428.675 26.89375Q428.675 27.83125 428.22186 28.628124Q427.78436 29.409374 426.5031 30.55Q425.64374 31.315624 425.3781 31.675Q425.1281 32.034374 424.9875 32.503124Q424.8625 32.971874 424.84686 34.01875L423.15936 34.01875ZM423.05 37.55L423.05 35.55L425.05 35.55L425.05 37.55L423.05 37.55Z" fill-rule="nonzero"/></svg>