<svg version="1.1" viewBox="0.0 0.0 600.0 371.0" fill="none" stroke="none" stroke-linecap="square" stroke-miterlimit="10" width="600" height="371" xmlns:xlink="http://www.w3.org/1999/xlink" xmlns="http://www.w3.org/2000/svg"><path fill="#272729" d="M0 0L600.0 0L600.0 371.0L0 371.0L0 0Z" fill-rule="nonzero"/><path fill="#4285f4" d="M300.0 54.916668C374.8806 54.916668 435.58334 115.61939 435.58334 190.5C435.58334 265.3806 374.8806 326.08334 300.0 326.08334C225.1194 326.08334 164.41667 265.3806 164.41667 190.5C164.41667 115.61939 225.1194 54.916668 300.0 54.916668L300.0 190.5Z" fill-rule="nonzero"/><path fill="#ffffff" d="M282.51562 195.5L280.59375 195.5L280.59375 188.26562Q279.53125 189.25 278.10938 189.71875L278.10938 187.96875Q278.85938 187.73438 279.73438 187.04688Q280.625 186.35938 280.95312 185.4375L282.51562 185.4375L282.51562 195.5ZM288.84375 185.4375Q290.29688 185.4375 291.125 186.46875Q292.09375 187.70312 292.09375 190.5625Q292.09375 193.40625 291.10938 194.64062Q290.29688 195.67188 288.84375 195.67188Q287.375 195.67188 286.48438 194.54688Q285.59375 193.42188 285.59375 190.53125Q285.59375 187.70312 286.57812 186.46875Q287.39062 185.4375 288.84375 185.4375ZM288.84375 187.03125Q288.5 187.03125 288.21875 187.25Q287.95312 187.46875 287.79688 188.04688Q287.59375 188.79688 287.59375 190.5625Q287.59375 192.32812 287.76562 192.98438Q287.95312 193.64062 288.21875 193.85938Q288.5 194.07812 288.84375 194.07812Q289.1875 194.07812 289.45312 193.85938Q289.73438 193.64062 289.89062 193.0625Q290.09375 192.32812 290.09375 190.5625Q290.09375 188.79688 289.90625 188.14062Q289.73438 187.46875 289.45312 187.25Q289.1875 187.03125 288.84375 187.03125ZM296.84375 185.4375Q298.29688 185.4375 299.125 186.46875Q300.09375 187.70312 300.09375 190.5625Q300.09375 193.40625 299.10938 194.64062Q298.29688 195.67188 296.84375 195.67188Q295.375 195.67188 294.48438 194.54688Q293.59375 193.42188 293.59375 190.53125Q293.59375 187.70312 294.57812 186.46875Q295.39062 185.4375 296.84375 185.4375ZM296.84375 187.03125Q296.5 187.03125 296.21875 187.25Q295.95312 187.46875 295.79688 188.04688Q295.59375 188.79688 295.59375 190.5625Q295.59375 192.32812 295.76562 192.98438Q295.95312 193.64062 296.21875 193.85938Q296.5 194.07812 296.84375 194.07812Q297.1875 194.07812 297.45312 193.85938Q297.73438 193.64062 297.89062 193.0625Q298.09375 192.32812 298.09375 190.5625Q298.09375 188.79688 297.90625 188.14062Q297.73438 187.46875 297.45312 187.25Q297.1875 187.03125 296.84375 187.03125ZM302.0 195.5L302.0 193.57812L303.92188 193.57812L303.92188 195.5L302.0 195.5ZM308.84375 185.4375Q310.29688 185.4375 311.125 186.46875Q312.09375 187.70312 312.09375 190.5625Q312.09375 193.40625 311.10938 194.64062Q310.29688 195.67188 308.84375 195.67188Q307.375 195.67188 306.48438 194.54688Q305.59375 193.42188 305.59375 190.53125Q305.59375 187.70312 306.57812 186.46875Q307.39062 185.4375 308.84375 185.4375ZM308.84375 187.03125Q308.5 187.03125 308.21875 187.25Q307.95312 187.46875 307.79688 188.04688Q307.59375 188.79688 307.59375 190.5625Q307.59375 192.32812 307.76562 192.98438Q307.95312 193.64062 308.21875 193.85938Q308.5 194.07812 308.84375 194.07812Q309.1875 194.07812 309.45312 193.85938Q309.73438 193.64062 309.89062 193.0625Q310.09375 192.32812 310.09375 190.5625Q310.09375 188.79688 309.90625 188.14062Q309.73438 187.46875 309.45312 187.25Q309.1875 187.03125 308.84375 187.03125ZM313.60938 187.95312Q313.60938 186.60938 314.20312 185.96875Q314.79688 185.3125 315.79688 185.3125Q316.84375 185.3125 317.4375 185.95312Q318.03125 186.59375 318.03125 187.95312Q318.03125 189.29688 317.4375 189.95312Q316.84375 190.59375 315.84375 190.59375Q314.79688 190.59375 314.20312 189.95312Q313.60938 189.3125 313.60938 187.95312ZM315.10938 187.9375Q315.10938 188.92188 315.32812 189.25Q315.5 189.5 315.79688 189.5Q316.10938 189.5 316.28125 189.25Q316.5 188.92188 316.5 187.9375Q316.5 186.96875 316.28125 186.64062Q316.10938 186.375 315.79688 186.375Q315.5 186.375 315.32812 186.625Q315.10938 186.96875 315.10938 187.9375ZM317.26562 195.89062L315.84375 195.89062L321.1875 185.3125L322.5625 185.3125L317.26562 195.89062ZM320.375 193.25Q320.375 191.90625 320.95312 191.26562Q321.54688 190.60938 322.57812 190.60938Q323.60938 190.60938 324.20312 191.26562Q324.79688 191.90625 324.79688 193.25Q324.79688 194.60938 324.20312 195.26562Q323.60938 195.90625 322.59375 195.90625Q321.54688 195.90625 320.95312 195.26562Q320.375 194.60938 320.375 193.25ZM321.85938 193.25Q321.85938 194.21875 322.09375 194.54688Q322.26562 194.79688 322.5625 194.79688Q322.875 194.79688 323.03125 194.5625Q323.26562 194.21875 323.26562 193.25Q323.26562 192.26562 323.04688 191.9375Q322.875 191.6875 322.5625 191.6875Q322.25 191.6875 322.09375 191.9375Q321.85938 192.26562 321.85938 193.25Z" fill-rule="nonzero"/><path fill="#4285f4" d="M291.5 345.45C291.5 348.7637 288.81372 351.45 285.5 351.45C282.18628 351.45 279.5 348.7637 279.5 345.45C279.5 342.1363 282.18628 339.45 285.5 339.45C288.81372 339.45 291.5 342.1363 291.5 345.45Z" fill-rule="nonzero"/><path fill="#ffffff" d="M302.625 349.45L302.625 345.84064L299.48438 340.85626L301.51562 340.85626L303.53125 344.2625L305.51562 340.85626L307.51562 340.85626L304.35938 345.84064L304.35938 349.45L302.625 349.45ZM310.96875 347.46564L312.60938 347.7469Q312.29688 348.65314 311.60938 349.1219Q310.92188 349.59064 309.90625 349.59064Q308.28125 349.59064 307.5 348.52814Q306.875 347.6844 306.875 346.3875Q306.875 344.84064 307.6875 343.96564Q308.5 343.09064 309.73438 343.09064Q311.125 343.09064 311.92188 344.0125Q312.73438 344.91876 312.6875 346.8094L308.5625 346.8094Q308.59375 347.54376 308.96875 347.95Q309.34375 348.35626 309.92188 348.35626Q310.29688 348.35626 310.5625 348.15314Q310.82812 347.9344 310.96875 347.46564ZM311.0625 345.8094Q311.04688 345.09064 310.6875 344.71564Q310.34375 344.34064 309.82812 344.34064Q309.29688 344.34064 308.9375 344.73126Q308.59375 345.1375 308.59375 345.8094L311.0625 345.8094ZM313.78125 347.66876L315.4375 347.41876Q315.54688 347.90314 315.85938 348.15314Q316.1875 348.40314 316.76562 348.40314Q317.40625 348.40314 317.71875 348.16876Q317.9375 347.9969 317.9375 347.73126Q317.9375 347.54376 317.82812 347.41876Q317.70312 347.29376 317.28125 347.2Q315.28125 346.7625 314.75 346.40314Q314.01562 345.8875 314.01562 344.9969Q314.01562 344.1844 314.64062 343.6375Q315.28125 343.09064 316.625 343.09064Q317.90625 343.09064 318.53125 343.5125Q319.15625 343.91876 319.39062 344.73126L317.82812 345.0125Q317.73438 344.65314 317.45312 344.46564Q317.17188 344.2625 316.65625 344.2625Q316.01562 344.2625 315.73438 344.45Q315.54688 344.575 315.54688 344.77814Q315.54688 344.96564 315.70312 345.09064Q315.92188 345.2469 317.23438 345.54376Q318.5625 345.84064 319.07812 346.27814Q319.59375 346.71564 319.59375 347.4969Q319.59375 348.35626 318.875 348.98126Q318.17188 349.59064 316.76562 349.59064Q315.5 349.59064 314.75 349.075Q314.01562 348.5594 313.78125 347.66876Z" fill-rule="nonzero"/><path fill="#ffffff" d="M20.096874 37.55L20.096874 23.2375L25.01875 23.2375Q26.690624 23.2375 27.58125 23.440624Q28.8 23.721874 29.675 24.45625Q30.8 25.425 31.3625 26.909374Q31.925 28.39375 31.925 30.315624Q31.925 31.940624 31.55 33.20625Q31.175 34.45625 30.565624 35.284374Q29.971874 36.1125 29.26875 36.596874Q28.565624 37.065624 27.565624 37.315624Q26.565624 37.55 25.253124 37.55L20.096874 37.55ZM21.9875 35.8625L25.05 35.8625Q26.45625 35.8625 27.253124 35.596874Q28.065624 35.33125 28.55 34.846874Q29.221874 34.175 29.596874 33.05Q29.971874 31.909374 29.971874 30.284374Q29.971874 28.034374 29.2375 26.83125Q28.503124 25.628124 27.440624 25.221874Q26.690624 24.925 25.003124 24.925L21.9875 24.925L21.9875 35.8625ZM33.878124 25.253124L33.878124 23.2375L35.64375 23.2375L35.64375 25.253124L33.878124 25.253124ZM33.878124 37.55L33.878124 27.175L35.64375 27.175L35.64375 37.55L33.878124 37.55ZM44.596874 37.55L44.596874 36.2375Q43.6125 37.784374 41.690624 37.784374Q40.45625 37.784374 39.409374 37.096874Q38.378124 36.409374 37.8 35.190624Q37.2375 33.971874 37.2375 32.378124Q37.2375 30.815624 37.753124 29.55Q38.26875 28.284374 39.3 27.6125Q40.346874 26.940624 41.6125 26.940624Q42.55 26.940624 43.284374 27.346874Q44.01875 27.7375 44.4875 28.3625L44.4875 23.2375L46.221874 23.2375L46.221874 37.55L44.596874 37.55ZM39.034374 32.378124Q39.034374 34.3625 39.878124 35.346874Q40.721874 36.33125 41.8625 36.33125Q43.01875 36.33125 43.815624 35.39375Q44.628124 34.45625 44.628124 32.51875Q44.628124 30.39375 43.8 29.39375Q42.9875 28.39375 41.784374 28.39375Q40.6125 28.39375 39.815624 29.3625Q39.034374 30.315624 39.034374 32.378124ZM54.784374 41.55L54.596874 39.89375Q55.175 40.05 55.596874 40.05Q56.190624 40.05 56.534374 39.846874Q56.89375 39.659374 57.1125 39.315624Q57.284374 39.05 57.659374 38.003124Q57.70625 37.846874 57.815624 37.565624L53.878124 27.175L55.76875 27.175L57.925 33.190624Q58.346874 34.33125 58.675 35.58125Q58.9875 34.378124 59.39375 33.221874L61.6125 27.175L63.378124 27.175L59.425 37.721874Q58.8 39.440624 58.440624 40.08125Q57.971874 40.95625 57.3625 41.346874Q56.76875 41.753124 55.925 41.753124Q55.409374 41.753124 54.784374 41.55ZM64.22188 32.3625Q64.22188 29.4875 65.81563 28.096874Q67.15938 26.940624 69.08125 26.940624Q71.22188 26.940624 72.56563 28.346874Q73.925 29.753124 73.925 32.221874Q73.925 34.221874 73.33125 35.378124Q72.7375 36.51875 71.58125 37.159374Q70.44063 37.784374 69.08125 37.784374Q66.89375 37.784374 65.55 36.39375Q64.22188 34.9875 64.22188 32.3625ZM66.01875 32.3625Q66.01875 34.3625 66.87813 35.346874Q67.75313 36.33125 69.08125 36.33125Q70.39375 36.33125 71.25313 35.346874Q72.12813 34.346874 72.12813 32.3Q72.12813 30.378124 71.25313 29.39375Q70.37813 28.39375 69.08125 28.39375Q67.75313 28.39375 66.87813 29.39375Q66.01875 30.378124 66.01875 32.3625ZM82.65938 37.55L82.65938 36.01875Q81.45625 37.784374 79.37813 37.784374Q78.45625 37.784374 77.65938 37.440624Q76.8625 37.08125 76.47188 36.55Q76.09688 36.01875 75.94063 35.2375Q75.83125 34.721874 75.83125 33.596874L75.83125 27.175L77.58125 27.175L77.58125 32.925Q77.58125 34.3 77.69063 34.784374Q77.8625 35.471874 78.39375 35.878124Q78.94063 36.26875 79.72188 36.26875Q80.51875 36.26875 81.20625 35.8625Q81.90938 35.45625 82.19063 34.76875Q82.4875 34.065624 82.4875 32.7375L82.4875 27.175L84.2375 27.175L84.2375 37.55L82.65938 37.55ZM98.97188 34.20625L100.78438 34.440624Q100.3625 36.01875 99.19063 36.909374Q98.03438 37.784374 96.22188 37.784374Q93.95625 37.784374 92.6125 36.39375Q91.28438 34.9875 91.28438 32.45625Q91.28438 29.83125 92.62813 28.39375Q93.97188 26.940624 96.12813 26.940624Q98.20625 26.940624 99.51875 28.3625Q100.84688 29.76875 100.84688 32.346874Q100.84688 32.503124 100.83125 32.815624L93.09688 32.815624Q93.19063 34.51875 94.06563 35.425Q94.94063 36.33125 96.2375 36.33125Q97.20625 36.33125 97.87813 35.83125Q98.56563 35.315624 98.97188 34.20625ZM93.19063 31.3625L98.9875 31.3625Q98.87813 30.065624 98.33125 29.409374Q97.4875 28.39375 96.14375 28.39375Q94.94063 28.39375 94.1125 29.20625Q93.28438 30.003124 93.19063 31.3625ZM102.8625 37.55L102.8625 27.175L104.45625 27.175L104.45625 28.659374Q105.59688 26.940624 107.75313 26.940624Q108.69063 26.940624 109.47188 27.284374Q110.26875 27.6125 110.65938 28.159374Q111.05 28.70625 111.20625 29.45625Q111.3 29.95625 111.3 31.175L111.3 37.55L109.53438 37.55L109.53438 31.2375Q109.53438 30.159374 109.33125 29.628124Q109.12813 29.096874 108.59688 28.784374Q108.08125 28.471874 107.37813 28.471874Q106.25313 28.471874 105.44063 29.190624Q104.62813 29.89375 104.62813 31.878124L104.62813 37.55L102.8625 37.55ZM112.8625 25.26875L112.8625 23.2375L114.6125 23.2375L114.6125 25.26875L112.8625 25.26875ZM110.62813 41.58125L110.95625 40.08125Q111.4875 40.221874 111.8 40.221874Q112.33125 40.221874 112.59688 39.8625Q112.8625 39.503124 112.8625 38.08125L112.8625 27.175L114.6125 27.175L114.6125 38.1125Q114.6125 40.034374 114.1125 40.784374Q113.4875 41.753124 112.00313 41.753124Q111.3 41.753124 110.62813 41.58125ZM116.22188 32.3625Q116.22188 29.4875 117.81563 28.096874Q119.15938 26.940624 121.08125 26.940624Q123.22188 26.940624 124.56563 28.346874Q125.925 29.753124 125.925 32.221874Q125.925 34.221874 125.33125 35.378124Q124.7375 36.51875 123.58125 37.159374Q122.44063 37.784374 121.08125 37.784374Q118.89375 37.784374 117.55 36.39375Q116.22188 34.9875 116.22188 32.3625ZM118.01875 32.3625Q118.01875 34.3625 118.87813 35.346874Q119.75313 36.33125 121.08125 36.33125Q122.39375 36.33125 123.25313 35.346874Q124.12813 34.346874 124.12813 32.3Q124.12813 30.378124 123.25313 29.39375Q122.37813 28.39375 121.08125 28.39375Q119.75313 28.39375 118.87813 29.39375Q118.01875 30.378124 118.01875 32.3625ZM127.78438 41.55L127.59688 39.89375Q128.175 40.05 128.59688 40.05Q129.19063 40.05 129.53438 39.846874Q129.89375 39.659374 130.1125 39.315624Q130.28438 39.05 130.65938 38.003124Q130.70625 37.846874 130.81563 37.565624L126.87813 27.175L128.76875 27.175L130.925 33.190624Q131.34688 34.33125 131.675 35.58125Q131.9875 34.378124 132.39375 33.221874L134.6125 27.175L136.37813 27.175L132.425 37.721874Q131.8 39.440624 131.44063 40.08125Q130.97188 40.95625 130.3625 41.346874Q129.76875 41.753124 128.925 41.753124Q128.40938 41.753124 127.78438 41.55ZM143.22188 32.3625Q143.22188 29.4875 144.81563 28.096874Q146.15938 26.940624 148.08125 26.940624Q150.22188 26.940624 151.56563 28.346874Q152.925 29.753124 152.925 32.221874Q152.925 34.221874 152.33125 35.378124Q151.7375 36.51875 150.58125 37.159374Q149.44063 37.784374 148.08125 37.784374Q145.89375 37.784374 144.55 36.39375Q143.22188 34.9875 143.22188 32.3625ZM145.01875 32.3625Q145.01875 34.3625 145.87813 35.346874Q146.75313 36.33125 148.08125 36.33125Q149.39375 36.33125 150.25313 35.346874Q151.12813 34.346874 151.12813 32.3Q151.12813 30.378124 150.25313 29.39375Q149.37813 28.39375 148.08125 28.39375Q146.75313 28.39375 145.87813 29.39375Q145.01875 30.378124 145.01875 32.3625ZM161.65938 37.55L161.65938 36.01875Q160.45625 37.784374 158.37813 37.784374Q157.45625 37.784374 156.65938 37.440624Q155.8625 37.08125 155.47188 36.55Q155.09688 36.01875 154.94063 35.2375Q154.83125 34.721874 154.83125 33.596874L154.83125 27.175L156.58125 27.175L156.58125 32.925Q156.58125 34.3 156.69063 34.784374Q156.8625 35.471874 157.39375 35.878124Q157.94063 36.26875 158.72188 36.26875Q159.51875 36.26875 160.20625 35.8625Q160.90938 35.45625 161.19063 34.76875Q161.4875 34.065624 161.4875 32.7375L161.4875 27.175L163.2375 27.175L163.2375 37.55L161.65938 37.55ZM164.84688 37.55L164.84688 27.175L166.425 27.175L166.425 28.753124Q167.03438 27.64375 167.55 27.3Q168.06563 26.940624 168.675 26.940624Q169.56563 26.940624 170.4875 27.503124L169.87813 29.14375Q169.2375 28.753124 168.59688 28.753124Q168.01875 28.753124 167.55 29.1125Q167.09688 29.45625 166.89375 30.065624Q166.6125 31.003124 166.6125 32.1125L166.6125 37.55L164.84688 37.55ZM177.83125 37.55L177.83125 23.2375L179.58125 23.2375L179.58125 37.55L177.83125 37.55ZM181.87813 25.253124L181.87813 23.2375L183.64375 23.2375L183.64375 25.253124L181.87813 25.253124ZM181.87813 37.55L181.87813 27.175L183.64375 27.175L183.64375 37.55L181.87813 37.55ZM188.75313 37.55L184.8 27.175L186.65938 27.175L188.89375 33.39375Q189.25313 34.39375 189.55 35.471874Q189.78438 34.659374 190.20625 33.503124L192.50313 27.175L194.31563 27.175L190.39375 37.55L188.75313 37.55ZM201.97188 34.20625L203.78438 34.440624Q203.3625 36.01875 202.19063 36.909374Q201.03438 37.784374 199.22188 37.784374Q196.95625 37.784374 195.6125 36.39375Q194.28438 34.9875 194.28438 32.45625Q194.28438 29.83125 195.62813 28.39375Q196.97188 26.940624 199.12813 26.940624Q201.20625 26.940624 202.51875 28.3625Q203.84688 29.76875 203.84688 32.346874Q203.84688 32.503124 203.83125 32.815624L196.09688 32.815624Q196.19063 34.51875 197.06563 35.425Q197.94063 36.33125 199.2375 36.33125Q200.20625 36.33125 200.87813 35.83125Q201.56563 35.315624 201.97188 34.20625ZM196.19063 31.3625L201.9875 31.3625Q201.87813 30.065624 201.33125 29.409374Q200.4875 28.39375 199.14375 28.39375Q197.94063 28.39375 197.1125 29.20625Q196.28438 30.003124 196.19063 31.3625ZM211.15938 34.45625L212.90938 34.175Q213.05 35.221874 213.72188 35.784374Q214.39375 36.33125 215.59688 36.33125Q216.8 36.33125 217.37813 35.846874Q217.97188 35.346874 217.97188 34.690624Q217.97188 34.096874 217.45625 33.753124Q217.09688 33.51875 215.65938 33.159374Q213.72188 32.659374 212.97188 32.315624Q212.2375 31.95625 211.84688 31.33125Q211.45625 30.690624 211.45625 29.925Q211.45625 29.2375 211.76875 28.64375Q212.09688 28.05 212.64375 27.659374Q213.05 27.3625 213.75313 27.159374Q214.47188 26.940624 215.28438 26.940624Q216.50313 26.940624 217.425 27.3Q218.34688 27.64375 218.78438 28.253124Q219.22188 28.846874 219.39375 29.846874L217.675 30.08125Q217.55 29.284374 216.9875 28.846874Q216.425 28.39375 215.40938 28.39375Q214.19063 28.39375 213.675 28.8Q213.15938 29.190624 213.15938 29.721874Q213.15938 30.065624 213.37813 30.346874Q213.58125 30.628124 214.05 30.815624Q214.31563 30.909374 215.59688 31.253124Q217.47188 31.753124 218.20625 32.08125Q218.94063 32.39375 219.3625 33.003124Q219.78438 33.596874 219.78438 34.503124Q219.78438 35.378124 219.26875 36.159374Q218.75313 36.940624 217.78438 37.3625Q216.81563 37.784374 215.59688 37.784374Q213.58125 37.784374 212.51875 36.940624Q211.45625 36.096874 211.15938 34.45625ZM225.70625 35.971874L225.95625 37.534374Q225.22188 37.690624 224.62813 37.690624Q223.675 37.690624 223.14375 37.39375Q222.62813 37.08125 222.40938 36.596874Q222.19063 36.096874 222.19063 34.51875L222.19063 28.55L220.90938 28.55L220.90938 27.175L222.19063 27.175L222.19063 24.6125L223.94063 23.55L223.94063 27.175L225.70625 27.175L225.70625 28.55L223.94063 28.55L223.94063 34.6125Q223.94063 35.3625 224.03438 35.58125Q224.12813 35.784374 224.33125 35.925Q224.55 36.05 224.94063 36.05Q225.22188 36.05 225.70625 35.971874ZM227.84688 37.55L227.84688 27.175L229.425 27.175L229.425 28.753124Q230.03438 27.64375 230.55 27.3Q231.06563 26.940624 231.675 26.940624Q232.56563 26.940624 233.4875 27.503124L232.87813 29.14375Q232.2375 28.753124 231.59688 28.753124Q231.01875 28.753124 230.55 29.1125Q230.09688 29.45625 229.89375 30.065624Q229.6125 31.003124 229.6125 32.1125L229.6125 37.55L227.84688 37.55ZM241.97188 34.20625L243.78438 34.440624Q243.3625 36.01875 242.19063 36.909374Q241.03438 37.784374 239.22188 37.784374Q236.95625 37.784374 235.6125 36.39375Q234.28438 34.9875 234.28438 32.45625Q234.28438 29.83125 235.62813 28.39375Q236.97188 26.940624 239.12813 26.940624Q241.20625 26.940624 242.51875 28.3625Q243.84688 29.76875 243.84688 32.346874Q243.84688 32.503124 243.83125 32.815624L236.09688 32.815624Q236.19063 34.51875 237.06563 35.425Q237.94063 36.33125 239.2375 36.33125Q240.20625 36.33125 240.87813 35.83125Q241.56563 35.315624 241.97188 34.20625ZM236.19063 31.3625L241.9875 31.3625Q241.87813 30.065624 241.33125 29.409374Q240.4875 28.39375 239.14375 28.39375Q237.94063 28.39375 237.1125 29.20625Q236.28438 30.003124 236.19063 31.3625ZM252.64375 36.26875Q251.65938 37.096874 250.75313 37.440624Q249.84688 37.784374 248.81563 37.784374Q247.1125 37.784374 246.19063 36.95625Q245.26875 36.1125 245.26875 34.815624Q245.26875 34.05 245.6125 33.425Q245.97188 32.8 246.53438 32.425Q247.09688 32.034374 247.8 31.83125Q248.31563 31.70625 249.3625 31.565624Q251.4875 31.315624 252.4875 30.971874Q252.50313 30.6125 252.50313 30.503124Q252.50313 29.440624 252.00313 28.9875Q251.33125 28.39375 250.00313 28.39375Q248.75313 28.39375 248.15938 28.83125Q247.58125 29.26875 247.3 30.378124L245.58125 30.14375Q245.81563 29.034374 246.34688 28.3625Q246.87813 27.675 247.89375 27.315624Q248.90938 26.940624 250.25313 26.940624Q251.58125 26.940624 252.40938 27.253124Q253.2375 27.565624 253.62813 28.05Q254.01875 28.51875 254.175 29.2375Q254.26875 29.690624 254.26875 30.8625L254.26875 33.20625Q254.26875 35.659374 254.37813 36.315624Q254.4875 36.95625 254.83125 37.55L252.9875 37.55Q252.72188 37.003124 252.64375 36.26875ZM252.4875 32.346874Q251.53438 32.7375 249.6125 33.003124Q248.53438 33.159374 248.08125 33.3625Q247.64375 33.55 247.39375 33.925Q247.14375 34.3 247.14375 34.76875Q247.14375 35.471874 247.675 35.940624Q248.20625 36.409374 249.2375 36.409374Q250.25313 36.409374 251.03438 35.971874Q251.83125 35.51875 252.20625 34.753124Q252.4875 34.14375 252.4875 32.9875L252.4875 32.346874ZM256.8625 37.55L256.8625 27.175L258.4406 27.175L258.4406 28.628124Q258.925 27.878124 259.7375 27.409374Q260.55 26.940624 261.58124 26.940624Q262.7375 26.940624 263.47186 27.425Q264.20624 27.89375 264.51874 28.753124Q265.7531 26.940624 267.72186 26.940624Q269.26874 26.940624 270.09686 27.8Q270.925 28.659374 270.925 30.425L270.925 37.55L269.175 37.55L269.175 31.01875Q269.175 29.95625 269.0031 29.503124Q268.83124 29.034374 268.3781 28.753124Q267.9406 28.471874 267.33124 28.471874Q266.2375 28.471874 265.5031 29.20625Q264.78436 29.925 264.78436 31.51875L264.78436 37.55L263.03436 37.55L263.03436 30.815624Q263.03436 29.64375 262.59686 29.065624Q262.175 28.471874 261.1906 28.471874Q260.45624 28.471874 259.8156 28.8625Q259.1906 29.253124 258.90936 30.003124Q258.6281 30.753124 258.6281 32.175L258.6281 37.55L256.8625 37.55ZM276.15936 34.01875Q276.14374 33.675 276.14374 33.503124Q276.14374 32.45625 276.4406 31.70625Q276.65936 31.14375 277.14374 30.565624Q277.4875 30.14375 278.39374 29.346874Q279.3156 28.534374 279.58124 28.065624Q279.8625 27.58125 279.8625 27.01875Q279.8625 25.9875 279.05 25.221874Q278.2531 24.440624 277.09686 24.440624Q275.97186 24.440624 275.22186 25.14375Q274.47186 25.846874 274.2375 27.33125L272.425 27.1125Q272.675 25.1125 273.8781 24.05Q275.08124 22.9875 277.0656 22.9875Q279.175 22.9875 280.425 24.128124Q281.675 25.26875 281.675 26.89375Q281.675 27.83125 281.22186 28.628124Q280.78436 29.409374 279.5031 30.55Q278.64374 31.315624 278.3781 31.675Q278.1281 32.034374 277.9875 32.503124Q277.8625 32.971874 277.84686 34.01875L276.15936 34.01875ZM276.05 37.55L276.05 35.55L278.05 35.55L278.05 37.55L276.05 37.55Z" fill-rule="nonzero"/></svg>