<svg version="1.1" viewBox="0.0 0.0 600.0 371.0" fill="none" stroke="none" stroke-linecap="square" stroke-miterlimit="10" width="600" height="371" xmlns:xlink="http://www.w3.org/1999/xlink" xmlns="http://www.w3.org/2000/svg"><path fill="#272729" d="M0 0L600.0 0L600.0 371.0L0 371.0L0 0Z" fill-rule="nonzero"/><path fill="#4285f4" d="M300.0 54.916668C374.8806 54.916668 435.58334 115.61939 435.58334 190.5C435.58334 265.3806 374.8806 326.08334 300.0 326.08334C225.1194 326.08334 164.41667 265.3806 164.41667 190.5C164.41667 115.61939 225.1194 54.916668 300.0 54.916668L300.0 190.5Z" fill-rule="nonzero"/><path fill="#ffffff" d="M282.51562 195.5L280.59375 195.5L280.59375 188.26562Q279.53125 189.25 278.10938 189.71875L278.10938 187.96875Q278.85938 187.73438 279.73438 187.04688Q280.625 186.35938 280.95312 185.4375L282.51562 185.4375L282.51562 195.5ZM288.84375 185.4375Q290.29688 185.4375 291.125 186.46875Q292.09375 187.70312 292.09375 190.5625Q292.09375 193.40625 291.10938 194.64062Q290.29688 195.67188 288.84375 195.67188Q287.375 195.67188 286.48438 194.54688Q285.59375 193.42188 285.59375 190.53125Q285.59375 187.70312 286.57812 186.46875Q287.39062 185.4375 288.84375 185.4375ZM288.84375 187.03125Q288.5 187.03125 288.21875 187.25Q287.95312 187.46875 287.79688 188.04688Q287.59375 188.79688 287.59375 190.5625Q287.59375 192.32812 287.76562 192.98438Q287.95312 193.64062 288.21875 193.85938Q288.5 194.07812 288.84375 194.07812Q289.1875 194.07812 289.45312 193.85938Q289.73438 193.64062 289.89062 193.0625Q290.09375 192.32812 290.09375 190.5625Q290.09375 188.79688 289.90625 188.14062Q289.73438 187.46875 289.45312 187.25Q289.1875 187.03125 288.84375 187.03125ZM296.84375 185.4375Q298.29688 185.4375 299.125 186.46875Q300.09375 187.70312 300.09375 190.5625Q300.09375 193.40625 299.10938 194.64062Q298.29688 195.67188 296.84375 195.67188Q295.375 195.67188 294.48438 194.54688Q293.59375 193.42188 293.59375 190.53125Q293.59375 187.70312 294.57812 186.46875Q295.39062 185.4375 296.84375 185.4375ZM296.84375 187.03125Q296.5 187.03125 296.21875 187.25Q295.95312 187.46875 295.79688 188.04688Q295.59375 188.79688 295.59375 190.5625Q295.59375 192.32812 295.76562 192.98438Q295.95312 193.64062 296.21875 193.85938Q296.5 194.07812 296.84375 194.07812Q297.1875 194.07812 297.45312 193.85938Q297.73438 193.64062 297.89062 193.0625Q298.09375 192.32812 298.09375 190.5625Q298.09375 188.79688 297.90625 188.14062Q297.73438 187.46875 297.45312 187.25Q297.1875 187.03125 296.84375 187.03125ZM302.0 195.5L302.0 193.57812L303.92188 193.57812L303.92188 195.5L302.0 195.5ZM308.84375 185.4375Q310.29688 185.4375 311.125 186.46875Q312.09375 187.70312 312.09375 190.5625Q312.09375 193.40625 311.10938 194.64062Q310.29688 195.67188 308.84375 195.67188Q307.375 195.67188 306.48438 194.54688Q305.59375 193.42188 305.59375 190.53125Q305.59375 187.70312 306.57812 186.46875Q307.39062 185.4375 308.84375 185.4375ZM308.84375 187.03125Q308.5 187.03125 308.21875 187.25Q307.95312 187.46875 307.79688 188.04688Q307.59375 188.79688 307.59375 190.5625Q307.59375 192.32812 307.76562 192.98438Q307.95312 193.64062 308.21875 193.85938Q308.5 194.07812 308.84375 194.07812Q309.1875 194.07812 309.45312 193.85938Q309.73438 193.64062 309.89062 193.0625Q310.09375 192.32812 310.09375 190.5625Q310.09375 188.79688 309.90625 188.14062Q309.73438 187.46875 309.45312 187.25Q309.1875 187.03125 308.84375 187.03125ZM313.60938 187.95312Q313.60938 186.60938 314.20312 185.96875Q314.79688 185.3125 315.79688 185.3125Q316.84375 185.3125 317.4375 185.95312Q318.03125 186.59375 318.03125 187.95312Q318.03125 189.29688 317.4375 189.95312Q316.84375 190.59375 315.84375 190.59375Q314.79688 190.59375 314.20312 189.95312Q313.60938 189.3125 313.60938 187.95312ZM315.10938 187.9375Q315.10938 188.92188 315.32812 189.25Q315.5 189.5 315.79688 189.5Q316.10938 189.5 316.28125 189.25Q316.5 188.92188 316.5 187.9375Q316.5 186.96875 316.28125 186.64062Q316.10938 186.375 315.79688 186.375Q315.5 186.375 315.32812 186.625Q315.10938 186.96875 315.10938 187.9375ZM317.26562 195.89062L315.84375 195.89062L321.1875 185.3125L322.5625 185.3125L317.26562 195.89062ZM320.375 193.25Q320.375 191.90625 320.95312 191.26562Q321.54688 190.60938 322.57812 190.60938Q323.60938 190.60938 324.20312 191.26562Q324.79688 191.90625 324.79688 193.25Q324.79688 194.60938 324.20312 195.26562Q323.60938 195.90625 322.59375 195.90625Q321.54688 195.90625 320.95312 195.26562Q320.375 194.60938 320.375 193.25ZM321.85938 193.25Q321.85938 194.21875 322.09375 194.54688Q322.26562 194.79688 322.5625 194.79688Q322.875 194.79688 323.03125 194.5625Q323.26562 194.21875 323.26562 193.25Q323.26562 192.26562 323.04688 191.9375Q322.875 191.6875 322.5625 191.6875Q322.25 191.6875 322.09375 191.9375Q321.85938 192.26562 321.85938 193.25Z" fill-rule="nonzero"/><path fill="#4285f4" d="M291.5 345.45C291.5 348.7637 288.81372 351.45 285.5 351.45C282.18628 351.45 279.5 348.7637 279.5 345.45C279.5 342.1363 282.18628 339.45 285.5 339.45C288.81372 339.45 291.5 342.1363 291.5 345.45Z" fill-rule="nonzero"/><path fill="#ffffff" d="M302.625 349.45L302.625 345.84064L299.48438 340.85626L301.51562 340.85626L303.53125 344.2625L305.51562 340.85626L307.51562 340.85626L304.35938 345.84064L304.35938 349.45L302.625 349.45ZM310.96875 347.46564L312.60938 347.7469Q312.29688 348.65314 311.60938 349.1219Q310.92188 349.59064 309.90625 349.59064Q308.28125 349.59064 307.5 348.52814Q306.875 347.6844 306.875 346.3875Q306.875 344.84064 307.6875 343.96564Q308.5 343.09064 309.73438 343.09064Q311.125 343.09064 311.92188 344.0125Q312.73438 344.91876 312.6875 346.8094L308.5625 346.8094Q308.59375 347.54376 308.96875 347.95Q309.34375 348.35626 309.92188 348.35626Q310.29688 348.35626 310.5625 348.15314Q310.82812 347.9344 310.96875 347.46564ZM311.0625 345.8094Q311.04688 345.09064 310.6875 344.71564Q310.34375 344.34064 309.82812 344.34064Q309.29688 344.34064 308.9375 344.73126Q308.59375 345.1375 308.59375 345.8094L311.0625 345.8094ZM313.78125 347.66876L315.4375 347.41876Q315.54688 347.90314 315.85938 348.15314Q316.1875 348.40314 316.76562 348.40314Q317.40625 348.40314 317.71875 348.16876Q317.9375 347.9969 317.9375 347.73126Q317.9375 347.54376 317.82812 347.41876Q317.70312 347.29376 317.28125 347.2Q315.28125 346.7625 314.75 346.40314Q314.01562 345.8875 314.01562 344.9969Q314.01562 344.1844 314.64062 343.6375Q315.28125 343.09064 316.625 343.09064Q317.90625 343.09064 318.53125 343.5125Q319.15625 343.91876 319.39062 344.73126L317.82812 345.0125Q317.73438 344.65314 317.45312 344.46564Q317.17188 344.2625 316.65625 344.2625Q316.01562 344.2625 315.73438 344.45Q315.54688 344.575 315.54688 344.77814Q315.54688 344.96564 315.70312 345.09064Q315.92188 345.2469 317.23438 345.54376Q318.5625 345.84064 319.07812 346.27814Q319.59375 346.71564 319.59375 347.4969Q319.59375 348.35626 318.875 348.98126Q318.17188 349.59064 316.76562 349.59064Q315.5 349.59064 314.75 349.075Q314.01562 348.5594 313.78125 347.66876Z" fill-rule="nonzero"/><path fill="#ffffff" d="M20.096874 37.55L20.096874 23.2375L25.01875 23.2375Q26.690624 23.2375 27.58125 23.440624Q28.8 23.721874 29.675 24.45625Q30.8 25.425 31.3625 26.909374Q31.925 28.39375 31.925 30.315624Q31.925 31.940624 31.55 33.20625Q31.175 34.45625 30.565624 35.284374Q29.971874 36.1125 29.26875 36.596874Q28.565624 37.065624 27.565624 37.315624Q26.565624 37.55 25.253124 37.55L20.096874 37.55ZM21.9875 35.8625L25.05 35.8625Q26.45625 35.8625 27.253124 35.596874Q28.065624 35.33125 28.55 34.846874Q29.221874 34.175 29.596874 33.05Q29.971874 31.909374 29.971874 30.284374Q29.971874 28.034374 29.2375 26.83125Q28.503124 25.628124 27.440624 25.221874Q26.690624 24.925 25.003124 24.925L21.9875 24.925L21.9875 35.8625ZM33.878124 25.253124L33.878124 23.2375L35.64375 23.2375L35.64375 25.253124L33.878124 25.253124ZM33.878124 37.55L33.878124 27.175L35.64375 27.175L35.64375 37.55L33.878124 37.55ZM44.596874 37.55L44.596874 36.2375Q43.6125 37.784374 41.690624 37.784374Q40.45625 37.784374 39.409374 37.096874Q38.378124 36.409374 37.8 35.190624Q37.2375 33.971874 37.2375 32.378124Q37.2375 30.815624 37.753124 29.55Q38.26875 28.284374 39.3 27.6125Q40.346874 26.940624 41.6125 26.940624Q42.55 26.940624 43.284374 27.346874Q44.01875 27.7375 44.4875 28.3625L44.4875 23.2375L46.221874 23.2375L46.221874 37.55L44.596874 37.55ZM39.034374 32.378124Q39.034374 34.3625 39.878124 35.346874Q40.721874 36.33125 41.8625 36.33125Q43.01875 36.33125 43.815624 35.39375Q44.628124 34.45625 44.628124 32.51875Q44.628124 30.39375 43.8 29.39375Q42.9875 28.39375 41.784374 28.39375Q40.6125 28.39375 39.815624 29.3625Q39.034374 30.315624 39.034374 32.378124ZM54.784374 41.55L54.596874 39.89375Q55.175 40.05 55.596874 40.05Q56.190624 40.05 56.534374 39.846874Q56.89375 39.659374 57.1125 39.315624Q57.284374 39.05 57.659374 38.003124Q57.70625 37.846874 57.815624 37.565624L53.878124 27.175L55.76875 27.175L57.925 33.190624Q58.346874 34.33125 58.675 35.58125Q58.9875 34.378124 59.39375 33.221874L61.6125 27.175L63.378124 27.175L59.425 37.721874Q58.8 39.440624 58.440624 40.08125Q57.971874 40.95625 57.3625 41.346874Q56.76875 41.753124 55.925 41.753124Q55.409374 41.753124 54.784374 41.55ZM64.22188 32.3625Q64.22188 29.4875 65.81563 28.096874Q67.15938 26.940624 69.08125 26.940624Q71.22188 26.940624 72.56563 28.346874Q73.925 29.753124 73.925 32.221874Q73.925 34.221874 73.33125 35.378124Q72.7375 36.51875 71.58125 37.159374Q70.44063 37.784374 69.08125 37.784374Q66.89375 37.784374 65.55 36.39375Q64.22188 34.9875 64.22188 32.3625ZM66.01875 32.3625Q66.01875 34.3625 66.87813 35.346874Q67.75313 36.33125 69.08125 36.33125Q70.39375 36.33125 71.25313 35.346874Q72.12813 34.346874 72.12813 32.3Q72.12813 30.378124 71.25313 29.39375Q70.37813 28.39375 69.08125 28.39375Q67.75313 28.39375 66.87813 29.39375Q66.01875 30.378124 66.01875 32.3625ZM82.65938 37.55L82.65938 36.01875Q81.45625 37.784374 79.37813 37.784374Q78.45625 37.784374 77.65938 37.440624Q76.8625 37.08125 76.47188 36.55Q76.09688 36.01875 75.94063 35.2375Q75.83125 34.721874 75.83125 33.596874L75.83125 27.175L77.58125 27.175L77.58125 32.925Q77.58125 34.3 77.69063 34.784374Q77.8625 35.471874 78.39375 35.878124Q78.94063 36.26875 79.72188 36.26875Q80.51875 36.26875 81.20625 35.8625Q81.90938 35.45625 82.19063 34.76875Q82.4875 34.065624 82.4875 32.7375L82.4875 27.175L84.2375 27.175L84.2375 37.55L82.65938 37.55ZM91.83125 37.55L91.83125 23.2375L93.58125 23.2375L93.58125 37.55L91.83125 37.55ZM95.87813 25.253124L95.87813 23.2375L97.64375 23.2375L97.64375 25.253124L95.87813 25.253124ZM95.87813 37.55L95.87813 27.175L97.64375 27.175L97.64375 37.55L95.87813 37.55ZM99.87813 37.55L99.87813 23.2375L101.64375 23.2375L101.64375 31.39375L105.8 27.175L108.06563 27.175L104.1125 31.01875L108.47188 37.55L106.3 37.55L102.87813 32.253124L101.64375 33.440624L101.64375 37.55L99.87813 37.55ZM116.97188 34.20625L118.78438 34.440624Q118.3625 36.01875 117.19063 36.909374Q116.03438 37.784374 114.22188 37.784374Q111.95625 37.784374 110.6125 36.39375Q109.28438 34.9875 109.28438 32.45625Q109.28438 29.83125 110.62813 28.39375Q111.97188 26.940624 114.12813 26.940624Q116.20625 26.940624 117.51875 28.3625Q118.84688 29.76875 118.84688 32.346874Q118.84688 32.503124 118.83125 32.815624L111.09688 32.815624Q111.19063 34.51875 112.06563 35.425Q112.94063 36.33125 114.2375 36.33125Q115.20625 36.33125 115.87813 35.83125Q116.56563 35.315624 116.97188 34.20625ZM111.19063 31.3625L116.9875 31.3625Q116.87813 30.065624 116.33125 29.409374Q115.4875 28.39375 114.14375 28.39375Q112.94063 28.39375 112.1125 29.20625Q111.28438 30.003124 111.19063 31.3625ZM130.70625 35.971874L130.95625 37.534374Q130.22188 37.690624 129.62813 37.690624Q128.675 37.690624 128.14375 37.39375Q127.62813 37.08125 127.40938 36.596874Q127.19063 36.096874 127.19063 34.51875L127.19063 28.55L125.90938 28.55L125.90938 27.175L127.19063 27.175L127.19063 24.6125L128.94063 23.55L128.94063 27.175L130.70625 27.175L130.70625 28.55L128.94063 28.55L128.94063 34.6125Q128.94063 35.3625 129.03438 35.58125Q129.12813 35.784374 129.33125 35.925Q129.55 36.05 129.94063 36.05Q130.22188 36.05 130.70625 35.971874ZM132.8625 37.55L132.8625 23.2375L134.62813 23.2375L134.62813 28.3625Q135.8625 26.940624 137.7375 26.940624Q138.87813 26.940624 139.72188 27.39375Q140.58125 27.846874 140.94063 28.659374Q141.31563 29.45625 141.31563 30.971874L141.31563 37.55L139.56563 37.55L139.56563 30.971874Q139.56563 29.659374 138.9875 29.065624Q138.40938 28.45625 137.37813 28.45625Q136.59688 28.45625 135.89375 28.8625Q135.20625 29.26875 134.90938 29.971874Q134.62813 30.659374 134.62813 31.878124L134.62813 37.55L132.8625 37.55ZM149.97188 34.20625L151.78438 34.440624Q151.3625 36.01875 150.19063 36.909374Q149.03438 37.784374 147.22188 37.784374Q144.95625 37.784374 143.6125 36.39375Q142.28438 34.9875 142.28438 32.45625Q142.28438 29.83125 143.62813 28.39375Q144.97188 26.940624 147.12813 26.940624Q149.20625 26.940624 150.51875 28.3625Q151.84688 29.76875 151.84688 32.346874Q151.84688 32.503124 151.83125 32.815624L144.09688 32.815624Q144.19063 34.51875 145.06563 35.425Q145.94063 36.33125 147.2375 36.33125Q148.20625 36.33125 148.87813 35.83125Q149.56563 35.315624 149.97188 34.20625ZM144.19063 31.3625L149.9875 31.3625Q149.87813 30.065624 149.33125 29.409374Q148.4875 28.39375 147.14375 28.39375Q145.94063 28.39375 145.1125 29.20625Q144.28438 30.003124 144.19063 31.3625ZM159.83125 37.55L159.83125 23.2375L161.58125 23.2375L161.58125 37.55L159.83125 37.55ZM170.64375 36.26875Q169.65938 37.096874 168.75313 37.440624Q167.84688 37.784374 166.81563 37.784374Q165.1125 37.784374 164.19063 36.95625Q163.26875 36.1125 163.26875 34.815624Q163.26875 34.05 163.6125 33.425Q163.97188 32.8 164.53438 32.425Q165.09688 32.034374 165.8 31.83125Q166.31563 31.70625 167.3625 31.565624Q169.4875 31.315624 170.4875 30.971874Q170.50313 30.6125 170.50313 30.503124Q170.50313 29.440624 170.00313 28.9875Q169.33125 28.39375 168.00313 28.39375Q166.75313 28.39375 166.15938 28.83125Q165.58125 29.26875 165.3 30.378124L163.58125 30.14375Q163.81563 29.034374 164.34688 28.3625Q164.87813 27.675 165.89375 27.315624Q166.90938 26.940624 168.25313 26.940624Q169.58125 26.940624 170.40938 27.253124Q171.2375 27.565624 171.62813 28.05Q172.01875 28.51875 172.175 29.2375Q172.26875 29.690624 172.26875 30.8625L172.26875 33.20625Q172.26875 35.659374 172.37813 36.315624Q172.4875 36.95625 172.83125 37.55L170.9875 37.55Q170.72188 37.003124 170.64375 36.26875ZM170.4875 32.346874Q169.53438 32.7375 167.6125 33.003124Q166.53438 33.159374 166.08125 33.3625Q165.64375 33.55 165.39375 33.925Q165.14375 34.3 165.14375 34.76875Q165.14375 35.471874 165.675 35.940624Q166.20625 36.409374 167.2375 36.409374Q168.25313 36.409374 169.03438 35.971874Q169.83125 35.51875 170.20625 34.753124Q170.4875 34.14375 170.4875 32.9875L170.4875 32.346874ZM174.78438 41.55L174.59688 39.89375Q175.175 40.05 175.59688 40.05Q176.19063 40.05 176.53438 39.846874Q176.89375 39.659374 177.1125 39.315624Q177.28438 39.05 177.65938 38.003124Q177.70625 37.846874 177.81563 37.565624L173.87813 27.175L175.76875 27.175L177.925 33.190624Q178.34688 34.33125 178.675 35.58125Q178.9875 34.378124 179.39375 33.221874L181.6125 27.175L183.37813 27.175L179.425 37.721874Q178.8 39.440624 178.44063 40.08125Q177.97188 40.95625 177.3625 41.346874Q176.76875 41.753124 175.925 41.753124Q175.40938 41.753124 174.78438 41.55ZM184.22188 32.3625Q184.22188 29.4875 185.81563 28.096874Q187.15938 26.940624 189.08125 26.940624Q191.22188 26.940624 192.56563 28.346874Q193.925 29.753124 193.925 32.221874Q193.925 34.221874 193.33125 35.378124Q192.7375 36.51875 191.58125 37.159374Q190.44063 37.784374 189.08125 37.784374Q186.89375 37.784374 185.55 36.39375Q184.22188 34.9875 184.22188 32.3625ZM186.01875 32.3625Q186.01875 34.3625 186.87813 35.346874Q187.75313 36.33125 189.08125 36.33125Q190.39375 36.33125 191.25313 35.346874Q192.12813 34.346874 192.12813 32.3Q192.12813 30.378124 191.25313 29.39375Q190.37813 28.39375 189.08125 28.39375Q187.75313 28.39375 186.87813 29.39375Q186.01875 30.378124 186.01875 32.3625ZM202.65938 37.55L202.65938 36.01875Q201.45625 37.784374 199.37813 37.784374Q198.45625 37.784374 197.65938 37.440624Q196.8625 37.08125 196.47188 36.55Q196.09688 36.01875 195.94063 35.2375Q195.83125 34.721874 195.83125 33.596874L195.83125 27.175L197.58125 27.175L197.58125 32.925Q197.58125 34.3 197.69063 34.784374Q197.8625 35.471874 198.39375 35.878124Q198.94063 36.26875 199.72188 36.26875Q200.51875 36.26875 201.20625 35.8625Q201.90938 35.45625 202.19063 34.76875Q202.4875 34.065624 202.4875 32.7375L202.4875 27.175L204.2375 27.175L204.2375 37.55L202.65938 37.55ZM209.70625 35.971874L209.95625 37.534374Q209.22188 37.690624 208.62813 37.690624Q207.675 37.690624 207.14375 37.39375Q206.62813 37.08125 206.40938 36.596874Q206.19063 36.096874 206.19063 34.51875L206.19063 28.55L204.90938 28.55L204.90938 27.175L206.19063 27.175L206.19063 24.6125L207.94063 23.55L207.94063 27.175L209.70625 27.175L209.70625 28.55L207.94063 28.55L207.94063 34.6125Q207.94063 35.3625 208.03438 35.58125Q208.12813 35.784374 208.33125 35.925Q208.55 36.05 208.94063 36.05Q209.22188 36.05 209.70625 35.971874ZM210.55 37.8L214.70625 22.9875L216.1125 22.9875L211.97188 37.8L210.55 37.8ZM223.22188 32.3625Q223.22188 29.4875 224.81563 28.096874Q226.15938 26.940624 228.08125 26.940624Q230.22188 26.940624 231.56563 28.346874Q232.925 29.753124 232.925 32.221874Q232.925 34.221874 232.33125 35.378124Q231.7375 36.51875 230.58125 37.159374Q229.44063 37.784374 228.08125 37.784374Q225.89375 37.784374 224.55 36.39375Q223.22188 34.9875 223.22188 32.3625ZM225.01875 32.3625Q225.01875 34.3625 225.87813 35.346874Q226.75313 36.33125 228.08125 36.33125Q229.39375 36.33125 230.25313 35.346874Q231.12813 34.346874 231.12813 32.3Q231.12813 30.378124 230.25313 29.39375Q229.37813 28.39375 228.08125 28.39375Q226.75313 28.39375 225.87813 29.39375Q225.01875 30.378124 225.01875 32.3625ZM237.75313 37.55L233.8 27.175L235.65938 27.175L237.89375 33.39375Q238.25313 34.39375 238.55 35.471874Q238.78438 34.659374 239.20625 33.503124L241.50313 27.175L243.31563 27.175L239.39375 37.55L237.75313 37.55ZM250.97188 34.20625L252.78438 34.440624Q252.3625 36.01875 251.19063 36.909374Q250.03438 37.784374 248.22188 37.784374Q245.95625 37.784374 244.6125 36.39375Q243.28438 34.9875 243.28438 32.45625Q243.28438 29.83125 244.62813 28.39375Q245.97188 26.940624 248.12813 26.940624Q250.20625 26.940624 251.51875 28.3625Q252.84688 29.76875 252.84688 32.346874Q252.84688 32.503124 252.83125 32.815624L245.09688 32.815624Q245.19063 34.51875 246.06563 35.425Q246.94063 36.33125 248.2375 36.33125Q249.20625 36.33125 249.87813 35.83125Q250.56563 35.315624 250.97188 34.20625ZM245.19063 31.3625L250.9875 31.3625Q250.87813 30.065624 250.33125 29.409374Q249.4875 28.39375 248.14375 28.39375Q246.94063 28.39375 246.1125 29.20625Q245.28438 30.003124 245.19063 31.3625ZM254.84688 37.55L254.84688 27.175L256.425 27.175L256.425 28.753124Q257.03436 27.64375 257.55 27.3Q258.0656 26.940624 258.675 26.940624Q259.5656 26.940624 260.4875 27.503124L259.8781 29.14375Q259.2375 28.753124 258.59686 28.753124Q258.01874 28.753124 257.55 29.1125Q257.09686 29.45625 256.89374 30.065624Q256.6125 31.003124 256.6125 32.1125L256.6125 37.55L254.84688 37.55ZM268.64374 36.26875Q267.65936 37.096874 266.7531 37.440624Q265.84686 37.784374 264.8156 37.784374Q263.1125 37.784374 262.1906 36.95625Q261.26874 36.1125 261.26874 34.815624Q261.26874 34.05 261.6125 33.425Q261.97186 32.8 262.53436 32.425Q263.09686 32.034374 263.8 31.83125Q264.3156 31.70625 265.3625 31.565624Q267.4875 31.315624 268.4875 30.971874Q268.5031 30.6125 268.5031 30.503124Q268.5031 29.440624 268.0031 28.9875Q267.33124 28.39375 266.0031 28.39375Q264.7531 28.39375 264.15936 28.83125Q263.58124 29.26875 263.3 30.378124L261.58124 30.14375Q261.8156 29.034374 262.34686 28.3625Q262.8781 27.675 263.89374 27.315624Q264.90936 26.940624 266.2531 26.940624Q267.58124 26.940624 268.40936 27.253124Q269.2375 27.565624 269.6281 28.05Q270.01874 28.51875 270.175 29.2375Q270.26874 29.690624 270.26874 30.8625L270.26874 33.20625Q270.26874 35.659374 270.3781 36.315624Q270.4875 36.95625 270.83124 37.55L268.9875 37.55Q268.72186 37.003124 268.64374 36.26875ZM268.4875 32.346874Q267.53436 32.7375 265.6125 33.003124Q264.53436 33.159374 264.08124 33.3625Q263.64374 33.55 263.39374 33.925Q263.14374 34.3 263.14374 34.76875Q263.14374 35.471874 263.675 35.940624Q264.20624 36.409374 265.2375 36.409374Q266.2531 36.409374 267.03436 35.971874Q267.83124 35.51875 268.20624 34.753124Q268.4875 34.14375 268.4875 32.9875L268.4875 32.346874ZM272.83124 37.55L272.83124 23.2375L274.58124 23.2375L274.58124 37.55L272.83124 37.55ZM276.83124 37.55L276.83124 23.2375L278.58124 23.2375L278.58124 37.55L276.83124 37.55ZM293.59686 37.55L293.59686 36.2375Q292.6125 37.784374 290.6906 37.784374Q289.45624 37.784374 288.40936 37.096874Q287.3781 36.409374 286.8 35.190624Q286.2375 33.971874 286.2375 32.378124Q286.2375 30.815624 286.7531 29.55Q287.26874 28.284374 288.3 27.6125Q289.34686 26.940624 290.6125 26.940624Q291.55 26.940624 292.28436 27.346874Q293.01874 27.7375 293.4875 28.3625L293.4875 23.2375L295.22186 23.2375L295.22186 37.55L293.59686 37.55ZM288.03436 32.378124Q288.03436 34.3625 288.8781 35.346874Q289.72186 36.33125 290.8625 36.33125Q292.01874 36.33125 292.8156 35.39375Q293.6281 34.45625 293.6281 32.51875Q293.6281 30.39375 292.8 29.39375Q291.9875 28.39375 290.78436 28.39375Q289.6125 28.39375 288.8156 29.3625Q288.03436 30.315624 288.03436 32.378124ZM304.97186 34.20625L306.78436 34.440624Q306.3625 36.01875 305.1906 36.909374Q304.03436 37.784374 302.22186 37.784374Q299.95624 37.784374 298.6125 36.39375Q297.28436 34.9875 297.28436 32.45625Q297.28436 29.83125 298.6281 28.39375Q299.97186 26.940624 302.1281 26.940624Q304.20624 26.940624 305.51874 28.3625Q306.84686 29.76875 306.84686 32.346874Q306.84686 32.503124 306.83124 32.815624L299.09686 32.815624Q299.1906 34.51875 300.0656 35.425Q300.9406 36.33125 302.2375 36.33125Q303.20624 36.33125 303.8781 35.83125Q304.5656 35.315624 304.97186 34.20625ZM299.1906 31.3625L304.9875 31.3625Q304.8781 30.065624 304.33124 29.409374Q303.4875 28.39375 302.14374 28.39375Q300.9406 28.39375 300.1125 29.20625Q299.28436 30.003124 299.1906 31.3625ZM308.15936 34.45625L309.90936 34.175Q310.05 35.221874 310.72186 35.784374Q311.39374 36.33125 312.59686 36.33125Q313.8 36.33125 314.3781 35.846874Q314.97186 35.346874 314.97186 34.690624Q314.97186 34.096874 314.45624 33.753124Q314.09686 33.51875 312.65936 33.159374Q310.72186 32.659374 309.97186 32.315624Q309.2375 31.95625 308.84686 31.33125Q308.45624 30.690624 308.45624 29.925Q308.45624 29.2375 308.76874 28.64375Q309.09686 28.05 309.64374 27.659374Q310.05 27.3625 310.7531 27.159374Q311.47186 26.940624 312.28436 26.940624Q313.5031 26.940624 314.425 27.3Q315.34686 27.64375 315.78436 28.253124Q316.22186 28.846874 316.39374 29.846874L314.675 30.08125Q314.55 29.284374 313.9875 28.846874Q313.425 28.39375 312.40936 28.39375Q311.1906 28.39375 310.675 28.8Q310.15936 29.190624 310.15936 29.721874Q310.15936 30.065624 310.3781 30.346874Q310.58124 30.628124 311.05 30.815624Q311.3156 30.909374 312.59686 31.253124Q314.47186 31.753124 315.20624 32.08125Q315.9406 32.39375 316.3625 33.003124Q316.78436 33.596874 316.78436 34.503124Q316.78436 35.378124 316.26874 36.159374Q315.7531 36.940624 314.78436 37.3625Q313.8156 37.784374 312.59686 37.784374Q310.58124 37.784374 309.51874 36.940624Q308.45624 36.096874 308.15936 34.45625ZM318.8781 25.253124L318.8781 23.2375L320.64374 23.2375L320.64374 25.253124L318.8781 25.253124ZM318.8781 37.55L318.8781 27.175L320.64374 27.175L320.64374 37.55L318.8781 37.55ZM322.55 38.409374L324.2531 38.659374Q324.3625 39.45625 324.84686 39.815624Q325.5031 40.3 326.64374 40.3Q327.8625 40.3 328.51874 39.815624Q329.1906 39.33125 329.425 38.45625Q329.5656 37.909374 329.55 36.190624Q328.39374 37.55 326.675 37.55Q324.53436 37.55 323.3625 36.003124Q322.1906 34.45625 322.1906 32.3Q322.1906 30.815624 322.72186 29.565624Q323.26874 28.315624 324.28436 27.628124Q325.3156 26.940624 326.6906 26.940624Q328.51874 26.940624 329.72186 28.425L329.72186 27.175L331.33124 27.175L331.33124 36.14375Q331.33124 38.565624 330.83124 39.565624Q330.34686 40.58125 329.26874 41.159374Q328.20624 41.753124 326.64374 41.753124Q324.8 41.753124 323.64374 40.925Q322.5031 40.096874 322.55 38.409374ZM324.0031 32.175Q324.0031 34.221874 324.8156 35.159374Q325.6281 36.096874 326.84686 36.096874Q328.05 36.096874 328.8625 35.159374Q329.6906 34.221874 329.6906 32.2375Q329.6906 30.33125 328.84686 29.3625Q328.0031 28.39375 326.8156 28.39375Q325.64374 28.39375 324.8156 29.346874Q324.0031 30.3 324.0031 32.175ZM333.8625 37.55L333.8625 27.175L335.45624 27.175L335.45624 28.659374Q336.59686 26.940624 338.7531 26.940624Q339.6906 26.940624 340.47186 27.284374Q341.26874 27.6125 341.65936 28.159374Q342.05 28.70625 342.20624 29.45625Q342.3 29.95625 342.3 31.175L342.3 37.55L340.53436 37.55L340.53436 31.2375Q340.53436 30.159374 340.33124 29.628124Q340.1281 29.096874 339.59686 28.784374Q339.08124 28.471874 338.3781 28.471874Q337.2531 28.471874 336.4406 29.190624Q335.6281 29.89375 335.6281 31.878124L335.6281 37.55L333.8625 37.55ZM347.15936 34.01875Q347.14374 33.675 347.14374 33.503124Q347.14374 32.45625 347.4406 31.70625Q347.65936 31.14375 348.14374 30.565624Q348.4875 30.14375 349.39374 29.346874Q350.3156 28.534374 350.58124 28.065624Q350.8625 27.58125 350.8625 27.01875Q350.8625 25.9875 350.05 25.221874Q349.2531 24.440624 348.09686 24.440624Q346.97186 24.440624 346.22186 25.14375Q345.47186 25.846874 345.2375 27.33125L343.425 27.1125Q343.675 25.1125 344.8781 24.05Q346.08124 22.9875 348.0656 22.9875Q350.175 22.9875 351.425 24.128124Q352.675 25.26875 352.675 26.89375Q352.675 27.83125 352.22186 28.628124Q351.78436 29.409374 350.5031 30.55Q349.64374 31.315624 349.3781 31.675Q349.1281 32.034374 348.9875 32.503124Q348.8625 32.971874 348.84686 34.01875L347.15936 34.01875ZM347.05 37.55L347.05 35.55L349.05 35.55L349.05 37.55L347.05 37.55Z" fill-rule="nonzero"/></svg>