<svg version="1.1" viewBox="0.0 0.0 600.0 371.0" fill="none" stroke="none" stroke-linecap="square" stroke-miterlimit="10" width="600" height="371" xmlns:xlink="http://www.w3.org/1999/xlink" xmlns="http://www.w3.org/2000/svg"><path fill="#272729" d="M0 0L600.0 0L600.0 371.0L0 371.0L0 0Z" fill-rule="nonzero"/><path fill="#4285f4" d="M300.0 54.916668C374.8806 54.916668 435.58334 115.61939 435.58334 190.5C435.58334 265.3806 374.8806 326.08334 300.0 326.08334C225.1194 326.08334 164.41667 265.3806 164.41667 190.5C164.41667 115.61939 225.1194 54.916668 300.0 54.916668L300.0 190.5Z" fill-rule="nonzero"/><path fill="#ffffff" d="M282.51562 195.5L280.59375 195.5L280.59375 188.26562Q279.53125 189.25 278.10938 189.71875L278.10938 187.96875Q278.85938 187.73438 279.73438 187.04688Q280.625 186.35938 280.95312 185.4375L282.51562 185.4375L282.51562 195.5ZM288.84375 185.4375Q290.29688 185.4375 291.125 186.46875Q292.09375 187.70312 292.09375 190.5625Q292.09375 193.40625 291.10938 194.64062Q290.29688 195.67188 288.84375 195.67188Q287.375 195.67188 286.48438 194.54688Q285.59375 193.42188 285.59375 190.53125Q285.59375 187.70312 286.57812 186.46875Q287.39062 185.4375 288.84375 185.4375ZM288.84375 187.03125Q288.5 187.03125 288.21875 187.25Q287.95312 187.46875 287.79688 188.04688Q287.59375 188.79688 287.59375 190.5625Q287.59375 192.32812 287.76562 192.98438Q287.95312 193.64062 288.21875 193.85938Q288.5 194.07812 288.84375 194.07812Q289.1875 194.07812 289.45312 193.85938Q289.73438 193.64062 289.89062 193.0625Q290.09375 192.32812 290.09375 190.5625Q290.09375 188.79688 289.90625 188.14062Q289.73438 187.46875 289.45312 187.25Q289.1875 187.03125 288.84375 187.03125ZM296.84375 185.4375Q298.29688 185.4375 299.125 186.46875Q300.09375 187.70312 300.09375 190.5625Q300.09375 193.40625 299.10938 194.64062Q298.29688 195.67188 296.84375 195.67188Q295.375 195.67188 294.48438 194.54688Q293.59375 193.42188 293.59375 190.53125Q293.59375 187.70312 294.57812 186.46875Q295.39062 185.4375 296.84375 185.4375ZM296.84375 187.03125Q296.5 187.03125 296.21875 187.25Q295.95312 187.46875 295.79688 188.04688Q295.59375 188.79688 295.59375 190.5625Q295.59375 192.32812 295.76562 192.98438Q295.95312 193.64062 296.21875 193.85938Q296.5 194.07812 296.84375 194.07812Q297.1875 194.07812 297.45312 193.85938Q297.73438 193.64062 297.89062 193.0625Q298.09375 192.32812 298.09375 190.5625Q298.09375 188.79688 297.90625 188.14062Q297.73438 187.46875 297.45312 187.25Q297.1875 187.03125 296.84375 187.03125ZM302.0 195.5L302.0 193.57812L303.92188 193.57812L303.92188 195.5L302.0 195.5ZM308.84375 185.4375Q310.29688 185.4375 311.125 186.46875Q312.09375 187.70312 312.09375 190.5625Q312.09375 193.40625 311.10938 194.64062Q310.29688 195.67188 308.84375 195.67188Q307.375 195.67188 306.48438 194.54688Q305.59375 193.42188 305.59375 190.53125Q305.59375 187.70312 306.57812 186.46875Q307.39062 185.4375 308.84375 185.4375ZM308.84375 187.03125Q308.5 187.03125 308.21875 187.25Q307.95312 187.46875 307.79688 188.04688Q307.59375 188.79688 307.59375 190.5625Q307.59375 192.32812 307.76562 192.98438Q307.95312 193.64062 308.21875 193.85938Q308.5 194.07812 308.84375 194.07812Q309.1875 194.07812 309.45312 193.85938Q309.73438 193.64062 309.89062 193.0625Q310.09375 192.32812 310.09375 190.5625Q310.09375 188.79688 309.90625 188.14062Q309.73438 187.46875 309.45312 187.25Q309.1875 187.03125 308.84375 187.03125ZM313.60938 187.95312Q313.60938 186.60938 314.20312 185.96875Q314.79688 185.3125 315.79688 185.3125Q316.84375 185.3125 317.4375 185.95312Q318.03125 186.59375 318.03125 187.95312Q318.03125 189.29688 317.4375 189.95312Q316.84375 190.59375 315.84375 190.59375Q314.79688 190.59375 314.20312 189.95312Q313.60938 189.3125 313.60938 187.95312ZM315.10938 187.9375Q315.10938 188.92188 315.32812 189.25Q315.5 189.5 315.79688 189.5Q316.10938 189.5 316.28125 189.25Q316.5 188.92188 316.5 187.9375Q316.5 186.96875 316.28125 186.64062Q316.10938 186.375 315.79688 186.375Q315.5 186.375 315.32812 186.625Q315.10938 186.96875 315.10938 187.9375ZM317.26562 195.89062L315.84375 195.89062L321.1875 185.3125L322.5625 185.3125L317.26562 195.89062ZM320.375 193.25Q320.375 191.90625 320.95312 191.26562Q321.54688 190.60938 322.57812 190.60938Q323.60938 190.60938 324.20312 191.26562Q324.79688 191.90625 324.79688 193.25Q324.79688 194.60938 324.20312 195.26562Q323.60938 195.90625 322.59375 195.90625Q321.54688 195.90625 320.95312 195.26562Q320.375 194.60938 320.375 193.25ZM321.85938 193.25Q321.85938 194.21875 322.09375 194.54688Q322.26562 194.79688 322.5625 194.79688Q322.875 194.79688 323.03125 194.5625Q323.26562 194.21875 323.26562 193.25Q323.26562 192.26562 323.04688 191.9375Q322.875 191.6875 322.5625 191.6875Q322.25 191.6875 322.09375 191.9375Q321.85938 192.26562 321.85938 193.25Z" fill-rule="nonzero"/><path fill="#4285f4" d="M291.5 345.45C291.5 348.7637 288.81372 351.45 285.5 351.45C282.18628 351.45 279.5 348.7637 279.5 345.45C279.5 342.1363 282.18628 339.45 285.5 339.45C288.81372 339.45 291.5 342.1363 291.5 345.45Z" fill-rule="nonzero"/><path fill="#ffffff" d="M302.625 349.45L302.625 345.84064L299.48438 340.85626L301.51562 340.85626L303.53125 344.2625L305.51562 340.85626L307.51562 340.85626L304.35938 345.84064L304.35938 349.45L302.625 349.45ZM310.96875 347.46564L312.60938 347.7469Q312.29688 348.65314 311.60938 349.1219Q310.92188 349.59064 309.90625 349.59064Q308.28125 349.59064 307.5 348.52814Q306.875 347.6844 306.875 346.3875Q306.875 344.84064 307.6875 343.96564Q308.5 343.09064 309.73438 343.09064Q311.125 343.09064 311.92188 344.0125Q312.73438 344.91876 312.6875 346.8094L308.5625 346.8094Q308.59375 347.54376 308.96875 347.95Q309.34375 348.35626 309.92188 348.35626Q310.29688 348.35626 310.5625 348.15314Q310.82812 347.9344 310.96875 347.46564ZM311.0625 345.8094Q311.04688 345.09064 310.6875 344.71564Q310.34375 344.34064 309.82812 344.34064Q309.29688 344.34064 308.9375 344.73126Q308.59375 345.1375 308.59375 345.8094L311.0625 345.8094ZM313.78125 347.66876L315.4375 347.41876Q315.54688 347.90314 315.85938 348.15314Q316.1875 348.40314 316.76562 348.40314Q317.40625 348.40314 317.71875 348.16876Q317.9375 347.9969 317.9375 347.73126Q317.9375 347.54376 317.82812 347.41876Q317.70312 347.29376 317.28125 347.2Q315.28125 346.7625 314.75 346.40314Q314.01562 345.8875 314.01562 344.9969Q314.01562 344.1844 314.64062 343.6375Q315.28125 343.09064 316.625 343.09064Q317.90625 343.09064 318.53125 343.5125Q319.15625 343.91876 319.39062 344.73126L317.82812 345.0125Q317.73438 344.65314 317.45312 344.46564Q317.17188 344.2625 316.65625 344.2625Q316.01562 344.2625 315.73438 344.45Q315.54688 344.575 315.54688 344.77814Q315.54688 344.96564 315.70312 345.09064Q315.92188 345.2469 317.23438 345.54376Q318.5625 345.84064 319.07812 346.27814Q319.59375 346.71564 319.59375 347.4969Q319.59375 348.35626 318.875 348.98126Q318.17188 349.59064 316.76562 349.59064Q315.5 349.59064 314.75 349.075Q314.01562 348.5594 313.78125 347.66876Z" fill-rule="nonzero"/><path fill="#ffffff" d="M22.596874 37.55L18.8 23.2375L20.7375 23.2375L22.909374 32.6125Q23.26875 34.096874 23.51875 35.55Q24.065624 33.253124 24.159374 32.89375L26.89375 23.2375L29.175 23.2375L31.221874 30.471874Q32.003124 33.175 32.346874 35.55Q32.6125 34.190624 33.05 32.425L35.3 23.2375L37.20625 23.2375L33.284374 37.55L31.45625 37.55L28.440624 26.64375Q28.05 25.26875 27.9875 24.95625Q27.753124 25.940624 27.565624 26.64375L24.534374 37.55L22.596874 37.55ZM45.64375 36.26875Q44.659374 37.096874 43.753124 37.440624Q42.846874 37.784374 41.815624 37.784374Q40.1125 37.784374 39.190624 36.95625Q38.26875 36.1125 38.26875 34.815624Q38.26875 34.05 38.6125 33.425Q38.971874 32.8 39.534374 32.425Q40.096874 32.034374 40.8 31.83125Q41.315624 31.70625 42.3625 31.565624Q44.4875 31.315624 45.4875 30.971874Q45.503124 30.6125 45.503124 30.503124Q45.503124 29.440624 45.003124 28.9875Q44.33125 28.39375 43.003124 28.39375Q41.753124 28.39375 41.159374 28.83125Q40.58125 29.26875 40.3 30.378124L38.58125 30.14375Q38.815624 29.034374 39.346874 28.3625Q39.878124 27.675 40.89375 27.315624Q41.909374 26.940624 43.253124 26.940624Q44.58125 26.940624 45.409374 27.253124Q46.2375 27.565624 46.628124 28.05Q47.01875 28.51875 47.175 29.2375Q47.26875 29.690624 47.26875 30.8625L47.26875 33.20625Q47.26875 35.659374 47.378124 36.315624Q47.4875 36.95625 47.83125 37.55L45.9875 37.55Q45.721874 37.003124 45.64375 36.26875ZM45.4875 32.346874Q44.534374 32.7375 42.6125 33.003124Q41.534374 33.159374 41.08125 33.3625Q40.64375 33.55 40.39375 33.925Q40.14375 34.3 40.14375 34.76875Q40.14375 35.471874 40.675 35.940624Q41.20625 36.409374 42.2375 36.409374Q43.253124 36.409374 44.034374 35.971874Q44.83125 35.51875 45.20625 34.753124Q45.4875 34.14375 45.4875 32.9875L45.4875 32.346874ZM49.159374 34.45625L50.909374 34.175Q51.05 35.221874 51.721874 35.784374Q52.39375 36.33125 53.596874 36.33125Q54.8 36.33125 55.378124 35.846874Q55.971874 35.346874 55.971874 34.690624Q55.971874 34.096874 55.45625 33.753124Q55.096874 33.51875 53.659374 33.159374Q51.721874 32.659374 50.971874 32.315624Q50.2375 31.95625 49.846874 31.33125Q49.45625 30.690624 49.45625 29.925Q49.45625 29.2375 49.76875 28.64375Q50.096874 28.05 50.64375 27.659374Q51.05 27.3625 51.753124 27.159374Q52.471874 26.940624 53.284374 26.940624Q54.503124 26.940624 55.425 27.3Q56.346874 27.64375 56.784374 28.253124Q57.221874 28.846874 57.39375 29.846874L55.675 30.08125Q55.55 29.284374 54.9875 28.846874Q54.425 28.39375 53.409374 28.39375Q52.190624 28.39375 51.675 28.8Q51.159374 29.190624 51.159374 29.721874Q51.159374 30.065624 51.378124 30.346874Q51.58125 30.628124 52.05 30.815624Q52.315624 30.909374 53.596874 31.253124Q55.471874 31.753124 56.20625 32.08125Q56.940624 32.39375 57.3625 33.003124Q57.784374 33.596874 57.784374 34.503124Q57.784374 35.378124 57.26875 36.159374Q56.753124 36.940624 55.784374 37.3625Q54.815624 37.784374 53.596874 37.784374Q51.58125 37.784374 50.51875 36.940624Q49.45625 36.096874 49.159374 34.45625ZM65.22188 32.3625Q65.22188 29.4875 66.81563 28.096874Q68.15938 26.940624 70.08125 26.940624Q72.22188 26.940624 73.56563 28.346874Q74.925 29.753124 74.925 32.221874Q74.925 34.221874 74.33125 35.378124Q73.7375 36.51875 72.58125 37.159374Q71.44063 37.784374 70.08125 37.784374Q67.89375 37.784374 66.55 36.39375Q65.22188 34.9875 65.22188 32.3625ZM67.01875 32.3625Q67.01875 34.3625 67.87813 35.346874Q68.75313 36.33125 70.08125 36.33125Q71.39375 36.33125 72.25313 35.346874Q73.12813 34.346874 73.12813 32.3Q73.12813 30.378124 72.25313 29.39375Q71.37813 28.39375 70.08125 28.39375Q68.75313 28.39375 67.87813 29.39375Q67.01875 30.378124 67.01875 32.3625ZM83.65938 37.55L83.65938 36.01875Q82.45625 37.784374 80.37813 37.784374Q79.45625 37.784374 78.65938 37.440624Q77.8625 37.08125 77.47188 36.55Q77.09688 36.01875 76.94063 35.2375Q76.83125 34.721874 76.83125 33.596874L76.83125 27.175L78.58125 27.175L78.58125 32.925Q78.58125 34.3 78.69063 34.784374Q78.8625 35.471874 79.39375 35.878124Q79.94063 36.26875 80.72188 36.26875Q81.51875 36.26875 82.20625 35.8625Q82.90938 35.45625 83.19063 34.76875Q83.4875 34.065624 83.4875 32.7375L83.4875 27.175L85.2375 27.175L85.2375 37.55L83.65938 37.55ZM86.84688 37.55L86.84688 27.175L88.425 27.175L88.425 28.753124Q89.03438 27.64375 89.55 27.3Q90.06563 26.940624 90.675 26.940624Q91.56563 26.940624 92.4875 27.503124L91.87813 29.14375Q91.2375 28.753124 90.59688 28.753124Q90.01875 28.753124 89.55 29.1125Q89.09688 29.45625 88.89375 30.065624Q88.6125 31.003124 88.6125 32.1125L88.6125 37.55L86.84688 37.55ZM99.83125 37.55L99.83125 23.2375L101.58125 23.2375L101.58125 37.55L99.83125 37.55ZM103.87813 25.253124L103.87813 23.2375L105.64375 23.2375L105.64375 25.253124L103.87813 25.253124ZM103.87813 37.55L103.87813 27.175L105.64375 27.175L105.64375 37.55L103.87813 37.55ZM110.75313 37.55L106.8 27.175L108.65938 27.175L110.89375 33.39375Q111.25313 34.39375 111.55 35.471874Q111.78438 34.659374 112.20625 33.503124L114.50313 27.175L116.31563 27.175L112.39375 37.55L110.75313 37.55ZM123.97188 34.20625L125.78438 34.440624Q125.3625 36.01875 124.19063 36.909374Q123.03438 37.784374 121.22188 37.784374Q118.95625 37.784374 117.6125 36.39375Q116.28438 34.9875 116.28438 32.45625Q116.28438 29.83125 117.62813 28.39375Q118.97188 26.940624 121.12813 26.940624Q123.20625 26.940624 124.51875 28.3625Q125.84688 29.76875 125.84688 32.346874Q125.84688 32.503124 125.83125 32.815624L118.09688 32.815624Q118.19063 34.51875 119.06563 35.425Q119.94063 36.33125 121.2375 36.33125Q122.20625 36.33125 122.87813 35.83125Q123.56563 35.315624 123.97188 34.20625ZM118.19063 31.3625L123.9875 31.3625Q123.87813 30.065624 123.33125 29.409374Q122.4875 28.39375 121.14375 28.39375Q119.94063 28.39375 119.1125 29.20625Q118.28438 30.003124 118.19063 31.3625ZM133.15938 34.45625L134.90938 34.175Q135.05 35.221874 135.72188 35.784374Q136.39375 36.33125 137.59688 36.33125Q138.8 36.33125 139.37813 35.846874Q139.97188 35.346874 139.97188 34.690624Q139.97188 34.096874 139.45625 33.753124Q139.09688 33.51875 137.65938 33.159374Q135.72188 32.659374 134.97188 32.315624Q134.2375 31.95625 133.84688 31.33125Q133.45625 30.690624 133.45625 29.925Q133.45625 29.2375 133.76875 28.64375Q134.09688 28.05 134.64375 27.659374Q135.05 27.3625 135.75313 27.159374Q136.47188 26.940624 137.28438 26.940624Q138.50313 26.940624 139.425 27.3Q140.34688 27.64375 140.78438 28.253124Q141.22188 28.846874 141.39375 29.846874L139.675 30.08125Q139.55 29.284374 138.9875 28.846874Q138.425 28.39375 137.40938 28.39375Q136.19063 28.39375 135.675 28.8Q135.15938 29.190624 135.15938 29.721874Q135.15938 30.065624 135.37813 30.346874Q135.58125 30.628124 136.05 30.815624Q136.31563 30.909374 137.59688 31.253124Q139.47188 31.753124 140.20625 32.08125Q140.94063 32.39375 141.3625 33.003124Q141.78438 33.596874 141.78438 34.503124Q141.78438 35.378124 141.26875 36.159374Q140.75313 36.940624 139.78438 37.3625Q138.81563 37.784374 137.59688 37.784374Q135.58125 37.784374 134.51875 36.940624Q133.45625 36.096874 133.15938 34.45625ZM147.70625 35.971874L147.95625 37.534374Q147.22188 37.690624 146.62813 37.690624Q145.675 37.690624 145.14375 37.39375Q144.62813 37.08125 144.40938 36.596874Q144.19063 36.096874 144.19063 34.51875L144.19063 28.55L142.90938 28.55L142.90938 27.175L144.19063 27.175L144.19063 24.6125L145.94063 23.55L145.94063 27.175L147.70625 27.175L147.70625 28.55L145.94063 28.55L145.94063 34.6125Q145.94063 35.3625 146.03438 35.58125Q146.12813 35.784374 146.33125 35.925Q146.55 36.05 146.94063 36.05Q147.22188 36.05 147.70625 35.971874ZM149.84688 37.55L149.84688 27.175L151.425 27.175L151.425 28.753124Q152.03438 27.64375 152.55 27.3Q153.06563 26.940624 153.675 26.940624Q154.56563 26.940624 155.4875 27.503124L154.87813 29.14375Q154.2375 28.753124 153.59688 28.753124Q153.01875 28.753124 152.55 29.1125Q152.09688 29.45625 151.89375 30.065624Q151.6125 31.003124 151.6125 32.1125L151.6125 37.55L149.84688 37.55ZM163.97188 34.20625L165.78438 34.440624Q165.3625 36.01875 164.19063 36.909374Q163.03438 37.784374 161.22188 37.784374Q158.95625 37.784374 157.6125 36.39375Q156.28438 34.9875 156.28438 32.45625Q156.28438 29.83125 157.62813 28.39375Q158.97188 26.940624 161.12813 26.940624Q163.20625 26.940624 164.51875 28.3625Q165.84688 29.76875 165.84688 32.346874Q165.84688 32.503124 165.83125 32.815624L158.09688 32.815624Q158.19063 34.51875 159.06563 35.425Q159.94063 36.33125 161.2375 36.33125Q162.20625 36.33125 162.87813 35.83125Q163.56563 35.315624 163.97188 34.20625ZM158.19063 31.3625L163.9875 31.3625Q163.87813 30.065624 163.33125 29.409374Q162.4875 28.39375 161.14375 28.39375Q159.94063 28.39375 159.1125 29.20625Q158.28438 30.003124 158.19063 31.3625ZM174.64375 36.26875Q173.65938 37.096874 172.75313 37.440624Q171.84688 37.784374 170.81563 37.784374Q169.1125 37.784374 168.19063 36.95625Q167.26875 36.1125 167.26875 34.815624Q167.26875 34.05 167.6125 33.425Q167.97188 32.8 168.53438 32.425Q169.09688 32.034374 169.8 31.83125Q170.31563 31.70625 171.3625 31.565624Q173.4875 31.315624 174.4875 30.971874Q174.50313 30.6125 174.50313 30.503124Q174.50313 29.440624 174.00313 28.9875Q173.33125 28.39375 172.00313 28.39375Q170.75313 28.39375 170.15938 28.83125Q169.58125 29.26875 169.3 30.378124L167.58125 30.14375Q167.81563 29.034374 168.34688 28.3625Q168.87813 27.675 169.89375 27.315624Q170.90938 26.940624 172.25313 26.940624Q173.58125 26.940624 174.40938 27.253124Q175.2375 27.565624 175.62813 28.05Q176.01875 28.51875 176.175 29.2375Q176.26875 29.690624 176.26875 30.8625L176.26875 33.20625Q176.26875 35.659374 176.37813 36.315624Q176.4875 36.95625 176.83125 37.55L174.9875 37.55Q174.72188 37.003124 174.64375 36.26875ZM174.4875 32.346874Q173.53438 32.7375 171.6125 33.003124Q170.53438 33.159374 170.08125 33.3625Q169.64375 33.55 169.39375 33.925Q169.14375 34.3 169.14375 34.76875Q169.14375 35.471874 169.675 35.940624Q170.20625 36.409374 171.2375 36.409374Q172.25313 36.409374 173.03438 35.971874Q173.83125 35.51875 174.20625 34.753124Q174.4875 34.14375 174.4875 32.9875L174.4875 32.346874ZM178.8625 37.55L178.8625 27.175L180.44063 27.175L180.44063 28.628124Q180.925 27.878124 181.7375 27.409374Q182.55 26.940624 183.58125 26.940624Q184.7375 26.940624 185.47188 27.425Q186.20625 27.89375 186.51875 28.753124Q187.75313 26.940624 189.72188 26.940624Q191.26875 26.940624 192.09688 27.8Q192.925 28.659374 192.925 30.425L192.925 37.55L191.175 37.55L191.175 31.01875Q191.175 29.95625 191.00313 29.503124Q190.83125 29.034374 190.37813 28.753124Q189.94063 28.471874 189.33125 28.471874Q188.2375 28.471874 187.50313 29.20625Q186.78438 29.925 186.78438 31.51875L186.78438 37.55L185.03438 37.55L185.03438 30.815624Q185.03438 29.64375 184.59688 29.065624Q184.175 28.471874 183.19063 28.471874Q182.45625 28.471874 181.81563 28.8625Q181.19063 29.253124 180.90938 30.003124Q180.62813 30.753124 180.62813 32.175L180.62813 37.55L178.8625 37.55ZM207.64375 36.26875Q206.65938 37.096874 205.75313 37.440624Q204.84688 37.784374 203.81563 37.784374Q202.1125 37.784374 201.19063 36.95625Q200.26875 36.1125 200.26875 34.815624Q200.26875 34.05 200.6125 33.425Q200.97188 32.8 201.53438 32.425Q202.09688 32.034374 202.8 31.83125Q203.31563 31.70625 204.3625 31.565624Q206.4875 31.315624 207.4875 30.971874Q207.50313 30.6125 207.50313 30.503124Q207.50313 29.440624 207.00313 28.9875Q206.33125 28.39375 205.00313 28.39375Q203.75313 28.39375 203.15938 28.83125Q202.58125 29.26875 202.3 30.378124L200.58125 30.14375Q200.81563 29.034374 201.34688 28.3625Q201.87813 27.675 202.89375 27.315624Q203.90938 26.940624 205.25313 26.940624Q206.58125 26.940624 207.40938 27.253124Q208.2375 27.565624 208.62813 28.05Q209.01875 28.51875 209.175 29.2375Q209.26875 29.690624 209.26875 30.8625L209.26875 33.20625Q209.26875 35.659374 209.37813 36.315624Q209.4875 36.95625 209.83125 37.55L207.9875 37.55Q207.72188 37.003124 207.64375 36.26875ZM207.4875 32.346874Q206.53438 32.7375 204.6125 33.003124Q203.53438 33.159374 203.08125 33.3625Q202.64375 33.55 202.39375 33.925Q202.14375 34.3 202.14375 34.76875Q202.14375 35.471874 202.675 35.940624Q203.20625 36.409374 204.2375 36.409374Q205.25313 36.409374 206.03438 35.971874Q206.83125 35.51875 207.20625 34.753124Q207.4875 34.14375 207.4875 32.9875L207.4875 32.346874ZM213.4875 37.55L211.8625 37.55L211.8625 23.2375L213.6125 23.2375L213.6125 28.346874Q214.7375 26.940624 216.45625 26.940624Q217.40938 26.940624 218.26875 27.33125Q219.12813 27.721874 219.675 28.425Q220.22188 29.1125 220.53438 30.096874Q220.84688 31.08125 220.84688 32.20625Q220.84688 34.878124 219.53438 36.33125Q218.22188 37.784374 216.37813 37.784374Q214.53438 37.784374 213.4875 36.253124L213.4875 37.55ZM213.47188 32.284374Q213.47188 34.14375 213.97188 34.9875Q214.81563 36.33125 216.22188 36.33125Q217.37813 36.33125 218.20625 35.33125Q219.05 34.33125 219.05 32.346874Q219.05 30.315624 218.2375 29.3625Q217.44063 28.39375 216.3 28.39375Q215.14375 28.39375 214.3 29.39375Q213.47188 30.39375 213.47188 32.284374ZM222.83125 37.55L222.83125 23.2375L224.58125 23.2375L224.58125 37.55L222.83125 37.55ZM233.97188 34.20625L235.78438 34.440624Q235.3625 36.01875 234.19063 36.909374Q233.03438 37.784374 231.22188 37.784374Q228.95625 37.784374 227.6125 36.39375Q226.28438 34.9875 226.28438 32.45625Q226.28438 29.83125 227.62813 28.39375Q228.97188 26.940624 231.12813 26.940624Q233.20625 26.940624 234.51875 28.3625Q235.84688 29.76875 235.84688 32.346874Q235.84688 32.503124 235.83125 32.815624L228.09688 32.815624Q228.19063 34.51875 229.06563 35.425Q229.94063 36.33125 231.2375 36.33125Q232.20625 36.33125 232.87813 35.83125Q233.56563 35.315624 233.97188 34.20625ZM228.19063 31.3625L233.9875 31.3625Q233.87813 30.065624 233.33125 29.409374Q232.4875 28.39375 231.14375 28.39375Q229.94063 28.39375 229.1125 29.20625Q228.28438 30.003124 228.19063 31.3625ZM247.70625 35.971874L247.95625 37.534374Q247.22188 37.690624 246.62813 37.690624Q245.675 37.690624 245.14375 37.39375Q244.62813 37.08125 244.40938 36.596874Q244.19063 36.096874 244.19063 34.51875L244.19063 28.55L242.90938 28.55L242.90938 27.175L244.19063 27.175L244.19063 24.6125L245.94063 23.55L245.94063 27.175L247.70625 27.175L247.70625 28.55L245.94063 28.55L245.94063 34.6125Q245.94063 35.3625 246.03438 35.58125Q246.12813 35.784374 246.33125 35.925Q246.55 36.05 246.94063 36.05Q247.22188 36.05 247.70625 35.971874ZM249.22188 32.3625Q249.22188 29.4875 250.81563 28.096874Q252.15938 26.940624 254.08125 26.940624Q256.22186 26.940624 257.5656 28.346874Q258.925 29.753124 258.925 32.221874Q258.925 34.221874 258.33124 35.378124Q257.7375 36.51875 256.58124 37.159374Q255.44063 37.784374 254.08125 37.784374Q251.89375 37.784374 250.55 36.39375Q249.22188 34.9875 249.22188 32.3625ZM251.01875 32.3625Q251.01875 34.3625 251.87813 35.346874Q252.75313 36.33125 254.08125 36.33125Q255.39375 36.33125 256.2531 35.346874Q257.1281 34.346874 257.1281 32.3Q257.1281 30.378124 256.2531 29.39375Q255.37813 28.39375 254.08125 28.39375Q252.75313 28.39375 251.87813 29.39375Q251.01875 30.378124 251.01875 32.3625ZM266.84686 37.55L266.84686 27.175L268.425 27.175L268.425 28.753124Q269.03436 27.64375 269.55 27.3Q270.0656 26.940624 270.675 26.940624Q271.5656 26.940624 272.4875 27.503124L271.8781 29.14375Q271.2375 28.753124 270.59686 28.753124Q270.01874 28.753124 269.55 29.1125Q269.09686 29.45625 268.89374 30.065624Q268.6125 31.003124 268.6125 32.1125L268.6125 37.55L266.84686 37.55ZM280.97186 34.20625L282.78436 34.440624Q282.3625 36.01875 281.1906 36.909374Q280.03436 37.784374 278.22186 37.784374Q275.95624 37.784374 274.6125 36.39375Q273.28436 34.9875 273.28436 32.45625Q273.28436 29.83125 274.6281 28.39375Q275.97186 26.940624 278.1281 26.940624Q280.20624 26.940624 281.51874 28.3625Q282.84686 29.76875 282.84686 32.346874Q282.84686 32.503124 282.83124 32.815624L275.09686 32.815624Q275.1906 34.51875 276.0656 35.425Q276.9406 36.33125 278.2375 36.33125Q279.20624 36.33125 279.8781 35.83125Q280.5656 35.315624 280.97186 34.20625ZM275.1906 31.3625L280.9875 31.3625Q280.8781 30.065624 280.33124 29.409374Q279.4875 28.39375 278.14374 28.39375Q276.9406 28.39375 276.1125 29.20625Q275.28436 30.003124 275.1906 31.3625ZM291.64374 36.26875Q290.65936 37.096874 289.7531 37.440624Q288.84686 37.784374 287.8156 37.784374Q286.1125 37.784374 285.1906 36.95625Q284.26874 36.1125 284.26874 34.815624Q284.26874 34.05 284.6125 33.425Q284.97186 32.8 285.53436 32.425Q286.09686 32.034374 286.8 31.83125Q287.3156 31.70625 288.3625 31.565624Q290.4875 31.315624 291.4875 30.971874Q291.5031 30.6125 291.5031 30.503124Q291.5031 29.440624 291.0031 28.9875Q290.33124 28.39375 289.0031 28.39375Q287.7531 28.39375 287.15936 28.83125Q286.58124 29.26875 286.3 30.378124L284.58124 30.14375Q284.8156 29.034374 285.34686 28.3625Q285.8781 27.675 286.89374 27.315624Q287.90936 26.940624 289.2531 26.940624Q290.58124 26.940624 291.40936 27.253124Q292.2375 27.565624 292.6281 28.05Q293.01874 28.51875 293.175 29.2375Q293.26874 29.690624 293.26874 30.8625L293.26874 33.20625Q293.26874 35.659374 293.3781 36.315624Q293.4875 36.95625 293.83124 37.55L291.9875 37.55Q291.72186 37.003124 291.64374 36.26875ZM291.4875 32.346874Q290.53436 32.7375 288.6125 33.003124Q287.53436 33.159374 287.08124 33.3625Q286.64374 33.55 286.39374 33.925Q286.14374 34.3 286.14374 34.76875Q286.14374 35.471874 286.675 35.940624Q287.20624 36.409374 288.2375 36.409374Q289.2531 36.409374 290.03436 35.971874Q290.83124 35.51875 291.20624 34.753124Q291.4875 34.14375 291.4875 32.9875L291.4875 32.346874ZM302.64374 33.753124L304.3625 33.971874Q304.08124 35.76875 302.90936 36.784374Q301.7531 37.784374 300.05 37.784374Q297.925 37.784374 296.6281 36.39375Q295.33124 35.003124 295.33124 32.409374Q295.33124 30.721874 295.8781 29.471874Q296.4406 28.20625 297.58124 27.58125Q298.72186 26.940624 300.0656 26.940624Q301.7531 26.940624 302.8156 27.8Q303.89374 28.659374 304.20624 30.221874L302.4875 30.4875Q302.2531 29.440624 301.6281 28.925Q301.0031 28.39375 300.1281 28.39375Q298.8 28.39375 297.97186 29.346874Q297.14374 30.3 297.14374 32.346874Q297.14374 34.440624 297.9406 35.39375Q298.7375 36.33125 300.03436 36.33125Q301.0656 36.33125 301.7531 35.70625Q302.45624 35.065624 302.64374 33.753124ZM305.8625 37.55L305.8625 23.2375L307.6281 23.2375L307.6281 28.3625Q308.8625 26.940624 310.7375 26.940624Q311.8781 26.940624 312.72186 27.39375Q313.58124 27.846874 313.9406 28.659374Q314.3156 29.45625 314.3156 30.971874L314.3156 37.55L312.5656 37.55L312.5656 30.971874Q312.5656 29.659374 311.9875 29.065624Q311.40936 28.45625 310.3781 28.45625Q309.59686 28.45625 308.89374 28.8625Q308.20624 29.26875 307.90936 29.971874Q307.6281 30.659374 307.6281 31.878124L307.6281 37.55L305.8625 37.55ZM321.78436 41.55L321.59686 39.89375Q322.175 40.05 322.59686 40.05Q323.1906 40.05 323.53436 39.846874Q323.89374 39.659374 324.1125 39.315624Q324.28436 39.05 324.65936 38.003124Q324.70624 37.846874 324.8156 37.565624L320.8781 27.175L322.76874 27.175L324.925 33.190624Q325.34686 34.33125 325.675 35.58125Q325.9875 34.378124 326.39374 33.221874L328.6125 27.175L330.3781 27.175L326.425 37.721874Q325.8 39.440624 325.4406 40.08125Q324.97186 40.95625 324.3625 41.346874Q323.76874 41.753124 322.925 41.753124Q322.40936 41.753124 321.78436 41.55ZM331.22186 32.3625Q331.22186 29.4875 332.8156 28.096874Q334.15936 26.940624 336.08124 26.940624Q338.22186 26.940624 339.5656 28.346874Q340.925 29.753124 340.925 32.221874Q340.925 34.221874 340.33124 35.378124Q339.7375 36.51875 338.58124 37.159374Q337.4406 37.784374 336.08124 37.784374Q333.89374 37.784374 332.55 36.39375Q331.22186 34.9875 331.22186 32.3625ZM333.01874 32.3625Q333.01874 34.3625 333.8781 35.346874Q334.7531 36.33125 336.08124 36.33125Q337.39374 36.33125 338.2531 35.346874Q339.1281 34.346874 339.1281 32.3Q339.1281 30.378124 338.2531 29.39375Q337.3781 28.39375 336.08124 28.39375Q334.7531 28.39375 333.8781 29.39375Q333.01874 30.378124 333.01874 32.3625ZM349.65936 37.55L349.65936 36.01875Q348.45624 37.784374 346.3781 37.784374Q345.45624 37.784374 344.65936 37.440624Q343.8625 37.08125 343.47186 36.55Q343.09686 36.01875 342.9406 35.2375Q342.83124 34.721874 342.83124 33.596874L342.83124 27.175L344.58124 27.175L344.58124 32.925Q344.58124 34.3 344.6906 34.784374Q344.8625 35.471874 345.39374 35.878124Q345.9406 36.26875 346.72186 36.26875Q347.51874 36.26875 348.20624 35.8625Q348.90936 35.45625 349.1906 34.76875Q349.4875 34.065624 349.4875 32.7375L349.4875 27.175L351.2375 27.175L351.2375 37.55L349.65936 37.55ZM352.84686 37.55L352.84686 27.175L354.425 27.175L354.425 28.753124Q355.03436 27.64375 355.55 27.3Q356.0656 26.940624 356.675 26.940624Q357.5656 26.940624 358.4875 27.503124L357.8781 29.14375Q357.2375 28.753124 356.59686 28.753124Q356.01874 28.753124 355.55 29.1125Q355.09686 29.45625 354.89374 30.065624Q354.6125 31.003124 354.6125 32.1125L354.6125 37.55L352.84686 37.55ZM372.97186 34.20625L374.78436 34.440624Q374.3625 36.01875 373.1906 36.909374Q372.03436 37.784374 370.22186 37.784374Q367.95624 37.784374 366.6125 36.39375Q365.28436 34.9875 365.28436 32.45625Q365.28436 29.83125 366.6281 28.39375Q367.97186 26.940624 370.1281 26.940624Q372.20624 26.940624 373.51874 28.3625Q374.84686 29.76875 374.84686 32.346874Q374.84686 32.503124 374.83124 32.815624L367.09686 32.815624Q367.1906 34.51875 368.0656 35.425Q368.9406 36.33125 370.2375 36.33125Q371.20624 36.33125 371.8781 35.83125Q372.5656 35.315624 372.97186 34.20625ZM367.1906 31.3625L372.9875 31.3625Q372.8781 30.065624 372.33124 29.409374Q371.4875 28.39375 370.14374 28.39375Q368.9406 28.39375 368.1125 29.20625Q367.28436 30.003124 367.1906 31.3625ZM375.6906 37.55L379.4875 32.159374L375.9875 27.175L378.175 27.175L379.76874 29.6125Q380.22186 30.3 380.4875 30.76875Q380.925 30.128124 381.28436 29.628124L383.03436 27.175L385.1281 27.175L381.55 32.065624L385.40936 37.55L383.2531 37.55L381.1125 34.33125L380.55 33.45625L377.83124 37.55L375.6906 37.55ZM385.8625 41.51875L385.8625 27.175L387.47186 27.175L387.47186 28.51875Q388.03436 27.7375 388.7375 27.346874Q389.45624 26.940624 390.47186 26.940624Q391.8 26.940624 392.8156 27.628124Q393.83124 28.315624 394.34686 29.565624Q394.8781 30.8 394.8781 32.284374Q394.8781 33.878124 394.3 35.159374Q393.7375 36.425 392.64374 37.1125Q391.55 37.784374 390.34686 37.784374Q389.47186 37.784374 388.76874 37.409374Q388.08124 37.034374 387.6281 36.471874L387.6281 41.51875L385.8625 41.51875ZM387.45624 32.425Q387.45624 34.425 388.26874 35.378124Q389.08124 36.33125 390.2375 36.33125Q391.40936 36.33125 392.2375 35.346874Q393.08124 34.3625 393.08124 32.26875Q393.08124 30.3 392.2531 29.315624Q391.4406 28.315624 390.3156 28.315624Q389.1906 28.315624 388.3156 29.378124Q387.45624 30.425 387.45624 32.425ZM403.97186 34.20625L405.78436 34.440624Q405.3625 36.01875 404.1906 36.909374Q403.03436 37.784374 401.22186 37.784374Q398.95624 37.784374 397.6125 36.39375Q396.28436 34.9875 396.28436 32.45625Q396.28436 29.83125 397.6281 28.39375Q398.97186 26.940624 401.1281 26.940624Q403.20624 26.940624 404.51874 28.3625Q405.84686 29.76875 405.84686 32.346874Q405.84686 32.503124 405.83124 32.815624L398.09686 32.815624Q398.1906 34.51875 399.0656 35.425Q399.9406 36.33125 401.2375 36.33125Q402.20624 36.33125 402.8781 35.83125Q403.5656 35.315624 403.97186 34.20625ZM398.1906 31.3625L403.9875 31.3625Q403.8781 30.065624 403.33124 29.409374Q402.4875 28.39375 401.14374 28.39375Q399.9406 28.39375 399.1125 29.20625Q398.28436 30.003124 398.1906 31.3625ZM414.64374 33.753124L416.3625 33.971874Q416.08124 35.76875 414.90936 36.784374Q413.7531 37.784374 412.05 37.784374Q409.925 37.784374 408.6281 36.39375Q407.33124 35.003124 407.33124 32.409374Q407.33124 30.721874 407.8781 29.471874Q408.4406 28.20625 409.58124 27.58125Q410.72186 26.940624 412.0656 26.940624Q413.7531 26.940624 414.8156 27.8Q415.89374 28.659374 416.20624 30.221874L414.4875 30.4875Q414.2531 29.440624 413.6281 28.925Q413.0031 28.39375 412.1281 28.39375Q410.8 28.39375 409.97186 29.346874Q409.14374 30.3 409.14374 32.346874Q409.14374 34.440624 409.9406 35.39375Q410.7375 36.33125 412.03436 36.33125Q413.0656 36.33125 413.7531 35.70625Q414.45624 35.065624 414.64374 33.753124ZM421.70624 35.971874L421.95624 37.534374Q421.22186 37.690624 420.6281 37.690624Q419.675 37.690624 419.14374 37.39375Q418.6281 37.08125 418.40936 36.596874Q418.1906 36.096874 418.1906 34.51875L418.1906 28.55L416.90936 28.55L416.90936 27.175L418.1906 27.175L418.1906 24.6125L419.9406 23.55L419.9406 27.175L421.70624 27.175L421.70624 28.55L419.9406 28.55L419.9406 34.6125Q419.9406 35.3625 420.03436 35.58125Q420.1281 35.784374 420.33124 35.925Q420.55 36.05 420.9406 36.05Q421.22186 36.05 421.70624 35.971874ZM430.64374 36.26875Q429.65936 37.096874 428.7531 37.440624Q427.84686 37.784374 426.8156 37.784374Q425.1125 37.784374 424.1906 36.95625Q423.26874 36.1125 423.26874 34.815624Q423.26874 34.05 423.6125 33.425Q423.97186 32.8 424.53436 32.425Q425.09686 32.034374 425.8 31.83125Q426.3156 31.70625 427.3625 31.565624Q429.4875 31.315624 430.4875 30.971874Q430.5031 30.6125 430.5031 30.503124Q430.5031 29.440624 430.0031 28.9875Q429.33124 28.39375 428.0031 28.39375Q426.7531 28.39375 426.15936 28.83125Q425.58124 29.26875 425.3 30.378124L423.58124 30.14375Q423.8156 29.034374 424.34686 28.3625Q424.8781 27.675 425.89374 27.315624Q426.90936 26.940624 428.2531 26.940624Q429.58124 26.940624 430.40936 27.253124Q431.2375 27.565624 431.6281 28.05Q432.01874 28.51875 432.175 29.2375Q432.26874 29.690624 432.26874 30.8625L432.26874 33.20625Q432.26874 35.659374 432.3781 36.315624Q432.4875 36.95625 432.83124 37.55L430.9875 37.55Q430.72186 37.003124 430.64374 36.26875ZM430.4875 32.346874Q429.53436 32.7375 427.6125 33.003124Q426.53436 33.159374 426.08124 33.3625Q425.64374 33.55 425.39374 33.925Q425.14374 34.3 425.14374 34.76875Q425.14374 35.471874 425.675 35.940624Q426.20624 36.409374 427.2375 36.409374Q428.2531 36.409374 429.03436 35.971874Q429.83124 35.51875 430.20624 34.753124Q430.4875 34.14375 430.4875 32.9875L430.4875 32.346874ZM438.70624 35.971874L438.95624 37.534374Q438.22186 37.690624 437.6281 37.690624Q436.675 37.690624 436.14374 37.39375Q435.6281 37.08125 435.40936 36.596874Q435.1906 36.096874 435.1906 34.51875L435.1906 28.55L433.90936 28.55L433.90936 27.175L435.1906 27.175L435.1906 24.6125L436.9406 23.55L436.9406 27.175L438.70624 27.175L438.70624 28.55L436.9406 28.55L436.9406 34.6125Q436.9406 35.3625 437.03436 35.58125Q437.1281 35.784374 437.33124 35.925Q437.55 36.05 437.9406 36.05Q438.22186 36.05 438.70624 35.971874ZM440.8781 25.253124L440.8781 23.2375L442.64374 23.2375L442.64374 25.253124L440.8781 25.253124ZM440.8781 37.55L440.8781 27.175L442.64374 27.175L442.64374 37.55L440.8781 37.55ZM444.22186 32.3625Q444.22186 29.4875 445.8156 28.096874Q447.15936 26.940624 449.08124 26.940624Q451.22186 26.940624 452.5656 28.346874Q453.925 29.753124 453.925 32.221874Q453.925 34.221874 453.33124 35.378124Q452.7375 36.51875 451.58124 37.159374Q450.4406 37.784374 449.08124 37.784374Q446.89374 37.784374 445.55 36.39375Q444.22186 34.9875 444.22186 32.3625ZM446.01874 32.3625Q446.01874 34.3625 446.8781 35.346874Q447.7531 36.33125 449.08124 36.33125Q450.39374 36.33125 451.2531 35.346874Q452.1281 34.346874 452.1281 32.3Q452.1281 30.378124 451.2531 29.39375Q450.3781 28.39375 449.08124 28.39375Q447.7531 28.39375 446.8781 29.39375Q446.01874 30.378124 446.01874 32.3625ZM455.8625 37.55L455.8625 27.175L457.45624 27.175L457.45624 28.659374Q458.59686 26.940624 460.7531 26.940624Q461.6906 26.940624 462.47186 27.284374Q463.26874 27.6125 463.65936 28.159374Q464.05 28.70625 464.20624 29.45625Q464.3 29.95625 464.3 31.175L464.3 37.55L462.53436 37.55L462.53436 31.2375Q462.53436 30.159374 462.33124 29.628124Q462.1281 29.096874 461.59686 28.784374Q461.08124 28.471874 460.3781 28.471874Q459.2531 28.471874 458.4406 29.190624Q457.6281 29.89375 457.6281 31.878124L457.6281 37.55L455.8625 37.55ZM465.15936 34.45625L466.90936 34.175Q467.05 35.221874 467.72186 35.784374Q468.39374 36.33125 469.59686 36.33125Q470.8 36.33125 471.3781 35.846874Q471.97186 35.346874 471.97186 34.690624Q471.97186 34.096874 471.45624 33.753124Q471.09686 33.51875 469.65936 33.159374Q467.72186 32.659374 466.97186 32.315624Q466.2375 31.95625 465.84686 31.33125Q465.45624 30.690624 465.45624 29.925Q465.45624 29.2375 465.76874 28.64375Q466.09686 28.05 466.64374 27.659374Q467.05 27.3625 467.7531 27.159374Q468.47186 26.940624 469.28436 26.940624Q470.5031 26.940624 471.425 27.3Q472.34686 27.64375 472.78436 28.253124Q473.22186 28.846874 473.39374 29.846874L471.675 30.08125Q471.55 29.284374 470.9875 28.846874Q470.425 28.39375 469.40936 28.39375Q468.1906 28.39375 467.675 28.8Q467.15936 29.190624 467.15936 29.721874Q467.15936 30.065624 467.3781 30.346874Q467.58124 30.628124 468.05 30.815624Q468.3156 30.909374 469.59686 31.253124Q471.47186 31.753124 472.20624 32.08125Q472.9406 32.39375 473.3625 33.003124Q473.78436 33.596874 473.78436 34.503124Q473.78436 35.378124 473.26874 36.159374Q472.7531 36.940624 471.78436 37.3625Q470.8156 37.784374 469.59686 37.784374Q467.58124 37.784374 466.51874 36.940624Q465.45624 36.096874 465.15936 34.45625ZM479.15936 34.01875Q479.14374 33.675 479.14374 33.503124Q479.14374 32.45625 479.4406 31.70625Q479.65936 31.14375 480.14374 30.565624Q480.4875 30.14375 481.39374 29.346874Q482.3156 28.534374 482.58124 28.065624Q482.8625 27.58125 482.8625 27.01875Q482.8625 25.9875 482.05 25.221874Q481.2531 24.440624 480.09686 24.440624Q478.97186 24.440624 478.22186 25.14375Q477.47186 25.846874 477.2375 27.33125L475.425 27.1125Q475.675 25.1125 476.8781 24.05Q478.08124 22.9875 480.0656 22.9875Q482.175 22.9875 483.425 24.128124Q484.675 25.26875 484.675 26.89375Q484.675 27.83125 484.22186 28.628124Q483.78436 29.409374 482.5031 30.55Q481.64374 31.315624 481.3781 31.675Q481.1281 32.034374 480.9875 32.503124Q480.8625 32.971874 480.84686 34.01875L479.15936 34.01875ZM479.05 37.55L479.05 35.55L481.05 35.55L481.05 37.55L479.05 37.55Z" fill-rule="nonzero"/></svg>